<svg xmlns="http://www.w3.org/2000/svg" width="760" height="300" viewBox="0 0 760 300" role="img" aria-labelledby="cfx45a2e942-title cfx45a2e942-desc" preserveAspectRatio="xMidYMid meet" style="max-width:100%;height:auto;display:block" shape-rendering="geometricPrecision" text-rendering="geometricPrecision">
<title id="cfx45a2e942-title">Automatic Axis Label Fitting</title>
<desc id="cfx45a2e942-desc">Automatic Axis Label Fitting with 1 data series: Processed.</desc>
<defs>
<style>#cfx45a2e942 text{-webkit-font-smoothing:antialiased;text-rendering:geometricPrecision;font-synthesis:none} #cfx45a2e942 .cfx-crisp-stroke,#cfx45a2e942 .cfx-guide-stroke,#cfx45a2e942 .cfx-premium-stroke{vector-effect:non-scaling-stroke;shape-rendering:geometricPrecision} #cfx45a2e942 .cfx-guide-stroke{shape-rendering:crispEdges} #cfx45a2e942 .cfx-interactive-region{transition:opacity .12s ease,stroke-width .12s ease} #cfx45a2e942 .cfx-interactive-region[data-cfx-role="dotted-map-connector"]{pointer-events:stroke} #cfx45a2e942 .cfx-interactive-region:hover,#cfx45a2e942 .cfx-interactive-region:focus{opacity:1;outline:none;stroke-width:var(--cfx-interactive-focus-stroke-width,2.2)}</style>
<filter id="cfx45a2e942-softShadow" x="-20%" y="-20%" width="140%" height="140%"><feDropShadow dx="0" dy="4" stdDeviation="6" flood-color="#0F172A" flood-opacity="0.044"/><feDropShadow dx="0" dy="14" stdDeviation="18" flood-color="#0F172A" flood-opacity="0.1"/></filter>
<linearGradient id="cfx45a2e942-cardSurface" x1="0" x2="0" y1="0" y2="1"><stop offset="0%" stop-color="#FFFFFF" stop-opacity="1"/><stop offset="100%" stop-color="#F7F7F8" stop-opacity="1"/></linearGradient>
<linearGradient id="cfx45a2e942-plotSurface" x1="0" x2="0" y1="0" y2="1"><stop offset="0%" stop-color="#F9FBFD" stop-opacity="1"/><stop offset="100%" stop-color="#F0F2F5" stop-opacity="1"/></linearGradient>
<clipPath id="cfx45a2e942-plotClip"><rect x="127.71" y="112" width="596.29" height="114" rx="8"/></clipPath>
<linearGradient id="cfx45a2e942-area0" x1="0" x2="0" y1="0" y2="1"><stop offset="0%" stop-color="#2563EB" stop-opacity="0.32"/><stop offset="100%" stop-color="#2563EB" stop-opacity="0.02"/></linearGradient>
<linearGradient id="cfx45a2e942-seriesFill0" x1="0" x2="0" y1="0" y2="1"><stop offset="0%" stop-color="#3F76ED" stop-opacity="1"/><stop offset="100%" stop-color="#235DDD" stop-opacity="0.94"/></linearGradient>
<linearGradient id="cfx45a2e942-sliceFill0" x1="0" x2="1" y1="0" y2="1"><stop offset="0%" stop-color="#2563EB" stop-opacity="1"/><stop offset="100%" stop-color="#2563EB" stop-opacity="0.78"/></linearGradient>
<linearGradient id="cfx45a2e942-sliceFill1" x1="0" x2="1" y1="0" y2="1"><stop offset="0%" stop-color="#0EA5E9" stop-opacity="1"/><stop offset="100%" stop-color="#0EA5E9" stop-opacity="0.78"/></linearGradient>
<linearGradient id="cfx45a2e942-sliceFill2" x1="0" x2="1" y1="0" y2="1"><stop offset="0%" stop-color="#10B981" stop-opacity="1"/><stop offset="100%" stop-color="#10B981" stop-opacity="0.78"/></linearGradient>
<linearGradient id="cfx45a2e942-sliceFill3" x1="0" x2="1" y1="0" y2="1"><stop offset="0%" stop-color="#F59E0B" stop-opacity="1"/><stop offset="100%" stop-color="#F59E0B" stop-opacity="0.78"/></linearGradient>
<linearGradient id="cfx45a2e942-sliceFill4" x1="0" x2="1" y1="0" y2="1"><stop offset="0%" stop-color="#EF4444" stop-opacity="1"/><stop offset="100%" stop-color="#EF4444" stop-opacity="0.78"/></linearGradient>
<linearGradient id="cfx45a2e942-sliceFill5" x1="0" x2="1" y1="0" y2="1"><stop offset="0%" stop-color="#8B5CF6" stop-opacity="1"/><stop offset="100%" stop-color="#8B5CF6" stop-opacity="0.78"/></linearGradient>
<linearGradient id="cfx45a2e942-sliceFill6" x1="0" x2="1" y1="0" y2="1"><stop offset="0%" stop-color="#EC4899" stop-opacity="1"/><stop offset="100%" stop-color="#EC4899" stop-opacity="0.78"/></linearGradient>
<linearGradient id="cfx45a2e942-sliceFill7" x1="0" x2="1" y1="0" y2="1"><stop offset="0%" stop-color="#14B8A6" stop-opacity="1"/><stop offset="100%" stop-color="#14B8A6" stop-opacity="0.78"/></linearGradient>
</defs>
<g id="cfx45a2e942">
<rect data-cfx-role="card-surface" x="14" y="14" width="732" height="272" rx="12" fill="url(#cfx45a2e942-cardSurface)" filter="url(#cfx45a2e942-softShadow)"/>
<rect data-cfx-role="card-border" class="cfx-crisp-stroke" x="14.5" y="14.5" width="731" height="271" rx="11.5" fill="none" stroke="rgba(148,163,184,0.361)"/>
<rect data-cfx-role="card-inner-highlight" class="cfx-crisp-stroke" x="15.5" y="15.5" width="729" height="269" rx="10.5" fill="none" stroke="#FFFFFF" stroke-opacity="0.42"/>
<rect x="127.71" y="112" width="596.29" height="114" rx="8" fill="url(#cfx45a2e942-plotSurface)"/>
<rect class="cfx-crisp-stroke" x="128.21" y="112.5" width="595.29" height="113" rx="7.5" fill="none" stroke="rgba(148,163,184,0.188)"/>
<rect data-cfx-role="plot-inner-highlight" class="cfx-crisp-stroke" x="128.71" y="113" width="594.29" height="112" rx="7" fill="none" stroke="#FFFFFF" stroke-opacity="0.32"/>
<text data-cfx-role="chart-title" x="40" y="52" fill="#0F172A" font-family="-apple-system, BlinkMacSystemFont, 'Segoe UI', Roboto, Helvetica, Arial, sans-serif" font-size="25" font-weight="750">Automatic Axis Label Fitting</text>
<text data-cfx-role="chart-subtitle" x="40" y="79" fill="#64748B" font-family="-apple-system, BlinkMacSystemFont, 'Segoe UI', Roboto, Helvetica, Arial, sans-serif" font-size="12.5" font-weight="400">Dense long-form values thin predictably instead of colliding</text>
<line class="cfx-guide-stroke" x1="127.71" y1="226.5" x2="724" y2="226.5" stroke="rgba(148,163,184,0.275)" stroke-width="1" opacity="1"/>
<text data-cfx-role="y-axis-label" data-cfx-value="0" x="115.71" y="230" text-anchor="end" fill="#64748B" font-family="-apple-system, BlinkMacSystemFont, 'Segoe UI', Roboto, Helvetica, Arial, sans-serif" font-size="10.5">$0.00</text>
<line class="cfx-guide-stroke" x1="127.71" y1="217.5" x2="724" y2="217.5" stroke="rgba(148,163,184,0.275)" stroke-width="1" opacity="1"/>
<line class="cfx-guide-stroke" x1="127.71" y1="209.5" x2="724" y2="209.5" stroke="rgba(148,163,184,0.275)" stroke-width="1" opacity="1"/>
<text data-cfx-role="y-axis-label" data-cfx-value="200000" x="115.71" y="213.714" text-anchor="end" fill="#64748B" font-family="-apple-system, BlinkMacSystemFont, 'Segoe UI', Roboto, Helvetica, Arial, sans-serif" font-size="10.5">$200,000.00</text>
<line class="cfx-guide-stroke" x1="127.71" y1="201.5" x2="724" y2="201.5" stroke="rgba(148,163,184,0.275)" stroke-width="1" opacity="1"/>
<line class="cfx-guide-stroke" x1="127.71" y1="193.5" x2="724" y2="193.5" stroke="rgba(148,163,184,0.275)" stroke-width="1" opacity="1"/>
<text data-cfx-role="y-axis-label" data-cfx-value="400000" x="115.71" y="197.429" text-anchor="end" fill="#64748B" font-family="-apple-system, BlinkMacSystemFont, 'Segoe UI', Roboto, Helvetica, Arial, sans-serif" font-size="10.5">$400,000.00</text>
<line class="cfx-guide-stroke" x1="127.71" y1="185.5" x2="724" y2="185.5" stroke="rgba(148,163,184,0.275)" stroke-width="1" opacity="1"/>
<line class="cfx-guide-stroke" x1="127.71" y1="177.5" x2="724" y2="177.5" stroke="rgba(148,163,184,0.275)" stroke-width="1" opacity="1"/>
<text data-cfx-role="y-axis-label" data-cfx-value="600000" x="115.71" y="181.143" text-anchor="end" fill="#64748B" font-family="-apple-system, BlinkMacSystemFont, 'Segoe UI', Roboto, Helvetica, Arial, sans-serif" font-size="10.5">$600,000.00</text>
<line class="cfx-guide-stroke" x1="127.71" y1="169.5" x2="724" y2="169.5" stroke="rgba(148,163,184,0.275)" stroke-width="1" opacity="1"/>
<line class="cfx-guide-stroke" x1="127.71" y1="160.5" x2="724" y2="160.5" stroke="rgba(148,163,184,0.275)" stroke-width="1" opacity="1"/>
<text data-cfx-role="y-axis-label" data-cfx-value="800000" x="115.71" y="164.857" text-anchor="end" fill="#64748B" font-family="-apple-system, BlinkMacSystemFont, 'Segoe UI', Roboto, Helvetica, Arial, sans-serif" font-size="10.5">$800,000.00</text>
<line class="cfx-guide-stroke" x1="127.71" y1="152.5" x2="724" y2="152.5" stroke="rgba(148,163,184,0.275)" stroke-width="1" opacity="1"/>
<line class="cfx-guide-stroke" x1="127.71" y1="144.5" x2="724" y2="144.5" stroke="rgba(148,163,184,0.275)" stroke-width="1" opacity="1"/>
<text data-cfx-role="y-axis-label" data-cfx-value="1000000" x="115.71" y="148.571" text-anchor="end" fill="#64748B" font-family="-apple-system, BlinkMacSystemFont, 'Segoe UI', Roboto, Helvetica, Arial, sans-serif" font-size="10.5">$1,000,000.00</text>
<line class="cfx-guide-stroke" x1="127.71" y1="136.5" x2="724" y2="136.5" stroke="rgba(148,163,184,0.275)" stroke-width="1" opacity="1"/>
<line class="cfx-guide-stroke" x1="127.71" y1="128.5" x2="724" y2="128.5" stroke="rgba(148,163,184,0.275)" stroke-width="1" opacity="1"/>
<text data-cfx-role="y-axis-label" data-cfx-value="1200000" x="115.71" y="132.286" text-anchor="end" fill="#64748B" font-family="-apple-system, BlinkMacSystemFont, 'Segoe UI', Roboto, Helvetica, Arial, sans-serif" font-size="10.5">$1,200,000.00</text>
<line class="cfx-guide-stroke" x1="127.71" y1="120.5" x2="724" y2="120.5" stroke="rgba(148,163,184,0.275)" stroke-width="1" opacity="1"/>
<line class="cfx-guide-stroke" x1="127.71" y1="112.5" x2="724" y2="112.5" stroke="rgba(148,163,184,0.275)" stroke-width="1" opacity="1"/>
<text data-cfx-role="y-axis-label" data-cfx-value="1400000" x="115.71" y="116" text-anchor="end" fill="#64748B" font-family="-apple-system, BlinkMacSystemFont, 'Segoe UI', Roboto, Helvetica, Arial, sans-serif" font-size="10.5">$1,400,000.00</text>
<line class="cfx-guide-stroke" x1="127.5" y1="112" x2="127.5" y2="226" stroke="rgba(148,163,184,0.275)" stroke-width="1" opacity="0.42"/>
<text x="135.71" y="247" text-anchor="start" fill="#64748B" font-family="-apple-system, BlinkMacSystemFont, 'Segoe UI', Roboto, Helvetica, Arial, sans-serif" font-size="10.5">W1</text>
<line class="cfx-guide-stroke" x1="212.5" y1="112" x2="212.5" y2="226" stroke="rgba(148,163,184,0.275)" stroke-width="1" opacity="0.42"/>
<text x="212.894" y="247" text-anchor="middle" fill="#64748B" font-family="-apple-system, BlinkMacSystemFont, 'Segoe UI', Roboto, Helvetica, Arial, sans-serif" font-size="10.5">W2</text>
<line class="cfx-guide-stroke" x1="298.5" y1="112" x2="298.5" y2="226" stroke="rgba(148,163,184,0.275)" stroke-width="1" opacity="0.42"/>
<text x="298.079" y="247" text-anchor="middle" fill="#64748B" font-family="-apple-system, BlinkMacSystemFont, 'Segoe UI', Roboto, Helvetica, Arial, sans-serif" font-size="10.5">W3</text>
<line class="cfx-guide-stroke" x1="383.5" y1="112" x2="383.5" y2="226" stroke="rgba(148,163,184,0.275)" stroke-width="1" opacity="0.42"/>
<text x="383.263" y="247" text-anchor="middle" fill="#64748B" font-family="-apple-system, BlinkMacSystemFont, 'Segoe UI', Roboto, Helvetica, Arial, sans-serif" font-size="10.5">W4</text>
<line class="cfx-guide-stroke" x1="468.5" y1="112" x2="468.5" y2="226" stroke="rgba(148,163,184,0.275)" stroke-width="1" opacity="0.42"/>
<text x="468.447" y="247" text-anchor="middle" fill="#64748B" font-family="-apple-system, BlinkMacSystemFont, 'Segoe UI', Roboto, Helvetica, Arial, sans-serif" font-size="10.5">W5</text>
<line class="cfx-guide-stroke" x1="553.5" y1="112" x2="553.5" y2="226" stroke="rgba(148,163,184,0.275)" stroke-width="1" opacity="0.42"/>
<text x="553.631" y="247" text-anchor="middle" fill="#64748B" font-family="-apple-system, BlinkMacSystemFont, 'Segoe UI', Roboto, Helvetica, Arial, sans-serif" font-size="10.5">W6</text>
<line class="cfx-guide-stroke" x1="638.5" y1="112" x2="638.5" y2="226" stroke="rgba(148,163,184,0.275)" stroke-width="1" opacity="0.42"/>
<text x="638.816" y="247" text-anchor="middle" fill="#64748B" font-family="-apple-system, BlinkMacSystemFont, 'Segoe UI', Roboto, Helvetica, Arial, sans-serif" font-size="10.5">W7</text>
<line class="cfx-guide-stroke" x1="724.5" y1="112" x2="724.5" y2="226" stroke="rgba(148,163,184,0.275)" stroke-width="1" opacity="0.42"/>
<text x="716" y="247" text-anchor="end" fill="#64748B" font-family="-apple-system, BlinkMacSystemFont, 'Segoe UI', Roboto, Helvetica, Arial, sans-serif" font-size="10.5">W8</text>
<line class="cfx-guide-stroke" x1="127.71" y1="226.5" x2="724" y2="226.5" stroke="rgba(71,85,105,0.627)" stroke-width="1.2"/>
<text x="425.855" y="270" text-anchor="middle" fill="#64748B" font-family="-apple-system, BlinkMacSystemFont, 'Segoe UI', Roboto, Helvetica, Arial, sans-serif" font-size="11.5" font-weight="600">Review window</text>
<line class="cfx-guide-stroke" x1="127.5" y1="112" x2="127.5" y2="226" stroke="rgba(71,85,105,0.627)" stroke-width="1.2"/>
<text transform="translate(26 169) rotate(-90)" text-anchor="middle" fill="#64748B" font-family="-apple-system, BlinkMacSystemFont, 'Segoe UI', Roboto, Helvetica, Arial, sans-serif" font-size="9.5" font-weight="600">Processed volume</text>
<g clip-path="url(#cfx45a2e942-plotClip)">
<path data-cfx-role="area" data-cfx-series="0" data-cfx-point-count="8" d="M 127.71 128.286 C 141.907 128.041 184.5 126.983 212.894 126.82 C 241.289 126.657 269.684 127.485 298.079 127.309 C 326.473 127.132 354.868 125.951 383.263 125.761 C 411.658 125.571 440.052 126.345 468.447 126.169 C 496.842 125.992 525.237 124.893 553.631 124.703 C 582.026 124.513 610.421 125.232 638.816 125.029 C 667.21 124.825 709.803 123.739 724 123.481 L 724 226 L 127.71 226 Z" fill="url(#cfx45a2e942-area0)"/>
<path data-cfx-role="area-line-ambient-halo" data-cfx-series="0" data-cfx-point-count="8" d="M 127.71 128.286 C 141.907 128.041 184.5 126.983 212.894 126.82 C 241.289 126.657 269.684 127.485 298.079 127.309 C 326.473 127.132 354.868 125.951 383.263 125.761 C 411.658 125.571 440.052 126.345 468.447 126.169 C 496.842 125.992 525.237 124.893 553.631 124.703 C 582.026 124.513 610.421 125.232 638.816 125.029 C 667.21 124.825 709.803 123.739 724 123.481" class="cfx-premium-stroke" fill="none" stroke="#2563EB" stroke-width="5.4" stroke-linecap="round" stroke-linejoin="round" opacity="0.014"/>
<path data-cfx-role="area-line-halo" data-cfx-series="0" data-cfx-point-count="8" d="M 127.71 128.286 C 141.907 128.041 184.5 126.983 212.894 126.82 C 241.289 126.657 269.684 127.485 298.079 127.309 C 326.473 127.132 354.868 125.951 383.263 125.761 C 411.658 125.571 440.052 126.345 468.447 126.169 C 496.842 125.992 525.237 124.893 553.631 124.703 C 582.026 124.513 610.421 125.232 638.816 125.029 C 667.21 124.825 709.803 123.739 724 123.481" class="cfx-premium-stroke" fill="none" stroke="#2563EB" stroke-width="4.2" stroke-linecap="round" stroke-linejoin="round" opacity="0.055"/>
<path data-cfx-role="area-line" data-cfx-series="0" data-cfx-point-count="8" d="M 127.71 128.286 C 141.907 128.041 184.5 126.983 212.894 126.82 C 241.289 126.657 269.684 127.485 298.079 127.309 C 326.473 127.132 354.868 125.951 383.263 125.761 C 411.658 125.571 440.052 126.345 468.447 126.169 C 496.842 125.992 525.237 124.893 553.631 124.703 C 582.026 124.513 610.421 125.232 638.816 125.029 C 667.21 124.825 709.803 123.739 724 123.481" class="cfx-premium-stroke" fill="none" stroke="#2563EB" stroke-width="3" stroke-linecap="round" stroke-linejoin="round"/>
<path data-cfx-role="area-line-highlight" data-cfx-series="0" data-cfx-point-count="8" d="M 127.71 128.286 C 141.907 128.041 184.5 126.983 212.894 126.82 C 241.289 126.657 269.684 127.485 298.079 127.309 C 326.473 127.132 354.868 125.951 383.263 125.761 C 411.658 125.571 440.052 126.345 468.447 126.169 C 496.842 125.992 525.237 124.893 553.631 124.703 C 582.026 124.513 610.421 125.232 638.816 125.029 C 667.21 124.825 709.803 123.739 724 123.481" class="cfx-premium-stroke" fill="none" stroke="#FFFFFF" stroke-width="1" stroke-linecap="round" stroke-linejoin="round" opacity="0.035"/>
<circle data-cfx-role="line-marker" data-cfx-series="0" data-cfx-point="0" data-cfx-x="1" data-cfx-y="1200000" cx="127.71" cy="128.286" r="3.25" fill="#2563EB" stroke="#FFFFFF" stroke-width="2"/>
<circle data-cfx-role="line-marker" data-cfx-series="0" data-cfx-point="1" data-cfx-x="2" data-cfx-y="1218000" cx="212.894" cy="126.82" r="3.25" fill="#2563EB" stroke="#FFFFFF" stroke-width="2"/>
<circle data-cfx-role="line-marker" data-cfx-series="0" data-cfx-point="2" data-cfx-x="3" data-cfx-y="1212000" cx="298.079" cy="127.309" r="3.25" fill="#2563EB" stroke="#FFFFFF" stroke-width="2"/>
<circle data-cfx-role="line-marker" data-cfx-series="0" data-cfx-point="3" data-cfx-x="4" data-cfx-y="1231000" cx="383.263" cy="125.761" r="3.25" fill="#2563EB" stroke="#FFFFFF" stroke-width="2"/>
<circle data-cfx-role="line-marker" data-cfx-series="0" data-cfx-point="4" data-cfx-x="5" data-cfx-y="1226000" cx="468.447" cy="126.169" r="3.25" fill="#2563EB" stroke="#FFFFFF" stroke-width="2"/>
<circle data-cfx-role="line-marker" data-cfx-series="0" data-cfx-point="5" data-cfx-x="6" data-cfx-y="1244000" cx="553.631" cy="124.703" r="3.25" fill="#2563EB" stroke="#FFFFFF" stroke-width="2"/>
<circle data-cfx-role="line-marker" data-cfx-series="0" data-cfx-point="6" data-cfx-x="7" data-cfx-y="1240000" cx="638.816" cy="125.029" r="3.25" fill="#2563EB" stroke="#FFFFFF" stroke-width="2"/>
<circle data-cfx-role="line-marker" data-cfx-series="0" data-cfx-point="7" data-cfx-x="8" data-cfx-y="1259000" cx="724" cy="123.481" r="3.25" fill="#2563EB" stroke="#FFFFFF" stroke-width="2"/>
</g>
</g>
</svg>
