<svg xmlns="http://www.w3.org/2000/svg" width="920" height="360" viewBox="0 0 920 360" role="img" aria-labelledby="cfx6996cc2e-title cfx6996cc2e-desc" preserveAspectRatio="xMidYMid meet" style="max-width:100%;height:auto;display:block" shape-rendering="geometricPrecision" text-rendering="geometricPrecision">
<title id="cfx6996cc2e-title">ChartForgeX chart</title>
<desc id="cfx6996cc2e-desc">Chart with 2 data series: Saved, Outreach.</desc>
<defs>
<style>#cfx6996cc2e text{font-synthesis:none} #cfx6996cc2e .cfx-crisp-stroke{vector-effect:non-scaling-stroke;shape-rendering:geometricPrecision} #cfx6996cc2e .cfx-interactive-region{transition:opacity .12s ease,stroke-width .12s ease} #cfx6996cc2e .cfx-interactive-region[data-cfx-role="dotted-map-connector"]{pointer-events:stroke} #cfx6996cc2e .cfx-interactive-region:hover,#cfx6996cc2e .cfx-interactive-region:focus{opacity:1;outline:none;stroke-width:var(--cfx-interactive-focus-stroke-width,2.2)}</style>
<filter id="cfx6996cc2e-softShadow" x="-20%" y="-20%" width="140%" height="140%"><feDropShadow dx="0" dy="4" stdDeviation="6" flood-color="#0F172A" flood-opacity="0.022"/><feDropShadow dx="0" dy="14" stdDeviation="18" flood-color="#0F172A" flood-opacity="0.05"/></filter>
<clipPath id="cfx6996cc2e-plotClip"><rect x="79.92" y="26" width="816.08" height="280" rx="14"/></clipPath>
<linearGradient id="cfx6996cc2e-area0" x1="0" x2="0" y1="0" y2="1"><stop offset="0%" stop-color="#DDFB20" stop-opacity="0.32"/><stop offset="100%" stop-color="#DDFB20" stop-opacity="0.02"/></linearGradient>
<linearGradient id="cfx6996cc2e-seriesFill0" x1="0" x2="0" y1="0" y2="1"><stop offset="0%" stop-color="#E1FB3B" stop-opacity="1"/><stop offset="100%" stop-color="#D0EC1E" stop-opacity="0.94"/></linearGradient>
<linearGradient id="cfx6996cc2e-area1" x1="0" x2="0" y1="0" y2="1"><stop offset="0%" stop-color="#27C26A" stop-opacity="0.32"/><stop offset="100%" stop-color="#27C26A" stop-opacity="0.02"/></linearGradient>
<linearGradient id="cfx6996cc2e-seriesFill1" x1="0" x2="0" y1="0" y2="1"><stop offset="0%" stop-color="#41C97C" stop-opacity="1"/><stop offset="100%" stop-color="#25B664" stop-opacity="0.94"/></linearGradient>
<linearGradient id="cfx6996cc2e-sliceFill0" x1="0" x2="1" y1="0" y2="1"><stop offset="0%" stop-color="#DDFB20" stop-opacity="1"/><stop offset="100%" stop-color="#DDFB20" stop-opacity="0.78"/></linearGradient>
<linearGradient id="cfx6996cc2e-sliceFill1" x1="0" x2="1" y1="0" y2="1"><stop offset="0%" stop-color="#27C26A" stop-opacity="1"/><stop offset="100%" stop-color="#27C26A" stop-opacity="0.78"/></linearGradient>
<linearGradient id="cfx6996cc2e-sliceFill2" x1="0" x2="1" y1="0" y2="1"><stop offset="0%" stop-color="#356AF4" stop-opacity="1"/><stop offset="100%" stop-color="#356AF4" stop-opacity="0.78"/></linearGradient>
<linearGradient id="cfx6996cc2e-sliceFill3" x1="0" x2="1" y1="0" y2="1"><stop offset="0%" stop-color="#FF3B4F" stop-opacity="1"/><stop offset="100%" stop-color="#FF3B4F" stop-opacity="0.78"/></linearGradient>
<linearGradient id="cfx6996cc2e-sliceFill4" x1="0" x2="1" y1="0" y2="1"><stop offset="0%" stop-color="#667085" stop-opacity="1"/><stop offset="100%" stop-color="#667085" stop-opacity="0.78"/></linearGradient>
</defs>
<g id="cfx6996cc2e">
<rect width="100%" height="100%" fill="#F2F5EC"/>
<rect data-cfx-role="card-surface" x="14" y="14" width="892" height="332" rx="24" fill="#FFFFFF" filter="url(#cfx6996cc2e-softShadow)"/>
<rect data-cfx-role="card-border" class="cfx-crisp-stroke" x="14.5" y="14.5" width="891" height="331" rx="23.5" fill="none" stroke="#DDE3D1"/>
<text x="67.92" y="310" text-anchor="end" fill="#8B93A3" font-family="Aptos, Calibri, 'Segoe UI', Candara, Arial, sans-serif" font-size="16">0</text>
<text x="67.92" y="263.333" text-anchor="end" fill="#8B93A3" font-family="Aptos, Calibri, 'Segoe UI', Candara, Arial, sans-serif" font-size="16">20</text>
<text x="67.92" y="216.667" text-anchor="end" fill="#8B93A3" font-family="Aptos, Calibri, 'Segoe UI', Candara, Arial, sans-serif" font-size="16">40</text>
<text x="67.92" y="170" text-anchor="end" fill="#8B93A3" font-family="Aptos, Calibri, 'Segoe UI', Candara, Arial, sans-serif" font-size="16">60</text>
<text x="67.92" y="123.333" text-anchor="end" fill="#8B93A3" font-family="Aptos, Calibri, 'Segoe UI', Candara, Arial, sans-serif" font-size="16">80</text>
<text x="67.92" y="76.667" text-anchor="end" fill="#8B93A3" font-family="Aptos, Calibri, 'Segoe UI', Candara, Arial, sans-serif" font-size="16">100</text>
<text x="67.92" y="30" text-anchor="end" fill="#8B93A3" font-family="Aptos, Calibri, 'Segoe UI', Candara, Arial, sans-serif" font-size="16">120</text>
<line x1="79.92" y1="26" x2="79.92" y2="306" stroke="#DDE3D1" stroke-width="1" opacity="0.34" stroke-dasharray="4 6"/>
<text x="87.92" y="327" text-anchor="start" fill="#8B93A3" font-family="Aptos, Calibri, 'Segoe UI', Candara, Arial, sans-serif" font-size="16">Sunday</text>
<line x1="215.933" y1="26" x2="215.933" y2="306" stroke="#DDE3D1" stroke-width="1" opacity="0.34" stroke-dasharray="4 6"/>
<text x="215.933" y="327" text-anchor="middle" fill="#8B93A3" font-family="Aptos, Calibri, 'Segoe UI', Candara, Arial, sans-serif" font-size="16">Monday</text>
<line x1="351.947" y1="26" x2="351.947" y2="306" stroke="#DDE3D1" stroke-width="1" opacity="0.34" stroke-dasharray="4 6"/>
<text x="351.947" y="327" text-anchor="middle" fill="#8B93A3" font-family="Aptos, Calibri, 'Segoe UI', Candara, Arial, sans-serif" font-size="16">Tuesday</text>
<line x1="487.96" y1="26" x2="487.96" y2="306" stroke="#DDE3D1" stroke-width="1" opacity="0.34" stroke-dasharray="4 6"/>
<text x="487.96" y="327" text-anchor="middle" fill="#FF3B4F" font-family="Aptos, Calibri, 'Segoe UI', Candara, Arial, sans-serif" font-size="16">Wednesday</text>
<line x1="623.973" y1="26" x2="623.973" y2="306" stroke="#DDE3D1" stroke-width="1" opacity="0.34" stroke-dasharray="4 6"/>
<text x="623.973" y="327" text-anchor="middle" fill="#8B93A3" font-family="Aptos, Calibri, 'Segoe UI', Candara, Arial, sans-serif" font-size="16">Thursday</text>
<line x1="759.987" y1="26" x2="759.987" y2="306" stroke="#DDE3D1" stroke-width="1" opacity="0.34" stroke-dasharray="4 6"/>
<text x="759.987" y="327" text-anchor="middle" fill="#8B93A3" font-family="Aptos, Calibri, 'Segoe UI', Candara, Arial, sans-serif" font-size="16">Friday</text>
<line x1="896" y1="26" x2="896" y2="306" stroke="#DDE3D1" stroke-width="1" opacity="0.34" stroke-dasharray="4 6"/>
<text x="888" y="327" text-anchor="end" fill="#8B93A3" font-family="Aptos, Calibri, 'Segoe UI', Candara, Arial, sans-serif" font-size="16">Saturday</text>
<g clip-path="url(#cfx6996cc2e-plotClip)">
<path data-cfx-role="area" data-cfx-series="0" data-cfx-point-count="7" d="M 79.92 231.333 C 102.589 224.333 170.596 201 215.933 189.333 C 261.271 177.667 306.609 172.222 351.947 161.333 C 397.284 150.444 442.622 122.444 487.96 124 C 533.298 125.556 578.636 174.556 623.973 170.667 C 669.311 166.778 714.649 115.444 759.987 100.667 C 805.324 85.889 873.331 85.111 896 82 L 896 306 L 79.92 306 Z" fill="url(#cfx6996cc2e-area0)"/>
<path data-cfx-role="area-line-ambient-halo" data-cfx-series="0" data-cfx-point-count="7" d="M 79.92 231.333 C 102.589 224.333 170.596 201 215.933 189.333 C 261.271 177.667 306.609 172.222 351.947 161.333 C 397.284 150.444 442.622 122.444 487.96 124 C 533.298 125.556 578.636 174.556 623.973 170.667 C 669.311 166.778 714.649 115.444 759.987 100.667 C 805.324 85.889 873.331 85.111 896 82" fill="none" stroke="#DDFB20" stroke-width="13" stroke-linecap="round" stroke-linejoin="round" opacity="0.055"/>
<path data-cfx-role="area-line-halo" data-cfx-series="0" data-cfx-point-count="7" d="M 79.92 231.333 C 102.589 224.333 170.596 201 215.933 189.333 C 261.271 177.667 306.609 172.222 351.947 161.333 C 397.284 150.444 442.622 122.444 487.96 124 C 533.298 125.556 578.636 174.556 623.973 170.667 C 669.311 166.778 714.649 115.444 759.987 100.667 C 805.324 85.889 873.331 85.111 896 82" fill="none" stroke="#DDFB20" stroke-width="8" stroke-linecap="round" stroke-linejoin="round" opacity="0.14"/>
<path data-cfx-role="area-line" data-cfx-series="0" data-cfx-point-count="7" d="M 79.92 231.333 C 102.589 224.333 170.596 201 215.933 189.333 C 261.271 177.667 306.609 172.222 351.947 161.333 C 397.284 150.444 442.622 122.444 487.96 124 C 533.298 125.556 578.636 174.556 623.973 170.667 C 669.311 166.778 714.649 115.444 759.987 100.667 C 805.324 85.889 873.331 85.111 896 82" fill="none" stroke="#DDFB20" stroke-width="3" stroke-linecap="round" stroke-linejoin="round"/>
<path data-cfx-role="area-line-highlight" data-cfx-series="0" data-cfx-point-count="7" d="M 79.92 231.333 C 102.589 224.333 170.596 201 215.933 189.333 C 261.271 177.667 306.609 172.222 351.947 161.333 C 397.284 150.444 442.622 122.444 487.96 124 C 533.298 125.556 578.636 174.556 623.973 170.667 C 669.311 166.778 714.649 115.444 759.987 100.667 C 805.324 85.889 873.331 85.111 896 82" fill="none" stroke="#FFFFFF" stroke-width="1" stroke-linecap="round" stroke-linejoin="round" opacity="0.13"/>
<circle data-cfx-role="line-marker" data-cfx-series="0" data-cfx-point="0" data-cfx-x="1" data-cfx-y="32" cx="79.92" cy="231.333" r="3.4" fill="#DDFB20" stroke="#FFFFFF" stroke-width="2"/>
<circle data-cfx-role="line-marker" data-cfx-series="0" data-cfx-point="1" data-cfx-x="2" data-cfx-y="50" cx="215.933" cy="189.333" r="3.4" fill="#DDFB20" stroke="#FFFFFF" stroke-width="2"/>
<circle data-cfx-role="line-marker" data-cfx-series="0" data-cfx-point="2" data-cfx-x="3" data-cfx-y="62" cx="351.947" cy="161.333" r="3.4" fill="#DDFB20" stroke="#FFFFFF" stroke-width="2"/>
<circle data-cfx-role="line-marker" data-cfx-series="0" data-cfx-point="3" data-cfx-x="4" data-cfx-y="78" cx="487.96" cy="124" r="3.4" fill="#DDFB20" stroke="#FFFFFF" stroke-width="2"/>
<circle data-cfx-role="line-marker" data-cfx-series="0" data-cfx-point="4" data-cfx-x="5" data-cfx-y="58" cx="623.973" cy="170.667" r="3.4" fill="#DDFB20" stroke="#FFFFFF" stroke-width="2"/>
<circle data-cfx-role="line-marker" data-cfx-series="0" data-cfx-point="5" data-cfx-x="6" data-cfx-y="88" cx="759.987" cy="100.667" r="3.4" fill="#DDFB20" stroke="#FFFFFF" stroke-width="2"/>
<circle data-cfx-role="line-marker" data-cfx-series="0" data-cfx-point="6" data-cfx-x="7" data-cfx-y="96" cx="896" cy="82" r="3.4" fill="#DDFB20" stroke="#FFFFFF" stroke-width="2"/>
<path data-cfx-role="line-ambient-halo" data-cfx-series="1" data-cfx-point-count="7" d="M 79.92 259.333 C 102.589 253.889 170.596 235.222 215.933 226.667 C 261.271 218.111 306.609 216.944 351.947 208 C 397.284 199.056 442.622 173.778 487.96 173 C 533.298 172.222 578.636 206.833 623.973 203.333 C 669.311 199.833 714.649 163.667 759.987 152 C 805.324 140.333 873.331 136.444 896 133.333" fill="none" stroke="#27C26A" stroke-width="13" stroke-linecap="round" stroke-linejoin="round" opacity="0.055"/>
<path data-cfx-role="line-halo" data-cfx-series="1" data-cfx-point-count="7" d="M 79.92 259.333 C 102.589 253.889 170.596 235.222 215.933 226.667 C 261.271 218.111 306.609 216.944 351.947 208 C 397.284 199.056 442.622 173.778 487.96 173 C 533.298 172.222 578.636 206.833 623.973 203.333 C 669.311 199.833 714.649 163.667 759.987 152 C 805.324 140.333 873.331 136.444 896 133.333" fill="none" stroke="#27C26A" stroke-width="8" stroke-linecap="round" stroke-linejoin="round" opacity="0.14"/>
<path data-cfx-role="line" data-cfx-series="1" data-cfx-point-count="7" d="M 79.92 259.333 C 102.589 253.889 170.596 235.222 215.933 226.667 C 261.271 218.111 306.609 216.944 351.947 208 C 397.284 199.056 442.622 173.778 487.96 173 C 533.298 172.222 578.636 206.833 623.973 203.333 C 669.311 199.833 714.649 163.667 759.987 152 C 805.324 140.333 873.331 136.444 896 133.333" fill="none" stroke="#27C26A" stroke-width="3" stroke-linecap="round" stroke-linejoin="round"/>
<path data-cfx-role="line-highlight" data-cfx-series="1" data-cfx-point-count="7" d="M 79.92 259.333 C 102.589 253.889 170.596 235.222 215.933 226.667 C 261.271 218.111 306.609 216.944 351.947 208 C 397.284 199.056 442.622 173.778 487.96 173 C 533.298 172.222 578.636 206.833 623.973 203.333 C 669.311 199.833 714.649 163.667 759.987 152 C 805.324 140.333 873.331 136.444 896 133.333" fill="none" stroke="#FFFFFF" stroke-width="1" stroke-linecap="round" stroke-linejoin="round" opacity="0.13"/>
<circle data-cfx-role="line-marker" data-cfx-series="1" data-cfx-point="0" data-cfx-x="1" data-cfx-y="20" cx="79.92" cy="259.333" r="3.4" fill="#27C26A" stroke="#FFFFFF" stroke-width="2"/>
<circle data-cfx-role="line-marker" data-cfx-series="1" data-cfx-point="1" data-cfx-x="2" data-cfx-y="34" cx="215.933" cy="226.667" r="3.4" fill="#27C26A" stroke="#FFFFFF" stroke-width="2"/>
<circle data-cfx-role="line-marker" data-cfx-series="1" data-cfx-point="2" data-cfx-x="3" data-cfx-y="42" cx="351.947" cy="208" r="3.4" fill="#27C26A" stroke="#FFFFFF" stroke-width="2"/>
<circle data-cfx-role="line-marker" data-cfx-series="1" data-cfx-point="3" data-cfx-x="4" data-cfx-y="57" cx="487.96" cy="173" r="3.4" fill="#27C26A" stroke="#FFFFFF" stroke-width="2"/>
<circle data-cfx-role="line-marker" data-cfx-series="1" data-cfx-point="4" data-cfx-x="5" data-cfx-y="44" cx="623.973" cy="203.333" r="3.4" fill="#27C26A" stroke="#FFFFFF" stroke-width="2"/>
<circle data-cfx-role="line-marker" data-cfx-series="1" data-cfx-point="5" data-cfx-x="6" data-cfx-y="66" cx="759.987" cy="152" r="3.4" fill="#27C26A" stroke="#FFFFFF" stroke-width="2"/>
<circle data-cfx-role="line-marker" data-cfx-series="1" data-cfx-point="6" data-cfx-x="7" data-cfx-y="74" cx="896" cy="133.333" r="3.4" fill="#27C26A" stroke="#FFFFFF" stroke-width="2"/>
</g>
<line data-cfx-role="annotation-line" data-cfx-kind="vertical-line" data-cfx-value="3.5" data-cfx-label="" x1="419.953" y1="26" x2="419.953" y2="306" stroke="#FF3B4F" stroke-width="1.6" stroke-dasharray="6 5"/>
<line data-cfx-role="annotation-line" data-cfx-kind="vertical-line" data-cfx-value="4.5" data-cfx-label="" x1="555.967" y1="26" x2="555.967" y2="306" stroke="#FF3B4F" stroke-width="1.6" stroke-dasharray="6 5"/>
</g>
</svg>
