<svg xmlns="http://www.w3.org/2000/svg" id="cfx-visual-9a1bc6dd" width="820" height="340" viewBox="0 0 820 340" role="img" aria-labelledby="cfx-visual-9a1bc6dd-title cfx-visual-9a1bc6dd-desc" preserveAspectRatio="xMidYMid meet" shape-rendering="geometricPrecision" text-rendering="geometricPrecision" style="max-width:100%;height:auto;display:block">
<title id="cfx-visual-9a1bc6dd-title">Channel Share</title>
<desc id="cfx-visual-9a1bc6dd-desc">Static ChartForgeX visual block.</desc>
<defs>
<style>#cfx-visual-9a1bc6dd .cfx-guide-stroke,#cfx-visual-9a1bc6dd .cfx-premium-stroke{vector-effect:non-scaling-stroke;shape-rendering:geometricPrecision}#cfx-visual-9a1bc6dd text{text-rendering:geometricPrecision;-webkit-font-smoothing:antialiased}</style>
<linearGradient id="cfx-visual-9a1bc6dd-visualBackground" x1="0" x2="0" y1="0" y2="1"><stop offset="0%" stop-color="#F4F4F5" stop-opacity="1"/><stop offset="100%" stop-color="#EAEAEC" stop-opacity="1"/></linearGradient>
<linearGradient id="cfx-visual-9a1bc6dd-visualCard" x1="0" x2="0" y1="0" y2="1"><stop offset="0%" stop-color="#FFFFFF" stop-opacity="1"/><stop offset="100%" stop-color="#F7F7F8" stop-opacity="1"/></linearGradient>
<linearGradient id="cfx-visual-9a1bc6dd-visualPlot" x1="0" x2="0" y1="0" y2="1"><stop offset="0%" stop-color="#FFFFFF" stop-opacity="1"/><stop offset="100%" stop-color="#F7F7F8" stop-opacity="1"/></linearGradient>
<clipPath id="cfx-visual-9a1bc6dd-visualCardClip"><rect x="0" y="0" width="820" height="340" rx="18"/></clipPath>
</defs>
<rect width="100%" height="100%" fill="url(#cfx-visual-9a1bc6dd-visualBackground)"/>
<rect data-cfx-role="visual-card" class="cfx-guide-stroke" x="0.5" y="0.5" width="819" height="339" rx="17.5" fill="url(#cfx-visual-9a1bc6dd-visualCard)" stroke="#ECEEF2"/>
<rect data-cfx-role="visual-card-highlight" class="cfx-guide-stroke" x="1.5" y="1.5" width="817" height="337" rx="16.5" fill="none" stroke="#fff" stroke-opacity="0.42"/>
<circle data-cfx-role="segmented-metric-menu-dot" cx="776" cy="44" r="2.1" fill="#7A7D86"/>
<circle data-cfx-role="segmented-metric-menu-dot" cx="783" cy="44" r="2.1" fill="#7A7D86"/>
<circle data-cfx-role="segmented-metric-menu-dot" cx="790" cy="44" r="2.1" fill="#7A7D86"/>
<text data-cfx-role="visual-text" x="22" y="41.5" text-anchor="start" fill="#202235" font-family="Aptos, Calibri, 'Segoe UI', Candara, Arial, sans-serif" font-size="26" font-weight="800">Channel Share</text>
<text data-cfx-role="visual-text" x="22" y="66.5" text-anchor="start" fill="#7A7D86" font-family="Aptos, Calibri, 'Segoe UI', Candara, Arial, sans-serif" font-size="14" font-weight="500">Balanced source mix rendered as a capsule loop.</text>
<line data-cfx-role="segmented-metric-header-divider" x1="22" y1="93" x2="798" y2="93" stroke="#DCDDE3"/>
<g data-cfx-role="segmented-metric-capsule-loop" data-cfx-total="100" data-cfx-loop-height="100.36" data-cfx-stroke="34">
<path data-cfx-role="segmented-metric-capsule-track-shadow" d="M 72.18 169.792 L 75.068 169.792 L 77.956 169.792 L 80.845 169.792 L 83.733 169.792 L 86.621 169.792 L 89.509 169.792 L 92.397 169.792 L 95.286 169.792 L 98.174 169.792 L 101.062 169.792 L 103.95 169.792 L 106.839 169.792 L 109.727 169.792 L 112.615 169.792 L 115.503 169.792 L 118.391 169.792 L 121.28 169.792 L 124.168 169.792 L 127.056 169.792 L 129.944 169.792 L 132.832 169.792 L 135.721 169.792 L 138.609 169.792 L 141.497 169.792 L 144.385 169.792 L 147.273 169.792 L 150.162 169.792 L 153.05 169.792 L 155.938 169.792 L 158.826 169.792 L 161.715 169.792 L 164.603 169.792 L 167.491 169.792 L 170.379 169.792 L 173.267 169.792 L 176.156 169.792 L 179.044 169.792 L 181.932 169.792 L 184.82 169.792 L 187.708 169.792 L 190.597 169.792 L 193.485 169.792 L 196.373 169.792 L 199.261 169.792 L 202.15 169.792 L 205.038 169.792 L 207.926 169.792 L 210.814 169.792 L 213.702 169.792 L 216.591 169.792 L 219.479 169.792 L 222.367 169.792 L 225.255 169.792 L 228.143 169.792 L 231.032 169.792 L 233.92 169.792 L 236.808 169.792 L 239.696 169.792 L 242.584 169.792 L 245.473 169.792 L 248.361 169.792 L 251.249 169.792 L 254.137 169.792 L 257.026 169.792 L 259.914 169.792 L 262.802 169.792 L 265.69 169.792 L 268.578 169.792 L 271.467 169.792 L 274.355 169.792 L 277.243 169.792 L 280.131 169.792 L 283.019 169.792 L 285.908 169.792 L 288.796 169.792 L 291.684 169.792 L 294.572 169.792 L 297.46 169.792 L 300.349 169.792 L 303.237 169.792 L 306.125 169.792 L 309.013 169.792 L 311.902 169.792 L 314.79 169.792 L 317.678 169.792 L 320.566 169.792 L 323.454 169.792 L 326.343 169.792 L 329.231 169.792 L 332.119 169.792 L 335.007 169.792 L 337.895 169.792 L 340.784 169.792 L 343.672 169.792 L 346.56 169.792 L 349.448 169.792 L 352.337 169.792 L 355.225 169.792 L 358.113 169.792 L 361.001 169.792 L 363.889 169.792 L 366.778 169.792 L 369.666 169.792 L 372.554 169.792 L 375.442 169.792 L 378.33 169.792 L 381.219 169.792 L 384.107 169.792 L 386.995 169.792 L 389.883 169.792 L 392.771 169.792 L 395.66 169.792 L 398.548 169.792 L 401.436 169.792 L 404.324 169.792 L 407.213 169.792 L 410.101 169.792 L 412.989 169.792 L 415.877 169.792 L 418.765 169.792 L 421.654 169.792 L 424.542 169.792 L 427.43 169.792 L 430.318 169.792 L 433.206 169.792 L 436.095 169.792 L 438.983 169.792 L 441.871 169.792 L 444.759 169.792 L 447.647 169.792 L 450.536 169.792 L 453.424 169.792 L 456.312 169.792 L 459.2 169.792 L 462.089 169.792 L 464.977 169.792 L 467.865 169.792 L 470.753 169.792 L 473.641 169.792 L 476.53 169.792 L 479.418 169.792 L 482.306 169.792 L 485.194 169.792 L 488.082 169.793 L 490.966 169.941 L 493.826 170.34 L 496.64 170.986 L 499.387 171.874 L 502.047 172.997 L 504.599 174.347 L 507.024 175.914 L 509.304 177.686 L 511.421 179.65 L 513.359 181.79 L 515.104 184.09 L 516.642 186.534 L 517.962 189.102 L 519.053 191.775 L 519.909 194.532 L 520.521 197.354 L 520.886 200.218 L 521 203.103 L 520.863 205.987 L 520.475 208.848 L 519.841 211.665 L 518.964 214.416 L 517.851 217.08 L 516.511 219.638 L 514.953 222.069 L 513.19 224.355 L 511.235 226.48 L 509.103 228.427 L 506.809 230.181 L 504.372 231.729 L 501.809 233.059 L 499.141 234.161 L 496.386 235.027 L 493.567 235.65 L 490.705 236.026 L 487.82 236.152 L 484.932 236.152 L 482.044 236.152 L 479.155 236.152 L 476.267 236.152 L 473.379 236.152 L 470.491 236.152 L 467.603 236.152 L 464.714 236.152 L 461.826 236.152 L 458.938 236.152 L 456.05 236.152 L 453.161 236.152 L 450.273 236.152 L 447.385 236.152 L 444.497 236.152 L 441.609 236.152 L 438.72 236.152 L 435.832 236.152 L 432.944 236.152 L 430.056 236.152 L 427.168 236.152 L 424.279 236.152 L 421.391 236.152 L 418.503 236.152 L 415.615 236.152 L 412.727 236.152 L 409.838 236.152 L 406.95 236.152 L 404.062 236.152 L 401.174 236.152 L 398.285 236.152 L 395.397 236.152 L 392.509 236.152 L 389.621 236.152 L 386.733 236.152 L 383.844 236.152 L 380.956 236.152 L 378.068 236.152 L 375.18 236.152 L 372.292 236.152 L 369.403 236.152 L 366.515 236.152 L 363.627 236.152 L 360.739 236.152 L 357.85 236.152 L 354.962 236.152 L 352.074 236.152 L 349.186 236.152 L 346.298 236.152 L 343.409 236.152 L 340.521 236.152 L 337.633 236.152 L 334.745 236.152 L 331.857 236.152 L 328.968 236.152 L 326.08 236.152 L 323.192 236.152 L 320.304 236.152 L 317.416 236.152 L 314.527 236.152 L 311.639 236.152 L 308.751 236.152 L 305.863 236.152 L 302.974 236.152 L 300.086 236.152 L 297.198 236.152 L 294.31 236.152 L 291.422 236.152 L 288.533 236.152 L 285.645 236.152 L 282.757 236.152 L 279.869 236.152 L 276.981 236.152 L 274.092 236.152 L 271.204 236.152 L 268.316 236.152 L 265.428 236.152 L 262.54 236.152 L 259.651 236.152 L 256.763 236.152 L 253.875 236.152 L 250.987 236.152 L 248.098 236.152 L 245.21 236.152 L 242.322 236.152 L 239.434 236.152 L 236.546 236.152 L 233.657 236.152 L 230.769 236.152 L 227.881 236.152 L 224.993 236.152 L 222.105 236.152 L 219.216 236.152 L 216.328 236.152 L 213.44 236.152 L 210.552 236.152 L 207.663 236.152 L 204.775 236.152 L 201.887 236.152 L 198.999 236.152 L 196.111 236.152 L 193.222 236.152 L 190.334 236.152 L 187.446 236.152 L 184.558 236.152 L 181.67 236.152 L 178.781 236.152 L 175.893 236.152 L 173.005 236.152 L 170.117 236.152 L 167.229 236.152 L 164.34 236.152 L 161.452 236.152 L 158.564 236.152 L 155.676 236.152 L 152.787 236.152 L 149.899 236.152 L 147.011 236.152 L 144.123 236.152 L 141.235 236.152 L 138.346 236.152 L 135.458 236.152 L 132.57 236.152 L 129.682 236.152 L 126.794 236.152 L 123.905 236.152 L 121.017 236.152 L 118.129 236.152 L 115.241 236.152 L 112.353 236.152 L 109.464 236.152 L 106.576 236.152 L 103.688 236.152 L 100.8 236.152 L 97.911 236.152 L 95.023 236.152 L 92.135 236.152 L 89.247 236.152 L 86.359 236.152 L 83.47 236.152 L 80.582 236.152 L 77.694 236.152 L 74.806 236.152 L 71.918 236.151 L 69.034 236.003 L 66.174 235.604 L 63.36 234.958 L 60.613 234.07 L 57.953 232.947 L 55.401 231.597 L 52.976 230.03 L 50.696 228.258 L 48.579 226.294 L 46.641 224.154 L 44.896 221.854 L 43.358 219.41 L 42.038 216.842 L 40.947 214.169 L 40.091 211.412 L 39.479 208.59 L 39.114 205.726 L 39 202.841 L 39.137 199.957 L 39.525 197.096 L 40.159 194.279 L 41.036 191.528 L 42.149 188.864 L 43.489 186.306 L 45.047 183.875 L 46.81 181.589 L 48.765 179.464 L 50.897 177.517 L 53.191 175.763 L 55.628 174.215 L 58.191 172.885 L 60.859 171.783 L 63.614 170.917 L 66.433 170.294 L 69.295 169.918 L 72.18 169.792" fill="none" stroke="rgba(122,125,134,0.055)" stroke-width="36" stroke-linecap="round" stroke-linejoin="round" transform="translate(0 1.4)"/>
<path data-cfx-role="segmented-metric-capsule-track" d="M 72.18 169.792 L 75.068 169.792 L 77.956 169.792 L 80.845 169.792 L 83.733 169.792 L 86.621 169.792 L 89.509 169.792 L 92.397 169.792 L 95.286 169.792 L 98.174 169.792 L 101.062 169.792 L 103.95 169.792 L 106.839 169.792 L 109.727 169.792 L 112.615 169.792 L 115.503 169.792 L 118.391 169.792 L 121.28 169.792 L 124.168 169.792 L 127.056 169.792 L 129.944 169.792 L 132.832 169.792 L 135.721 169.792 L 138.609 169.792 L 141.497 169.792 L 144.385 169.792 L 147.273 169.792 L 150.162 169.792 L 153.05 169.792 L 155.938 169.792 L 158.826 169.792 L 161.715 169.792 L 164.603 169.792 L 167.491 169.792 L 170.379 169.792 L 173.267 169.792 L 176.156 169.792 L 179.044 169.792 L 181.932 169.792 L 184.82 169.792 L 187.708 169.792 L 190.597 169.792 L 193.485 169.792 L 196.373 169.792 L 199.261 169.792 L 202.15 169.792 L 205.038 169.792 L 207.926 169.792 L 210.814 169.792 L 213.702 169.792 L 216.591 169.792 L 219.479 169.792 L 222.367 169.792 L 225.255 169.792 L 228.143 169.792 L 231.032 169.792 L 233.92 169.792 L 236.808 169.792 L 239.696 169.792 L 242.584 169.792 L 245.473 169.792 L 248.361 169.792 L 251.249 169.792 L 254.137 169.792 L 257.026 169.792 L 259.914 169.792 L 262.802 169.792 L 265.69 169.792 L 268.578 169.792 L 271.467 169.792 L 274.355 169.792 L 277.243 169.792 L 280.131 169.792 L 283.019 169.792 L 285.908 169.792 L 288.796 169.792 L 291.684 169.792 L 294.572 169.792 L 297.46 169.792 L 300.349 169.792 L 303.237 169.792 L 306.125 169.792 L 309.013 169.792 L 311.902 169.792 L 314.79 169.792 L 317.678 169.792 L 320.566 169.792 L 323.454 169.792 L 326.343 169.792 L 329.231 169.792 L 332.119 169.792 L 335.007 169.792 L 337.895 169.792 L 340.784 169.792 L 343.672 169.792 L 346.56 169.792 L 349.448 169.792 L 352.337 169.792 L 355.225 169.792 L 358.113 169.792 L 361.001 169.792 L 363.889 169.792 L 366.778 169.792 L 369.666 169.792 L 372.554 169.792 L 375.442 169.792 L 378.33 169.792 L 381.219 169.792 L 384.107 169.792 L 386.995 169.792 L 389.883 169.792 L 392.771 169.792 L 395.66 169.792 L 398.548 169.792 L 401.436 169.792 L 404.324 169.792 L 407.213 169.792 L 410.101 169.792 L 412.989 169.792 L 415.877 169.792 L 418.765 169.792 L 421.654 169.792 L 424.542 169.792 L 427.43 169.792 L 430.318 169.792 L 433.206 169.792 L 436.095 169.792 L 438.983 169.792 L 441.871 169.792 L 444.759 169.792 L 447.647 169.792 L 450.536 169.792 L 453.424 169.792 L 456.312 169.792 L 459.2 169.792 L 462.089 169.792 L 464.977 169.792 L 467.865 169.792 L 470.753 169.792 L 473.641 169.792 L 476.53 169.792 L 479.418 169.792 L 482.306 169.792 L 485.194 169.792 L 488.082 169.793 L 490.966 169.941 L 493.826 170.34 L 496.64 170.986 L 499.387 171.874 L 502.047 172.997 L 504.599 174.347 L 507.024 175.914 L 509.304 177.686 L 511.421 179.65 L 513.359 181.79 L 515.104 184.09 L 516.642 186.534 L 517.962 189.102 L 519.053 191.775 L 519.909 194.532 L 520.521 197.354 L 520.886 200.218 L 521 203.103 L 520.863 205.987 L 520.475 208.848 L 519.841 211.665 L 518.964 214.416 L 517.851 217.08 L 516.511 219.638 L 514.953 222.069 L 513.19 224.355 L 511.235 226.48 L 509.103 228.427 L 506.809 230.181 L 504.372 231.729 L 501.809 233.059 L 499.141 234.161 L 496.386 235.027 L 493.567 235.65 L 490.705 236.026 L 487.82 236.152 L 484.932 236.152 L 482.044 236.152 L 479.155 236.152 L 476.267 236.152 L 473.379 236.152 L 470.491 236.152 L 467.603 236.152 L 464.714 236.152 L 461.826 236.152 L 458.938 236.152 L 456.05 236.152 L 453.161 236.152 L 450.273 236.152 L 447.385 236.152 L 444.497 236.152 L 441.609 236.152 L 438.72 236.152 L 435.832 236.152 L 432.944 236.152 L 430.056 236.152 L 427.168 236.152 L 424.279 236.152 L 421.391 236.152 L 418.503 236.152 L 415.615 236.152 L 412.727 236.152 L 409.838 236.152 L 406.95 236.152 L 404.062 236.152 L 401.174 236.152 L 398.285 236.152 L 395.397 236.152 L 392.509 236.152 L 389.621 236.152 L 386.733 236.152 L 383.844 236.152 L 380.956 236.152 L 378.068 236.152 L 375.18 236.152 L 372.292 236.152 L 369.403 236.152 L 366.515 236.152 L 363.627 236.152 L 360.739 236.152 L 357.85 236.152 L 354.962 236.152 L 352.074 236.152 L 349.186 236.152 L 346.298 236.152 L 343.409 236.152 L 340.521 236.152 L 337.633 236.152 L 334.745 236.152 L 331.857 236.152 L 328.968 236.152 L 326.08 236.152 L 323.192 236.152 L 320.304 236.152 L 317.416 236.152 L 314.527 236.152 L 311.639 236.152 L 308.751 236.152 L 305.863 236.152 L 302.974 236.152 L 300.086 236.152 L 297.198 236.152 L 294.31 236.152 L 291.422 236.152 L 288.533 236.152 L 285.645 236.152 L 282.757 236.152 L 279.869 236.152 L 276.981 236.152 L 274.092 236.152 L 271.204 236.152 L 268.316 236.152 L 265.428 236.152 L 262.54 236.152 L 259.651 236.152 L 256.763 236.152 L 253.875 236.152 L 250.987 236.152 L 248.098 236.152 L 245.21 236.152 L 242.322 236.152 L 239.434 236.152 L 236.546 236.152 L 233.657 236.152 L 230.769 236.152 L 227.881 236.152 L 224.993 236.152 L 222.105 236.152 L 219.216 236.152 L 216.328 236.152 L 213.44 236.152 L 210.552 236.152 L 207.663 236.152 L 204.775 236.152 L 201.887 236.152 L 198.999 236.152 L 196.111 236.152 L 193.222 236.152 L 190.334 236.152 L 187.446 236.152 L 184.558 236.152 L 181.67 236.152 L 178.781 236.152 L 175.893 236.152 L 173.005 236.152 L 170.117 236.152 L 167.229 236.152 L 164.34 236.152 L 161.452 236.152 L 158.564 236.152 L 155.676 236.152 L 152.787 236.152 L 149.899 236.152 L 147.011 236.152 L 144.123 236.152 L 141.235 236.152 L 138.346 236.152 L 135.458 236.152 L 132.57 236.152 L 129.682 236.152 L 126.794 236.152 L 123.905 236.152 L 121.017 236.152 L 118.129 236.152 L 115.241 236.152 L 112.353 236.152 L 109.464 236.152 L 106.576 236.152 L 103.688 236.152 L 100.8 236.152 L 97.911 236.152 L 95.023 236.152 L 92.135 236.152 L 89.247 236.152 L 86.359 236.152 L 83.47 236.152 L 80.582 236.152 L 77.694 236.152 L 74.806 236.152 L 71.918 236.151 L 69.034 236.003 L 66.174 235.604 L 63.36 234.958 L 60.613 234.07 L 57.953 232.947 L 55.401 231.597 L 52.976 230.03 L 50.696 228.258 L 48.579 226.294 L 46.641 224.154 L 44.896 221.854 L 43.358 219.41 L 42.038 216.842 L 40.947 214.169 L 40.091 211.412 L 39.479 208.59 L 39.114 205.726 L 39 202.841 L 39.137 199.957 L 39.525 197.096 L 40.159 194.279 L 41.036 191.528 L 42.149 188.864 L 43.489 186.306 L 45.047 183.875 L 46.81 181.589 L 48.765 179.464 L 50.897 177.517 L 53.191 175.763 L 55.628 174.215 L 58.191 172.885 L 60.859 171.783 L 63.614 170.917 L 66.433 170.294 L 69.295 169.918 L 72.18 169.792" fill="none" stroke="rgba(255,255,255,0.667)" stroke-width="34" stroke-linecap="round" stroke-linejoin="round"/>
<path data-cfx-role="segmented-metric-capsule-segment" data-cfx-label="Direct" data-cfx-value="40" data-cfx-share="0.4" data-cfx-start="0" data-cfx-end="0.4" d="M 72.18 169.792 L 75.063 169.792 L 77.945 169.792 L 80.828 169.792 L 83.711 169.792 L 86.593 169.792 L 89.476 169.792 L 92.358 169.792 L 95.241 169.792 L 98.124 169.792 L 101.006 169.792 L 103.889 169.792 L 106.772 169.792 L 109.654 169.792 L 112.537 169.792 L 115.42 169.792 L 118.302 169.792 L 121.185 169.792 L 124.067 169.792 L 126.95 169.792 L 129.833 169.792 L 132.715 169.792 L 135.598 169.792 L 138.481 169.792 L 141.363 169.792 L 144.246 169.792 L 147.128 169.792 L 150.011 169.792 L 152.894 169.792 L 155.776 169.792 L 158.659 169.792 L 161.542 169.792 L 164.424 169.792 L 167.307 169.792 L 170.19 169.792 L 173.072 169.792 L 175.955 169.792 L 178.837 169.792 L 181.72 169.792 L 184.603 169.792 L 187.485 169.792 L 190.368 169.792 L 193.251 169.792 L 196.133 169.792 L 199.016 169.792 L 201.899 169.792 L 204.781 169.792 L 207.664 169.792 L 210.546 169.792 L 213.429 169.792 L 216.312 169.792 L 219.194 169.792 L 222.077 169.792 L 224.96 169.792 L 227.842 169.792 L 230.725 169.792 L 233.608 169.792 L 236.49 169.792 L 239.373 169.792 L 242.255 169.792 L 245.138 169.792 L 248.021 169.792 L 250.903 169.792 L 253.786 169.792 L 256.669 169.792 L 259.551 169.792 L 262.434 169.792 L 265.316 169.792 L 268.199 169.792 L 271.082 169.792 L 273.964 169.792 L 276.847 169.792 L 279.73 169.792 L 282.612 169.792 L 285.495 169.792 L 288.378 169.792 L 291.26 169.792 L 294.143 169.792 L 297.025 169.792 L 299.908 169.792 L 302.791 169.792 L 305.673 169.792 L 308.556 169.792 L 311.439 169.792 L 314.321 169.792 L 317.204 169.792 L 320.087 169.792 L 322.969 169.792 L 325.852 169.792 L 328.734 169.792 L 331.617 169.792 L 334.5 169.792 L 337.382 169.792 L 340.265 169.792 L 343.148 169.792 L 346.03 169.792 L 348.913 169.792 L 351.796 169.792 L 354.678 169.792 L 357.561 169.792 L 360.443 169.792 L 363.326 169.792 L 366.209 169.792 L 369.091 169.792 L 371.974 169.792 L 374.857 169.792 L 377.739 169.792 L 380.622 169.792 L 383.504 169.792 L 386.387 169.792 L 389.27 169.792 L 392.152 169.792 L 395.035 169.792 L 397.918 169.792 L 400.8 169.792 L 403.683 169.792 L 406.566 169.792 L 409.448 169.792 L 412.331 169.792 L 415.213 169.792 L 418.096 169.792 L 420.979 169.792 L 423.861 169.792 L 426.744 169.792 L 429.627 169.792 L 432.509 169.792 L 435.392 169.792 L 438.275 169.792 L 441.157 169.792 L 444.04 169.792 L 446.922 169.792 L 449.805 169.792 L 452.688 169.792 L 455.57 169.792 L 458.453 169.792 L 461.336 169.792 L 464.218 169.792 L 467.101 169.792 L 469.984 169.792 L 472.866 169.792 L 475.749 169.792 L 478.631 169.792 L 481.514 169.792 L 484.397 169.792 L 487.279 169.792 L 490.16 169.875" fill="none" stroke="#36C47D" stroke-width="34" stroke-linecap="round" stroke-linejoin="round"/>
<text data-cfx-role="segmented-metric-capsule-label" x="280.131" y="173.872" text-anchor="middle" fill="#FFFFFF" stroke="rgba(15,23,42,0.439)" stroke-width="2.4" paint-order="stroke" font-family="Aptos, Calibri, 'Segoe UI', Candara, Arial, sans-serif" font-size="12" font-weight="850">40%</text>
<path data-cfx-role="segmented-metric-capsule-segment" data-cfx-label="Partner" data-cfx-value="35" data-cfx-share="0.35" data-cfx-start="0.4" data-cfx-end="0.75" d="M 486.003 169.792 L 488.878 169.809 L 491.745 170.025 L 494.582 170.488 L 497.368 171.196 L 500.083 172.141 L 502.706 173.318 L 505.216 174.718 L 507.597 176.33 L 509.829 178.142 L 511.895 180.14 L 513.781 182.31 L 515.472 184.634 L 516.956 187.097 L 518.22 189.678 L 519.257 192.359 L 520.058 195.12 L 520.616 197.94 L 520.929 200.798 L 520.993 203.672 L 520.808 206.54 L 520.375 209.382 L 519.698 212.176 L 518.781 214.901 L 517.633 217.536 L 516.26 220.062 L 514.674 222.46 L 512.887 224.711 L 510.911 226.799 L 508.762 228.708 L 506.456 230.424 L 504.009 231.934 L 501.442 233.227 L 498.772 234.292 L 496.02 235.123 L 493.206 235.712 L 490.352 236.055 L 487.479 236.152 L 484.603 236.152 L 481.728 236.152 L 478.852 236.152 L 475.977 236.152 L 473.101 236.152 L 470.225 236.152 L 467.35 236.152 L 464.474 236.152 L 461.599 236.152 L 458.723 236.152 L 455.848 236.152 L 452.972 236.152 L 450.096 236.152 L 447.221 236.152 L 444.345 236.152 L 441.47 236.152 L 438.594 236.152 L 435.718 236.152 L 432.843 236.152 L 429.967 236.152 L 427.092 236.152 L 424.216 236.152 L 421.341 236.152 L 418.465 236.152 L 415.589 236.152 L 412.714 236.152 L 409.838 236.152 L 406.963 236.152 L 404.087 236.152 L 401.212 236.152 L 398.336 236.152 L 395.46 236.152 L 392.585 236.152 L 389.709 236.152 L 386.834 236.152 L 383.958 236.152 L 381.083 236.152 L 378.207 236.152 L 375.331 236.152 L 372.456 236.152 L 369.58 236.152 L 366.705 236.152 L 363.829 236.152 L 360.954 236.152 L 358.078 236.152 L 355.202 236.152 L 352.327 236.152 L 349.451 236.152 L 346.576 236.152 L 343.7 236.152 L 340.824 236.152 L 337.949 236.152 L 335.073 236.152 L 332.198 236.152 L 329.322 236.152 L 326.447 236.152 L 323.571 236.152 L 320.695 236.152 L 317.82 236.152 L 314.944 236.152 L 312.069 236.152 L 309.193 236.152 L 306.318 236.152 L 303.442 236.152 L 300.566 236.152 L 297.691 236.152 L 294.815 236.152 L 291.94 236.152 L 289.064 236.152 L 286.189 236.152 L 283.313 236.152 L 280.437 236.152 L 277.562 236.152 L 274.686 236.152 L 271.811 236.152 L 268.935 236.152 L 266.06 236.152 L 263.184 236.152 L 260.308 236.152 L 257.433 236.152 L 254.557 236.152 L 251.682 236.152 L 248.806 236.152 L 245.93 236.152 L 243.055 236.152 L 240.179 236.152 L 237.304 236.152 L 234.428 236.152 L 231.553 236.152 L 228.677 236.152 L 225.801 236.152" fill="none" stroke="#FFB05C" stroke-width="34" stroke-linecap="round" stroke-linejoin="round"/>
<text data-cfx-role="segmented-metric-capsule-label" x="409.838" y="240.232" text-anchor="middle" fill="#0F172A" stroke="rgba(255,255,255,0.439)" stroke-width="2.4" paint-order="stroke" font-family="Aptos, Calibri, 'Segoe UI', Candara, Arial, sans-serif" font-size="12" font-weight="850">35%</text>
<path data-cfx-role="segmented-metric-capsule-segment" data-cfx-label="Referral" data-cfx-value="15" data-cfx-share="0.15" data-cfx-start="0.75" data-cfx-end="0.9" d="M 229.96 236.152 L 227.101 236.152 L 224.242 236.152 L 221.383 236.152 L 218.523 236.152 L 215.664 236.152 L 212.805 236.152 L 209.945 236.152 L 207.086 236.152 L 204.227 236.152 L 201.367 236.152 L 198.508 236.152 L 195.649 236.152 L 192.789 236.152 L 189.93 236.152 L 187.071 236.152 L 184.211 236.152 L 181.352 236.152 L 178.493 236.152 L 175.633 236.152 L 172.774 236.152 L 169.915 236.152 L 167.055 236.152 L 164.196 236.152 L 161.337 236.152 L 158.477 236.152 L 155.618 236.152 L 152.759 236.152 L 149.899 236.152 L 147.04 236.152 L 144.181 236.152 L 141.321 236.152 L 138.462 236.152 L 135.603 236.152 L 132.743 236.152 L 129.884 236.152 L 127.025 236.152 L 124.165 236.152 L 121.306 236.152 L 118.447 236.152 L 115.587 236.152 L 112.728 236.152 L 109.869 236.152 L 107.009 236.152 L 104.15 236.152 L 101.291 236.152 L 98.431 236.152 L 95.572 236.152 L 92.713 236.152 L 89.853 236.152 L 86.994 236.152 L 84.135 236.152 L 81.275 236.152 L 78.416 236.152 L 75.557 236.152 L 72.697 236.152 L 69.84 236.069" fill="none" stroke="#EF5DA8" stroke-width="34" stroke-linecap="round" stroke-linejoin="round"/>
<text data-cfx-role="segmented-metric-capsule-label" x="149.899" y="240.232" text-anchor="middle" fill="#FFFFFF" stroke="rgba(15,23,42,0.439)" stroke-width="2.4" paint-order="stroke" font-family="Aptos, Calibri, 'Segoe UI', Candara, Arial, sans-serif" font-size="12" font-weight="850">15%</text>
<path data-cfx-role="segmented-metric-capsule-segment" data-cfx-label="Other" data-cfx-value="10" data-cfx-share="0.1" data-cfx-start="0.9" data-cfx-end="1" d="M 73.997 236.152 L 71.131 236.135 L 68.273 235.921 L 65.445 235.461 L 62.667 234.759 L 59.96 233.82 L 57.344 232.65 L 54.839 231.26 L 52.463 229.658 L 50.234 227.857 L 48.168 225.871 L 46.282 223.714 L 44.589 221.402 L 43.102 218.953 L 41.832 216.384 L 40.788 213.716 L 39.978 210.967 L 39.408 208.159 L 39.083 205.312 L 39.004 202.447 L 39.173 199.587 L 39.588 196.752 L 40.247 193.963 L 41.143 191.241 L 42.271 188.607 L 43.622 186.08 L 45.186 183.679 L 46.951 181.422 L 48.904 179.325 L 51.031 177.405 L 53.316 175.676 L 55.742 174.15 L 58.29 172.839 L 60.941 171.753 L 63.677 170.9 L 66.476 170.286 L 69.317 169.916 L 72.18 169.792" fill="none" stroke="#6D83F2" stroke-width="34" stroke-linecap="round" stroke-linejoin="round"/>
<text data-cfx-role="segmented-metric-capsule-label" x="39" y="206.921" text-anchor="middle" fill="#FFFFFF" stroke="rgba(15,23,42,0.439)" stroke-width="2.4" paint-order="stroke" font-family="Aptos, Calibri, 'Segoe UI', Candara, Arial, sans-serif" font-size="12" font-weight="850">10%</text>
</g>
<g data-cfx-role="segmented-metric-capsule-legend">
<rect data-cfx-role="segmented-metric-capsule-swatch" x="568" y="169.661" width="12" height="12" rx="3" fill="#36C47D"/>
<text data-cfx-role="visual-text" x="590" y="183.941" text-anchor="start" fill="#7A7D86" font-family="Aptos, Calibri, 'Segoe UI', Candara, Arial, sans-serif" font-size="14" font-weight="550">Direct</text>
<text data-cfx-role="visual-text" x="798" y="183.941" text-anchor="end" fill="#202235" font-family="Aptos, Calibri, 'Segoe UI', Candara, Arial, sans-serif" font-size="14" font-weight="800">24,000</text>
<rect data-cfx-role="segmented-metric-capsule-swatch" x="568" y="203.661" width="12" height="12" rx="3" fill="#FFB05C"/>
<text data-cfx-role="visual-text" x="590" y="217.941" text-anchor="start" fill="#7A7D86" font-family="Aptos, Calibri, 'Segoe UI', Candara, Arial, sans-serif" font-size="14" font-weight="550">Partner</text>
<text data-cfx-role="visual-text" x="798" y="217.941" text-anchor="end" fill="#202235" font-family="Aptos, Calibri, 'Segoe UI', Candara, Arial, sans-serif" font-size="14" font-weight="800">21,000</text>
<rect data-cfx-role="segmented-metric-capsule-swatch" x="568" y="237.661" width="12" height="12" rx="3" fill="#EF5DA8"/>
<text data-cfx-role="visual-text" x="590" y="251.941" text-anchor="start" fill="#7A7D86" font-family="Aptos, Calibri, 'Segoe UI', Candara, Arial, sans-serif" font-size="14" font-weight="550">Referral</text>
<text data-cfx-role="visual-text" x="798" y="251.941" text-anchor="end" fill="#202235" font-family="Aptos, Calibri, 'Segoe UI', Candara, Arial, sans-serif" font-size="14" font-weight="800">9,000</text>
<rect data-cfx-role="segmented-metric-capsule-swatch" x="568" y="271.661" width="12" height="12" rx="3" fill="#6D83F2"/>
<text data-cfx-role="visual-text" x="590" y="285.941" text-anchor="start" fill="#7A7D86" font-family="Aptos, Calibri, 'Segoe UI', Candara, Arial, sans-serif" font-size="14" font-weight="550">Other</text>
<text data-cfx-role="visual-text" x="798" y="285.941" text-anchor="end" fill="#202235" font-family="Aptos, Calibri, 'Segoe UI', Candara, Arial, sans-serif" font-size="14" font-weight="800">6,000</text>
</g>
</svg>
