<svg xmlns="http://www.w3.org/2000/svg" id="cfx-visual-3c1ab0fb" width="820" height="330" viewBox="0 0 820 330" role="img" aria-labelledby="cfx-visual-3c1ab0fb-title cfx-visual-3c1ab0fb-desc" preserveAspectRatio="xMidYMid meet" shape-rendering="geometricPrecision" text-rendering="geometricPrecision" style="max-width:100%;height:auto;display:block">
<title id="cfx-visual-3c1ab0fb-title">Conversion Funnel</title>
<desc id="cfx-visual-3c1ab0fb-desc">Static ChartForgeX visual block.</desc>
<defs>
<style>#cfx-visual-3c1ab0fb .cfx-guide-stroke,#cfx-visual-3c1ab0fb .cfx-premium-stroke{vector-effect:non-scaling-stroke;shape-rendering:geometricPrecision}#cfx-visual-3c1ab0fb text{text-rendering:geometricPrecision;-webkit-font-smoothing:antialiased}</style>
<linearGradient id="cfx-visual-3c1ab0fb-visualBackground" x1="0" x2="0" y1="0" y2="1"><stop offset="0%" stop-color="#F4F4F5" stop-opacity="1"/><stop offset="100%" stop-color="#EAEAEC" stop-opacity="1"/></linearGradient>
<linearGradient id="cfx-visual-3c1ab0fb-visualCard" x1="0" x2="0" y1="0" y2="1"><stop offset="0%" stop-color="#FFFFFF" stop-opacity="1"/><stop offset="100%" stop-color="#F7F7F8" stop-opacity="1"/></linearGradient>
<linearGradient id="cfx-visual-3c1ab0fb-visualPlot" x1="0" x2="0" y1="0" y2="1"><stop offset="0%" stop-color="#FFFFFF" stop-opacity="1"/><stop offset="100%" stop-color="#F7F7F8" stop-opacity="1"/></linearGradient>
<clipPath id="cfx-visual-3c1ab0fb-visualCardClip"><rect x="0" y="0" width="820" height="330" rx="18"/></clipPath>
</defs>
<rect width="100%" height="100%" fill="url(#cfx-visual-3c1ab0fb-visualBackground)"/>
<rect data-cfx-role="visual-card" class="cfx-guide-stroke" x="0.5" y="0.5" width="819" height="329" rx="17.5" fill="url(#cfx-visual-3c1ab0fb-visualCard)" stroke="#ECEEF2"/>
<rect data-cfx-role="visual-card-highlight" class="cfx-guide-stroke" x="1.5" y="1.5" width="817" height="327" rx="16.5" fill="none" stroke="#fff" stroke-opacity="0.42"/>
<circle data-cfx-role="segmented-metric-menu-dot" cx="776" cy="44" r="2.1" fill="#7A7D86"/>
<circle data-cfx-role="segmented-metric-menu-dot" cx="783" cy="44" r="2.1" fill="#7A7D86"/>
<circle data-cfx-role="segmented-metric-menu-dot" cx="790" cy="44" r="2.1" fill="#7A7D86"/>
<text data-cfx-role="visual-text" x="22" y="41.5" text-anchor="start" fill="#202235" font-family="Aptos, Calibri, 'Segoe UI', Candara, Arial, sans-serif" font-size="26" font-weight="800">Conversion Funnel</text>
<text data-cfx-role="visual-text" x="22" y="66.5" text-anchor="start" fill="#7A7D86" font-family="Aptos, Calibri, 'Segoe UI', Candara, Arial, sans-serif" font-size="14" font-weight="500">Ordered stage counts rendered as reusable segmented columns.</text>
<line data-cfx-role="segmented-metric-header-divider" x1="22" y1="93" x2="798" y2="93" stroke="#DCDDE3"/>
<g data-cfx-role="segmented-metric-funnel-columns" data-cfx-stages="4" data-cfx-segments="67" data-cfx-bar-y="172" data-cfx-bar-height="132" data-cfx-bar-width="7.195" data-cfx-bar-gap="4">
<g data-cfx-role="segmented-metric-funnel-stage" data-cfx-label="Clicks" data-cfx-value="82000" data-cfx-segments="24" data-cfx-x="22" data-cfx-width="264.691">
<rect data-cfx-role="segmented-metric-funnel-marker" x="22" y="129" width="7" height="24" rx="3.5" fill="#36C47D"/>
<text data-cfx-role="visual-text" x="33" y="143" text-anchor="start" fill="#7A7D86" font-family="Aptos, Calibri, 'Segoe UI', Candara, Arial, sans-serif" font-size="14" font-weight="500">Clicks</text>
<text data-cfx-role="visual-text" x="33" y="162" text-anchor="start" fill="#202235" font-family="Aptos, Calibri, 'Segoe UI', Candara, Arial, sans-serif" font-size="16" font-weight="850">82,000</text>
<rect data-cfx-role="segmented-metric-funnel-bar" data-cfx-stage="0" data-cfx-index="0" x="22" y="172" width="7.195" height="132" rx="3.454" fill="#36C47D"/>
<rect data-cfx-role="segmented-metric-funnel-bar-highlight" data-cfx-stage="0" data-cfx-index="0" x="23.295" y="174" width="2.015" height="128" rx="1.727" fill="rgba(255,255,255,0.188)"/>
<rect data-cfx-role="segmented-metric-funnel-bar" data-cfx-stage="0" data-cfx-index="1" x="33.195" y="172" width="7.195" height="132" rx="3.454" fill="#36C47D"/>
<rect data-cfx-role="segmented-metric-funnel-bar-highlight" data-cfx-stage="0" data-cfx-index="1" x="34.491" y="174" width="2.015" height="128" rx="1.727" fill="rgba(255,255,255,0.188)"/>
<rect data-cfx-role="segmented-metric-funnel-bar" data-cfx-stage="0" data-cfx-index="2" x="44.391" y="172" width="7.195" height="132" rx="3.454" fill="#36C47D"/>
<rect data-cfx-role="segmented-metric-funnel-bar-highlight" data-cfx-stage="0" data-cfx-index="2" x="45.686" y="174" width="2.015" height="128" rx="1.727" fill="rgba(255,255,255,0.188)"/>
<rect data-cfx-role="segmented-metric-funnel-bar" data-cfx-stage="0" data-cfx-index="3" x="55.586" y="172" width="7.195" height="132" rx="3.454" fill="#36C47D"/>
<rect data-cfx-role="segmented-metric-funnel-bar-highlight" data-cfx-stage="0" data-cfx-index="3" x="56.882" y="174" width="2.015" height="128" rx="1.727" fill="rgba(255,255,255,0.188)"/>
<rect data-cfx-role="segmented-metric-funnel-bar" data-cfx-stage="0" data-cfx-index="4" x="66.782" y="172" width="7.195" height="132" rx="3.454" fill="#36C47D"/>
<rect data-cfx-role="segmented-metric-funnel-bar-highlight" data-cfx-stage="0" data-cfx-index="4" x="68.077" y="174" width="2.015" height="128" rx="1.727" fill="rgba(255,255,255,0.188)"/>
<rect data-cfx-role="segmented-metric-funnel-bar" data-cfx-stage="0" data-cfx-index="5" x="77.977" y="172" width="7.195" height="132" rx="3.454" fill="#36C47D"/>
<rect data-cfx-role="segmented-metric-funnel-bar-highlight" data-cfx-stage="0" data-cfx-index="5" x="79.272" y="174" width="2.015" height="128" rx="1.727" fill="rgba(255,255,255,0.188)"/>
<rect data-cfx-role="segmented-metric-funnel-bar" data-cfx-stage="0" data-cfx-index="6" x="89.173" y="172" width="7.195" height="132" rx="3.454" fill="#36C47D"/>
<rect data-cfx-role="segmented-metric-funnel-bar-highlight" data-cfx-stage="0" data-cfx-index="6" x="90.468" y="174" width="2.015" height="128" rx="1.727" fill="rgba(255,255,255,0.188)"/>
<rect data-cfx-role="segmented-metric-funnel-bar" data-cfx-stage="0" data-cfx-index="7" x="100.368" y="172" width="7.195" height="132" rx="3.454" fill="#36C47D"/>
<rect data-cfx-role="segmented-metric-funnel-bar-highlight" data-cfx-stage="0" data-cfx-index="7" x="101.663" y="174" width="2.015" height="128" rx="1.727" fill="rgba(255,255,255,0.188)"/>
<rect data-cfx-role="segmented-metric-funnel-bar" data-cfx-stage="0" data-cfx-index="8" x="111.564" y="172" width="7.195" height="132" rx="3.454" fill="#36C47D"/>
<rect data-cfx-role="segmented-metric-funnel-bar-highlight" data-cfx-stage="0" data-cfx-index="8" x="112.859" y="174" width="2.015" height="128" rx="1.727" fill="rgba(255,255,255,0.188)"/>
<rect data-cfx-role="segmented-metric-funnel-bar" data-cfx-stage="0" data-cfx-index="9" x="122.759" y="172" width="7.195" height="132" rx="3.454" fill="#36C47D"/>
<rect data-cfx-role="segmented-metric-funnel-bar-highlight" data-cfx-stage="0" data-cfx-index="9" x="124.054" y="174" width="2.015" height="128" rx="1.727" fill="rgba(255,255,255,0.188)"/>
<rect data-cfx-role="segmented-metric-funnel-bar" data-cfx-stage="0" data-cfx-index="10" x="133.955" y="172" width="7.195" height="132" rx="3.454" fill="#36C47D"/>
<rect data-cfx-role="segmented-metric-funnel-bar-highlight" data-cfx-stage="0" data-cfx-index="10" x="135.25" y="174" width="2.015" height="128" rx="1.727" fill="rgba(255,255,255,0.188)"/>
<rect data-cfx-role="segmented-metric-funnel-bar" data-cfx-stage="0" data-cfx-index="11" x="145.15" y="172" width="7.195" height="132" rx="3.454" fill="#36C47D"/>
<rect data-cfx-role="segmented-metric-funnel-bar-highlight" data-cfx-stage="0" data-cfx-index="11" x="146.445" y="174" width="2.015" height="128" rx="1.727" fill="rgba(255,255,255,0.188)"/>
<rect data-cfx-role="segmented-metric-funnel-bar" data-cfx-stage="0" data-cfx-index="12" x="156.346" y="172" width="7.195" height="132" rx="3.454" fill="#36C47D"/>
<rect data-cfx-role="segmented-metric-funnel-bar-highlight" data-cfx-stage="0" data-cfx-index="12" x="157.641" y="174" width="2.015" height="128" rx="1.727" fill="rgba(255,255,255,0.188)"/>
<rect data-cfx-role="segmented-metric-funnel-bar" data-cfx-stage="0" data-cfx-index="13" x="167.541" y="172" width="7.195" height="132" rx="3.454" fill="#36C47D"/>
<rect data-cfx-role="segmented-metric-funnel-bar-highlight" data-cfx-stage="0" data-cfx-index="13" x="168.836" y="174" width="2.015" height="128" rx="1.727" fill="rgba(255,255,255,0.188)"/>
<rect data-cfx-role="segmented-metric-funnel-bar" data-cfx-stage="0" data-cfx-index="14" x="178.736" y="172" width="7.195" height="132" rx="3.454" fill="#36C47D"/>
<rect data-cfx-role="segmented-metric-funnel-bar-highlight" data-cfx-stage="0" data-cfx-index="14" x="180.032" y="174" width="2.015" height="128" rx="1.727" fill="rgba(255,255,255,0.188)"/>
<rect data-cfx-role="segmented-metric-funnel-bar" data-cfx-stage="0" data-cfx-index="15" x="189.932" y="172" width="7.195" height="132" rx="3.454" fill="#36C47D"/>
<rect data-cfx-role="segmented-metric-funnel-bar-highlight" data-cfx-stage="0" data-cfx-index="15" x="191.227" y="174" width="2.015" height="128" rx="1.727" fill="rgba(255,255,255,0.188)"/>
<rect data-cfx-role="segmented-metric-funnel-bar" data-cfx-stage="0" data-cfx-index="16" x="201.127" y="172" width="7.195" height="132" rx="3.454" fill="#36C47D"/>
<rect data-cfx-role="segmented-metric-funnel-bar-highlight" data-cfx-stage="0" data-cfx-index="16" x="202.423" y="174" width="2.015" height="128" rx="1.727" fill="rgba(255,255,255,0.188)"/>
<rect data-cfx-role="segmented-metric-funnel-bar" data-cfx-stage="0" data-cfx-index="17" x="212.323" y="172" width="7.195" height="132" rx="3.454" fill="#36C47D"/>
<rect data-cfx-role="segmented-metric-funnel-bar-highlight" data-cfx-stage="0" data-cfx-index="17" x="213.618" y="174" width="2.015" height="128" rx="1.727" fill="rgba(255,255,255,0.188)"/>
<rect data-cfx-role="segmented-metric-funnel-bar" data-cfx-stage="0" data-cfx-index="18" x="223.518" y="172" width="7.195" height="132" rx="3.454" fill="#36C47D"/>
<rect data-cfx-role="segmented-metric-funnel-bar-highlight" data-cfx-stage="0" data-cfx-index="18" x="224.814" y="174" width="2.015" height="128" rx="1.727" fill="rgba(255,255,255,0.188)"/>
<rect data-cfx-role="segmented-metric-funnel-bar" data-cfx-stage="0" data-cfx-index="19" x="234.714" y="172" width="7.195" height="132" rx="3.454" fill="#36C47D"/>
<rect data-cfx-role="segmented-metric-funnel-bar-highlight" data-cfx-stage="0" data-cfx-index="19" x="236.009" y="174" width="2.015" height="128" rx="1.727" fill="rgba(255,255,255,0.188)"/>
<rect data-cfx-role="segmented-metric-funnel-bar" data-cfx-stage="0" data-cfx-index="20" x="245.909" y="172" width="7.195" height="132" rx="3.454" fill="#36C47D"/>
<rect data-cfx-role="segmented-metric-funnel-bar-highlight" data-cfx-stage="0" data-cfx-index="20" x="247.204" y="174" width="2.015" height="128" rx="1.727" fill="rgba(255,255,255,0.188)"/>
<rect data-cfx-role="segmented-metric-funnel-bar" data-cfx-stage="0" data-cfx-index="21" x="257.105" y="172" width="7.195" height="132" rx="3.454" fill="#36C47D"/>
<rect data-cfx-role="segmented-metric-funnel-bar-highlight" data-cfx-stage="0" data-cfx-index="21" x="258.4" y="174" width="2.015" height="128" rx="1.727" fill="rgba(255,255,255,0.188)"/>
<rect data-cfx-role="segmented-metric-funnel-bar" data-cfx-stage="0" data-cfx-index="22" x="268.3" y="172" width="7.195" height="132" rx="3.454" fill="#36C47D"/>
<rect data-cfx-role="segmented-metric-funnel-bar-highlight" data-cfx-stage="0" data-cfx-index="22" x="269.595" y="174" width="2.015" height="128" rx="1.727" fill="rgba(255,255,255,0.188)"/>
<rect data-cfx-role="segmented-metric-funnel-bar" data-cfx-stage="0" data-cfx-index="23" x="279.496" y="172" width="7.195" height="132" rx="3.454" fill="#36C47D"/>
<rect data-cfx-role="segmented-metric-funnel-bar-highlight" data-cfx-stage="0" data-cfx-index="23" x="280.791" y="174" width="2.015" height="128" rx="1.727" fill="rgba(255,255,255,0.188)"/>
</g>
<g data-cfx-role="segmented-metric-funnel-stage" data-cfx-label="Added to Cart" data-cfx-value="7200" data-cfx-segments="16" data-cfx-x="300.659" data-cfx-width="175.127">
<rect data-cfx-role="segmented-metric-funnel-marker" x="300.659" y="129" width="7" height="24" rx="3.5" fill="#FFB05C"/>
<text data-cfx-role="visual-text" x="311.659" y="143" text-anchor="start" fill="#7A7D86" font-family="Aptos, Calibri, 'Segoe UI', Candara, Arial, sans-serif" font-size="14" font-weight="500">Added to Cart</text>
<text data-cfx-role="visual-text" x="311.659" y="162" text-anchor="start" fill="#202235" font-family="Aptos, Calibri, 'Segoe UI', Candara, Arial, sans-serif" font-size="16" font-weight="850">7,200</text>
<rect data-cfx-role="segmented-metric-funnel-bar" data-cfx-stage="1" data-cfx-index="0" x="300.659" y="172" width="7.195" height="132" rx="3.454" fill="#FFB05C"/>
<rect data-cfx-role="segmented-metric-funnel-bar-highlight" data-cfx-stage="1" data-cfx-index="0" x="301.954" y="174" width="2.015" height="128" rx="1.727" fill="rgba(255,255,255,0.188)"/>
<rect data-cfx-role="segmented-metric-funnel-bar" data-cfx-stage="1" data-cfx-index="1" x="311.855" y="172" width="7.195" height="132" rx="3.454" fill="#FFB05C"/>
<rect data-cfx-role="segmented-metric-funnel-bar-highlight" data-cfx-stage="1" data-cfx-index="1" x="313.15" y="174" width="2.015" height="128" rx="1.727" fill="rgba(255,255,255,0.188)"/>
<rect data-cfx-role="segmented-metric-funnel-bar" data-cfx-stage="1" data-cfx-index="2" x="323.05" y="172" width="7.195" height="132" rx="3.454" fill="#FFB05C"/>
<rect data-cfx-role="segmented-metric-funnel-bar-highlight" data-cfx-stage="1" data-cfx-index="2" x="324.345" y="174" width="2.015" height="128" rx="1.727" fill="rgba(255,255,255,0.188)"/>
<rect data-cfx-role="segmented-metric-funnel-bar" data-cfx-stage="1" data-cfx-index="3" x="334.245" y="172" width="7.195" height="132" rx="3.454" fill="#FFB05C"/>
<rect data-cfx-role="segmented-metric-funnel-bar-highlight" data-cfx-stage="1" data-cfx-index="3" x="335.541" y="174" width="2.015" height="128" rx="1.727" fill="rgba(255,255,255,0.188)"/>
<rect data-cfx-role="segmented-metric-funnel-bar" data-cfx-stage="1" data-cfx-index="4" x="345.441" y="172" width="7.195" height="132" rx="3.454" fill="#FFB05C"/>
<rect data-cfx-role="segmented-metric-funnel-bar-highlight" data-cfx-stage="1" data-cfx-index="4" x="346.736" y="174" width="2.015" height="128" rx="1.727" fill="rgba(255,255,255,0.188)"/>
<rect data-cfx-role="segmented-metric-funnel-bar" data-cfx-stage="1" data-cfx-index="5" x="356.636" y="172" width="7.195" height="132" rx="3.454" fill="#FFB05C"/>
<rect data-cfx-role="segmented-metric-funnel-bar-highlight" data-cfx-stage="1" data-cfx-index="5" x="357.932" y="174" width="2.015" height="128" rx="1.727" fill="rgba(255,255,255,0.188)"/>
<rect data-cfx-role="segmented-metric-funnel-bar" data-cfx-stage="1" data-cfx-index="6" x="367.832" y="172" width="7.195" height="132" rx="3.454" fill="#FFB05C"/>
<rect data-cfx-role="segmented-metric-funnel-bar-highlight" data-cfx-stage="1" data-cfx-index="6" x="369.127" y="174" width="2.015" height="128" rx="1.727" fill="rgba(255,255,255,0.188)"/>
<rect data-cfx-role="segmented-metric-funnel-bar" data-cfx-stage="1" data-cfx-index="7" x="379.027" y="172" width="7.195" height="132" rx="3.454" fill="#FFB05C"/>
<rect data-cfx-role="segmented-metric-funnel-bar-highlight" data-cfx-stage="1" data-cfx-index="7" x="380.323" y="174" width="2.015" height="128" rx="1.727" fill="rgba(255,255,255,0.188)"/>
<rect data-cfx-role="segmented-metric-funnel-bar" data-cfx-stage="1" data-cfx-index="8" x="390.223" y="172" width="7.195" height="132" rx="3.454" fill="#FFB05C"/>
<rect data-cfx-role="segmented-metric-funnel-bar-highlight" data-cfx-stage="1" data-cfx-index="8" x="391.518" y="174" width="2.015" height="128" rx="1.727" fill="rgba(255,255,255,0.188)"/>
<rect data-cfx-role="segmented-metric-funnel-bar" data-cfx-stage="1" data-cfx-index="9" x="401.418" y="172" width="7.195" height="132" rx="3.454" fill="#FFB05C"/>
<rect data-cfx-role="segmented-metric-funnel-bar-highlight" data-cfx-stage="1" data-cfx-index="9" x="402.713" y="174" width="2.015" height="128" rx="1.727" fill="rgba(255,255,255,0.188)"/>
<rect data-cfx-role="segmented-metric-funnel-bar" data-cfx-stage="1" data-cfx-index="10" x="412.614" y="172" width="7.195" height="132" rx="3.454" fill="#FFB05C"/>
<rect data-cfx-role="segmented-metric-funnel-bar-highlight" data-cfx-stage="1" data-cfx-index="10" x="413.909" y="174" width="2.015" height="128" rx="1.727" fill="rgba(255,255,255,0.188)"/>
<rect data-cfx-role="segmented-metric-funnel-bar" data-cfx-stage="1" data-cfx-index="11" x="423.809" y="172" width="7.195" height="132" rx="3.454" fill="#FFB05C"/>
<rect data-cfx-role="segmented-metric-funnel-bar-highlight" data-cfx-stage="1" data-cfx-index="11" x="425.104" y="174" width="2.015" height="128" rx="1.727" fill="rgba(255,255,255,0.188)"/>
<rect data-cfx-role="segmented-metric-funnel-bar" data-cfx-stage="1" data-cfx-index="12" x="435.005" y="172" width="7.195" height="132" rx="3.454" fill="#FFB05C"/>
<rect data-cfx-role="segmented-metric-funnel-bar-highlight" data-cfx-stage="1" data-cfx-index="12" x="436.3" y="174" width="2.015" height="128" rx="1.727" fill="rgba(255,255,255,0.188)"/>
<rect data-cfx-role="segmented-metric-funnel-bar" data-cfx-stage="1" data-cfx-index="13" x="446.2" y="172" width="7.195" height="132" rx="3.454" fill="#FFB05C"/>
<rect data-cfx-role="segmented-metric-funnel-bar-highlight" data-cfx-stage="1" data-cfx-index="13" x="447.495" y="174" width="2.015" height="128" rx="1.727" fill="rgba(255,255,255,0.188)"/>
<rect data-cfx-role="segmented-metric-funnel-bar" data-cfx-stage="1" data-cfx-index="14" x="457.396" y="172" width="7.195" height="132" rx="3.454" fill="#FFB05C"/>
<rect data-cfx-role="segmented-metric-funnel-bar-highlight" data-cfx-stage="1" data-cfx-index="14" x="458.691" y="174" width="2.015" height="128" rx="1.727" fill="rgba(255,255,255,0.188)"/>
<rect data-cfx-role="segmented-metric-funnel-bar" data-cfx-stage="1" data-cfx-index="15" x="468.591" y="172" width="7.195" height="132" rx="3.454" fill="#FFB05C"/>
<rect data-cfx-role="segmented-metric-funnel-bar-highlight" data-cfx-stage="1" data-cfx-index="15" x="469.886" y="174" width="2.015" height="128" rx="1.727" fill="rgba(255,255,255,0.188)"/>
</g>
<g data-cfx-role="segmented-metric-funnel-stage" data-cfx-label="Payment" data-cfx-value="1230" data-cfx-segments="12" data-cfx-x="489.755" data-cfx-width="130.346">
<rect data-cfx-role="segmented-metric-funnel-marker" x="489.755" y="129" width="7" height="24" rx="3.5" fill="#6D83F2"/>
<text data-cfx-role="visual-text" x="500.755" y="143" text-anchor="start" fill="#7A7D86" font-family="Aptos, Calibri, 'Segoe UI', Candara, Arial, sans-serif" font-size="14" font-weight="500">Payment</text>
<text data-cfx-role="visual-text" x="500.755" y="162" text-anchor="start" fill="#202235" font-family="Aptos, Calibri, 'Segoe UI', Candara, Arial, sans-serif" font-size="16" font-weight="850">1,230</text>
<rect data-cfx-role="segmented-metric-funnel-bar" data-cfx-stage="2" data-cfx-index="0" x="489.755" y="172" width="7.195" height="132" rx="3.454" fill="#6D83F2"/>
<rect data-cfx-role="segmented-metric-funnel-bar-highlight" data-cfx-stage="2" data-cfx-index="0" x="491.05" y="174" width="2.015" height="128" rx="1.727" fill="rgba(255,255,255,0.188)"/>
<rect data-cfx-role="segmented-metric-funnel-bar" data-cfx-stage="2" data-cfx-index="1" x="500.95" y="172" width="7.195" height="132" rx="3.454" fill="#6D83F2"/>
<rect data-cfx-role="segmented-metric-funnel-bar-highlight" data-cfx-stage="2" data-cfx-index="1" x="502.245" y="174" width="2.015" height="128" rx="1.727" fill="rgba(255,255,255,0.188)"/>
<rect data-cfx-role="segmented-metric-funnel-bar" data-cfx-stage="2" data-cfx-index="2" x="512.145" y="172" width="7.195" height="132" rx="3.454" fill="#6D83F2"/>
<rect data-cfx-role="segmented-metric-funnel-bar-highlight" data-cfx-stage="2" data-cfx-index="2" x="513.441" y="174" width="2.015" height="128" rx="1.727" fill="rgba(255,255,255,0.188)"/>
<rect data-cfx-role="segmented-metric-funnel-bar" data-cfx-stage="2" data-cfx-index="3" x="523.341" y="172" width="7.195" height="132" rx="3.454" fill="#6D83F2"/>
<rect data-cfx-role="segmented-metric-funnel-bar-highlight" data-cfx-stage="2" data-cfx-index="3" x="524.636" y="174" width="2.015" height="128" rx="1.727" fill="rgba(255,255,255,0.188)"/>
<rect data-cfx-role="segmented-metric-funnel-bar" data-cfx-stage="2" data-cfx-index="4" x="534.536" y="172" width="7.195" height="132" rx="3.454" fill="#6D83F2"/>
<rect data-cfx-role="segmented-metric-funnel-bar-highlight" data-cfx-stage="2" data-cfx-index="4" x="535.832" y="174" width="2.015" height="128" rx="1.727" fill="rgba(255,255,255,0.188)"/>
<rect data-cfx-role="segmented-metric-funnel-bar" data-cfx-stage="2" data-cfx-index="5" x="545.732" y="172" width="7.195" height="132" rx="3.454" fill="#6D83F2"/>
<rect data-cfx-role="segmented-metric-funnel-bar-highlight" data-cfx-stage="2" data-cfx-index="5" x="547.027" y="174" width="2.015" height="128" rx="1.727" fill="rgba(255,255,255,0.188)"/>
<rect data-cfx-role="segmented-metric-funnel-bar" data-cfx-stage="2" data-cfx-index="6" x="556.927" y="172" width="7.195" height="132" rx="3.454" fill="#6D83F2"/>
<rect data-cfx-role="segmented-metric-funnel-bar-highlight" data-cfx-stage="2" data-cfx-index="6" x="558.222" y="174" width="2.015" height="128" rx="1.727" fill="rgba(255,255,255,0.188)"/>
<rect data-cfx-role="segmented-metric-funnel-bar" data-cfx-stage="2" data-cfx-index="7" x="568.123" y="172" width="7.195" height="132" rx="3.454" fill="#6D83F2"/>
<rect data-cfx-role="segmented-metric-funnel-bar-highlight" data-cfx-stage="2" data-cfx-index="7" x="569.418" y="174" width="2.015" height="128" rx="1.727" fill="rgba(255,255,255,0.188)"/>
<rect data-cfx-role="segmented-metric-funnel-bar" data-cfx-stage="2" data-cfx-index="8" x="579.318" y="172" width="7.195" height="132" rx="3.454" fill="#6D83F2"/>
<rect data-cfx-role="segmented-metric-funnel-bar-highlight" data-cfx-stage="2" data-cfx-index="8" x="580.613" y="174" width="2.015" height="128" rx="1.727" fill="rgba(255,255,255,0.188)"/>
<rect data-cfx-role="segmented-metric-funnel-bar" data-cfx-stage="2" data-cfx-index="9" x="590.514" y="172" width="7.195" height="132" rx="3.454" fill="#6D83F2"/>
<rect data-cfx-role="segmented-metric-funnel-bar-highlight" data-cfx-stage="2" data-cfx-index="9" x="591.809" y="174" width="2.015" height="128" rx="1.727" fill="rgba(255,255,255,0.188)"/>
<rect data-cfx-role="segmented-metric-funnel-bar" data-cfx-stage="2" data-cfx-index="10" x="601.709" y="172" width="7.195" height="132" rx="3.454" fill="#6D83F2"/>
<rect data-cfx-role="segmented-metric-funnel-bar-highlight" data-cfx-stage="2" data-cfx-index="10" x="603.004" y="174" width="2.015" height="128" rx="1.727" fill="rgba(255,255,255,0.188)"/>
<rect data-cfx-role="segmented-metric-funnel-bar" data-cfx-stage="2" data-cfx-index="11" x="612.905" y="172" width="7.195" height="132" rx="3.454" fill="#6D83F2"/>
<rect data-cfx-role="segmented-metric-funnel-bar-highlight" data-cfx-stage="2" data-cfx-index="11" x="614.2" y="174" width="2.015" height="128" rx="1.727" fill="rgba(255,255,255,0.188)"/>
</g>
<g data-cfx-role="segmented-metric-funnel-stage" data-cfx-label="Abandoned Cart" data-cfx-value="5970" data-cfx-segments="15" data-cfx-x="634.068" data-cfx-width="163.932">
<rect data-cfx-role="segmented-metric-funnel-marker" x="634.068" y="129" width="7" height="24" rx="3.5" fill="#EF5DA8"/>
<text data-cfx-role="visual-text" x="645.068" y="143" text-anchor="start" fill="#7A7D86" font-family="Aptos, Calibri, 'Segoe UI', Candara, Arial, sans-serif" font-size="14" font-weight="500">Abandoned Cart</text>
<text data-cfx-role="visual-text" x="645.068" y="162" text-anchor="start" fill="#202235" font-family="Aptos, Calibri, 'Segoe UI', Candara, Arial, sans-serif" font-size="16" font-weight="850">5,970</text>
<rect data-cfx-role="segmented-metric-funnel-bar" data-cfx-stage="3" data-cfx-index="0" x="634.068" y="172" width="7.195" height="132" rx="3.454" fill="#EF5DA8"/>
<rect data-cfx-role="segmented-metric-funnel-bar-highlight" data-cfx-stage="3" data-cfx-index="0" x="635.363" y="174" width="2.015" height="128" rx="1.727" fill="rgba(255,255,255,0.188)"/>
<rect data-cfx-role="segmented-metric-funnel-bar" data-cfx-stage="3" data-cfx-index="1" x="645.264" y="172" width="7.195" height="132" rx="3.454" fill="#EF5DA8"/>
<rect data-cfx-role="segmented-metric-funnel-bar-highlight" data-cfx-stage="3" data-cfx-index="1" x="646.559" y="174" width="2.015" height="128" rx="1.727" fill="rgba(255,255,255,0.188)"/>
<rect data-cfx-role="segmented-metric-funnel-bar" data-cfx-stage="3" data-cfx-index="2" x="656.459" y="172" width="7.195" height="132" rx="3.454" fill="#EF5DA8"/>
<rect data-cfx-role="segmented-metric-funnel-bar-highlight" data-cfx-stage="3" data-cfx-index="2" x="657.754" y="174" width="2.015" height="128" rx="1.727" fill="rgba(255,255,255,0.188)"/>
<rect data-cfx-role="segmented-metric-funnel-bar" data-cfx-stage="3" data-cfx-index="3" x="667.654" y="172" width="7.195" height="132" rx="3.454" fill="#EF5DA8"/>
<rect data-cfx-role="segmented-metric-funnel-bar-highlight" data-cfx-stage="3" data-cfx-index="3" x="668.95" y="174" width="2.015" height="128" rx="1.727" fill="rgba(255,255,255,0.188)"/>
<rect data-cfx-role="segmented-metric-funnel-bar" data-cfx-stage="3" data-cfx-index="4" x="678.85" y="172" width="7.195" height="132" rx="3.454" fill="#EF5DA8"/>
<rect data-cfx-role="segmented-metric-funnel-bar-highlight" data-cfx-stage="3" data-cfx-index="4" x="680.145" y="174" width="2.015" height="128" rx="1.727" fill="rgba(255,255,255,0.188)"/>
<rect data-cfx-role="segmented-metric-funnel-bar" data-cfx-stage="3" data-cfx-index="5" x="690.045" y="172" width="7.195" height="132" rx="3.454" fill="#EF5DA8"/>
<rect data-cfx-role="segmented-metric-funnel-bar-highlight" data-cfx-stage="3" data-cfx-index="5" x="691.341" y="174" width="2.015" height="128" rx="1.727" fill="rgba(255,255,255,0.188)"/>
<rect data-cfx-role="segmented-metric-funnel-bar" data-cfx-stage="3" data-cfx-index="6" x="701.241" y="172" width="7.195" height="132" rx="3.454" fill="#EF5DA8"/>
<rect data-cfx-role="segmented-metric-funnel-bar-highlight" data-cfx-stage="3" data-cfx-index="6" x="702.536" y="174" width="2.015" height="128" rx="1.727" fill="rgba(255,255,255,0.188)"/>
<rect data-cfx-role="segmented-metric-funnel-bar" data-cfx-stage="3" data-cfx-index="7" x="712.436" y="172" width="7.195" height="132" rx="3.454" fill="#EF5DA8"/>
<rect data-cfx-role="segmented-metric-funnel-bar-highlight" data-cfx-stage="3" data-cfx-index="7" x="713.731" y="174" width="2.015" height="128" rx="1.727" fill="rgba(255,255,255,0.188)"/>
<rect data-cfx-role="segmented-metric-funnel-bar" data-cfx-stage="3" data-cfx-index="8" x="723.632" y="172" width="7.195" height="132" rx="3.454" fill="#EF5DA8"/>
<rect data-cfx-role="segmented-metric-funnel-bar-highlight" data-cfx-stage="3" data-cfx-index="8" x="724.927" y="174" width="2.015" height="128" rx="1.727" fill="rgba(255,255,255,0.188)"/>
<rect data-cfx-role="segmented-metric-funnel-bar" data-cfx-stage="3" data-cfx-index="9" x="734.827" y="172" width="7.195" height="132" rx="3.454" fill="#EF5DA8"/>
<rect data-cfx-role="segmented-metric-funnel-bar-highlight" data-cfx-stage="3" data-cfx-index="9" x="736.122" y="174" width="2.015" height="128" rx="1.727" fill="rgba(255,255,255,0.188)"/>
<rect data-cfx-role="segmented-metric-funnel-bar" data-cfx-stage="3" data-cfx-index="10" x="746.023" y="172" width="7.195" height="132" rx="3.454" fill="#EF5DA8"/>
<rect data-cfx-role="segmented-metric-funnel-bar-highlight" data-cfx-stage="3" data-cfx-index="10" x="747.318" y="174" width="2.015" height="128" rx="1.727" fill="rgba(255,255,255,0.188)"/>
<rect data-cfx-role="segmented-metric-funnel-bar" data-cfx-stage="3" data-cfx-index="11" x="757.218" y="172" width="7.195" height="132" rx="3.454" fill="#EF5DA8"/>
<rect data-cfx-role="segmented-metric-funnel-bar-highlight" data-cfx-stage="3" data-cfx-index="11" x="758.513" y="174" width="2.015" height="128" rx="1.727" fill="rgba(255,255,255,0.188)"/>
<rect data-cfx-role="segmented-metric-funnel-bar" data-cfx-stage="3" data-cfx-index="12" x="768.414" y="172" width="7.195" height="132" rx="3.454" fill="#EF5DA8"/>
<rect data-cfx-role="segmented-metric-funnel-bar-highlight" data-cfx-stage="3" data-cfx-index="12" x="769.709" y="174" width="2.015" height="128" rx="1.727" fill="rgba(255,255,255,0.188)"/>
<rect data-cfx-role="segmented-metric-funnel-bar" data-cfx-stage="3" data-cfx-index="13" x="779.609" y="172" width="7.195" height="132" rx="3.454" fill="#EF5DA8"/>
<rect data-cfx-role="segmented-metric-funnel-bar-highlight" data-cfx-stage="3" data-cfx-index="13" x="780.904" y="174" width="2.015" height="128" rx="1.727" fill="rgba(255,255,255,0.188)"/>
<rect data-cfx-role="segmented-metric-funnel-bar" data-cfx-stage="3" data-cfx-index="14" x="790.805" y="172" width="7.195" height="132" rx="3.454" fill="#EF5DA8"/>
<rect data-cfx-role="segmented-metric-funnel-bar-highlight" data-cfx-stage="3" data-cfx-index="14" x="792.1" y="174" width="2.015" height="128" rx="1.727" fill="rgba(255,255,255,0.188)"/>
</g>
</g>
</svg>
