<svg xmlns="http://www.w3.org/2000/svg" id="cfx-visual-9a1bc6dd" width="820" height="340" viewBox="0 0 820 340" role="img" aria-labelledby="cfx-visual-9a1bc6dd-title cfx-visual-9a1bc6dd-desc" preserveAspectRatio="xMidYMid meet" shape-rendering="geometricPrecision" text-rendering="geometricPrecision" style="max-width:100%;height:auto;display:block">
<title id="cfx-visual-9a1bc6dd-title">Channel Share</title>
<desc id="cfx-visual-9a1bc6dd-desc">Static ChartForgeX visual block.</desc>
<defs>
<style>#cfx-visual-9a1bc6dd .cfx-guide-stroke,#cfx-visual-9a1bc6dd .cfx-premium-stroke{vector-effect:non-scaling-stroke;shape-rendering:geometricPrecision}#cfx-visual-9a1bc6dd text{text-rendering:geometricPrecision;-webkit-font-smoothing:antialiased}</style>
<linearGradient id="cfx-visual-9a1bc6dd-visualBackground" x1="0" x2="0" y1="0" y2="1"><stop offset="0%" stop-color="#F4F4F5" stop-opacity="1"/><stop offset="100%" stop-color="#EAEAEC" stop-opacity="1"/></linearGradient>
<linearGradient id="cfx-visual-9a1bc6dd-visualCard" x1="0" x2="0" y1="0" y2="1"><stop offset="0%" stop-color="#FFFFFF" stop-opacity="1"/><stop offset="100%" stop-color="#F7F7F8" stop-opacity="1"/></linearGradient>
<linearGradient id="cfx-visual-9a1bc6dd-visualPlot" x1="0" x2="0" y1="0" y2="1"><stop offset="0%" stop-color="#FFFFFF" stop-opacity="1"/><stop offset="100%" stop-color="#F7F7F8" stop-opacity="1"/></linearGradient>
<clipPath id="cfx-visual-9a1bc6dd-visualCardClip"><rect x="0" y="0" width="820" height="340" rx="18"/></clipPath>
</defs>
<rect width="100%" height="100%" fill="url(#cfx-visual-9a1bc6dd-visualBackground)"/>
<rect data-cfx-role="visual-card" class="cfx-guide-stroke" x="0.5" y="0.5" width="819" height="339" rx="17.5" fill="url(#cfx-visual-9a1bc6dd-visualCard)" stroke="#ECEEF2"/>
<rect data-cfx-role="visual-card-highlight" class="cfx-guide-stroke" x="1.5" y="1.5" width="817" height="337" rx="16.5" fill="none" stroke="#fff" stroke-opacity="0.42"/>
<circle data-cfx-role="segmented-metric-menu-dot" cx="776" cy="44" r="2.1" fill="#7A7D86"/>
<circle data-cfx-role="segmented-metric-menu-dot" cx="783" cy="44" r="2.1" fill="#7A7D86"/>
<circle data-cfx-role="segmented-metric-menu-dot" cx="790" cy="44" r="2.1" fill="#7A7D86"/>
<text data-cfx-role="visual-text" x="22" y="41.5" text-anchor="start" fill="#202235" font-family="Aptos, Calibri, 'Segoe UI', Candara, Arial, sans-serif" font-size="26" font-weight="800">Channel Share</text>
<text data-cfx-role="visual-text" x="22" y="66.5" text-anchor="start" fill="#7A7D86" font-family="Aptos, Calibri, 'Segoe UI', Candara, Arial, sans-serif" font-size="14" font-weight="500">Balanced source mix rendered as a closed-loop split.</text>
<line data-cfx-role="segmented-metric-header-divider" x1="22" y1="93" x2="798" y2="93" stroke="#DCDDE3"/>
<g data-cfx-role="segmented-metric-capsule-ring" data-cfx-total="100">
<path data-cfx-role="segmented-metric-capsule-track-shadow" d="M 86 157.35 L 96.54 157.35 L 107.081 157.35 L 117.621 157.35 L 128.162 157.35 L 138.702 157.35 L 149.242 157.35 L 159.783 157.35 L 170.323 157.35 L 180.863 157.35 L 191.404 157.35 L 201.944 157.35 L 212.485 157.35 L 223.025 157.35 L 233.565 157.35 L 244.106 157.35 L 254.646 157.35 L 265.186 157.35 L 275.727 157.35 L 286.267 157.35 L 296.808 157.35 L 307.348 157.35 L 317.888 157.35 L 328.429 157.35 L 338.969 157.35 L 349.509 157.35 L 360.05 157.35 L 370.59 157.35 L 381.131 157.35 L 391.671 157.35 L 402.211 157.35 L 412.752 157.35 L 423.292 157.35 L 433.832 157.35 L 444.355 157.764 L 454.579 160.24 L 464.04 164.842 L 472.3 171.357 L 478.979 179.485 L 483.769 188.851 L 486.449 199.024 L 486.896 209.534 L 485.09 219.898 L 481.113 229.637 L 475.148 238.303 L 467.472 245.496 L 458.436 250.885 L 448.459 254.221 L 438 255.35 L 427.46 255.35 L 416.919 255.35 L 406.379 255.35 L 395.838 255.35 L 385.298 255.35 L 374.758 255.35 L 364.217 255.35 L 353.677 255.35 L 343.137 255.35 L 332.596 255.35 L 322.056 255.35 L 311.515 255.35 L 300.975 255.35 L 290.435 255.35 L 279.894 255.35 L 269.354 255.35 L 258.814 255.35 L 248.273 255.35 L 237.733 255.35 L 227.192 255.35 L 216.652 255.35 L 206.112 255.35 L 195.571 255.35 L 185.031 255.35 L 174.491 255.35 L 163.95 255.35 L 153.41 255.35 L 142.869 255.35 L 132.329 255.35 L 121.789 255.35 L 111.248 255.35 L 100.708 255.35 L 90.168 255.35 L 79.645 254.936 L 69.421 252.46 L 59.96 247.858 L 51.7 241.343 L 45.021 233.215 L 40.231 223.849 L 37.551 213.676 L 37.104 203.166 L 38.91 192.802 L 42.887 183.063 L 48.852 174.397 L 56.528 167.204 L 65.564 161.815 L 75.541 158.479 L 86 157.35" fill="none" stroke="rgba(122,125,134,0.063)" stroke-width="32" stroke-linecap="round" stroke-linejoin="round"/>
<path data-cfx-role="segmented-metric-capsule-track" d="M 86 156.25 L 96.54 156.25 L 107.081 156.25 L 117.621 156.25 L 128.162 156.25 L 138.702 156.25 L 149.242 156.25 L 159.783 156.25 L 170.323 156.25 L 180.863 156.25 L 191.404 156.25 L 201.944 156.25 L 212.485 156.25 L 223.025 156.25 L 233.565 156.25 L 244.106 156.25 L 254.646 156.25 L 265.186 156.25 L 275.727 156.25 L 286.267 156.25 L 296.808 156.25 L 307.348 156.25 L 317.888 156.25 L 328.429 156.25 L 338.969 156.25 L 349.509 156.25 L 360.05 156.25 L 370.59 156.25 L 381.131 156.25 L 391.671 156.25 L 402.211 156.25 L 412.752 156.25 L 423.292 156.25 L 433.832 156.25 L 444.355 156.664 L 454.579 159.14 L 464.04 163.742 L 472.3 170.257 L 478.979 178.385 L 483.769 187.751 L 486.449 197.924 L 486.896 208.434 L 485.09 218.798 L 481.113 228.537 L 475.148 237.203 L 467.472 244.396 L 458.436 249.785 L 448.459 253.121 L 438 254.25 L 427.46 254.25 L 416.919 254.25 L 406.379 254.25 L 395.838 254.25 L 385.298 254.25 L 374.758 254.25 L 364.217 254.25 L 353.677 254.25 L 343.137 254.25 L 332.596 254.25 L 322.056 254.25 L 311.515 254.25 L 300.975 254.25 L 290.435 254.25 L 279.894 254.25 L 269.354 254.25 L 258.814 254.25 L 248.273 254.25 L 237.733 254.25 L 227.192 254.25 L 216.652 254.25 L 206.112 254.25 L 195.571 254.25 L 185.031 254.25 L 174.491 254.25 L 163.95 254.25 L 153.41 254.25 L 142.869 254.25 L 132.329 254.25 L 121.789 254.25 L 111.248 254.25 L 100.708 254.25 L 90.168 254.25 L 79.645 253.836 L 69.421 251.36 L 59.96 246.758 L 51.7 240.243 L 45.021 232.115 L 40.231 222.749 L 37.551 212.576 L 37.104 202.066 L 38.91 191.702 L 42.887 181.963 L 48.852 173.297 L 56.528 166.104 L 65.564 160.715 L 75.541 157.379 L 86 156.25" fill="none" stroke="#FFFFFF" stroke-width="30" stroke-linecap="round" stroke-linejoin="round"/>
<path data-cfx-role="segmented-metric-capsule-segment" data-cfx-label="Direct" data-cfx-value="40" data-cfx-share="0.4" data-cfx-gap="0.031" data-cfx-samples="96" d="M 117.5 156.25 L 121.06 156.25 L 124.62 156.25 L 128.18 156.25 L 131.74 156.25 L 135.3 156.25 L 138.859 156.25 L 142.419 156.25 L 145.979 156.25 L 149.539 156.25 L 153.099 156.25 L 156.659 156.25 L 160.219 156.25 L 163.779 156.25 L 167.339 156.25 L 170.899 156.25 L 174.458 156.25 L 178.018 156.25 L 181.578 156.25 L 185.138 156.25 L 188.698 156.25 L 192.258 156.25 L 195.818 156.25 L 199.378 156.25 L 202.938 156.25 L 206.498 156.25 L 210.057 156.25 L 213.617 156.25 L 217.177 156.25 L 220.737 156.25 L 224.297 156.25 L 227.857 156.25 L 231.417 156.25 L 234.977 156.25 L 238.537 156.25 L 242.097 156.25 L 245.656 156.25 L 249.216 156.25 L 252.776 156.25 L 256.336 156.25 L 259.896 156.25 L 263.456 156.25 L 267.016 156.25 L 270.576 156.25 L 274.136 156.25 L 277.696 156.25 L 281.255 156.25 L 284.815 156.25 L 288.375 156.25 L 291.935 156.25 L 295.495 156.25 L 299.055 156.25 L 302.615 156.25 L 306.175 156.25 L 309.735 156.25 L 313.295 156.25 L 316.854 156.25 L 320.414 156.25 L 323.974 156.25 L 327.534 156.25 L 331.094 156.25 L 334.654 156.25 L 338.214 156.25 L 341.774 156.25 L 345.334 156.25 L 348.894 156.25 L 352.453 156.25 L 356.013 156.25 L 359.573 156.25 L 363.133 156.25 L 366.693 156.25 L 370.253 156.25 L 373.813 156.25 L 377.373 156.25 L 380.933 156.25 L 384.493 156.25 L 388.052 156.25 L 391.612 156.25 L 395.172 156.25 L 398.732 156.25 L 402.292 156.25 L 405.852 156.25 L 409.412 156.25 L 412.972 156.25 L 416.532 156.25 L 420.092 156.25 L 423.651 156.25 L 427.211 156.25 L 430.771 156.25 L 434.331 156.25 L 437.891 156.25 L 441.448 156.371 L 444.987 156.751 L 448.489 157.386 L 451.936 158.273 L 455.309 159.409 L 458.591 160.786" fill="none" stroke="#36C47D" stroke-width="30" stroke-linecap="round" stroke-linejoin="round"/>
<text data-cfx-role="segmented-metric-capsule-label" x="288.375" y="160.73" text-anchor="middle" fill="#FFFFFF" stroke="rgba(15,23,42,0.439)" stroke-width="2.4" paint-order="stroke" font-family="Aptos, Calibri, 'Segoe UI', Candara, Arial, sans-serif" font-size="12" font-weight="850">40%</text>
<path data-cfx-role="segmented-metric-capsule-segment" data-cfx-label="Partner" data-cfx-value="35" data-cfx-share="0.35" data-cfx-gap="0.031" data-cfx-samples="96" d="M 486.46 212.505 L 485.918 215.488 L 485.193 218.433 L 484.288 221.327 L 483.205 224.159 L 481.948 226.919 L 480.524 229.596 L 478.936 232.18 L 477.192 234.66 L 475.298 237.028 L 473.261 239.275 L 471.089 241.39 L 468.79 243.368 L 466.373 245.2 L 463.848 246.878 L 461.223 248.397 L 458.51 249.751 L 455.718 250.935 L 452.858 251.943 L 449.941 252.773 L 446.979 253.42 L 443.982 253.883 L 440.962 254.16 L 437.931 254.25 L 434.898 254.25 L 431.866 254.25 L 428.833 254.25 L 425.8 254.25 L 422.767 254.25 L 419.734 254.25 L 416.701 254.25 L 413.668 254.25 L 410.635 254.25 L 407.603 254.25 L 404.57 254.25 L 401.537 254.25 L 398.504 254.25 L 395.471 254.25 L 392.438 254.25 L 389.405 254.25 L 386.372 254.25 L 383.339 254.25 L 380.307 254.25 L 377.274 254.25 L 374.241 254.25 L 371.208 254.25 L 368.175 254.25 L 365.142 254.25 L 362.109 254.25 L 359.076 254.25 L 356.044 254.25 L 353.011 254.25 L 349.978 254.25 L 346.945 254.25 L 343.912 254.25 L 340.879 254.25 L 337.846 254.25 L 334.813 254.25 L 331.78 254.25 L 328.748 254.25 L 325.715 254.25 L 322.682 254.25 L 319.649 254.25 L 316.616 254.25 L 313.583 254.25 L 310.55 254.25 L 307.517 254.25 L 304.485 254.25 L 301.452 254.25 L 298.419 254.25 L 295.386 254.25 L 292.353 254.25 L 289.32 254.25 L 286.287 254.25 L 283.254 254.25 L 280.221 254.25 L 277.189 254.25 L 274.156 254.25 L 271.123 254.25 L 268.09 254.25 L 265.057 254.25 L 262.024 254.25 L 258.991 254.25 L 255.958 254.25 L 252.926 254.25 L 249.893 254.25 L 246.86 254.25 L 243.827 254.25 L 240.794 254.25 L 237.761 254.25 L 234.728 254.25 L 231.695 254.25 L 228.663 254.25 L 225.63 254.25 L 222.597 254.25 L 219.564 254.25 L 216.531 254.25" fill="none" stroke="#FFB05C" stroke-width="30" stroke-linecap="round" stroke-linejoin="round"/>
<text data-cfx-role="segmented-metric-capsule-label" x="362.109" y="258.73" text-anchor="middle" fill="#0F172A" stroke="rgba(255,255,255,0.439)" stroke-width="2.4" paint-order="stroke" font-family="Aptos, Calibri, 'Segoe UI', Candara, Arial, sans-serif" font-size="12" font-weight="850">35%</text>
<path data-cfx-role="segmented-metric-capsule-segment" data-cfx-label="Referral" data-cfx-value="15" data-cfx-share="0.15" data-cfx-gap="0.031" data-cfx-samples="96" d="M 153.531 254.25 L 152.606 254.25 L 151.681 254.25 L 150.757 254.25 L 149.832 254.25 L 148.907 254.25 L 147.982 254.25 L 147.057 254.25 L 146.133 254.25 L 145.208 254.25 L 144.283 254.25 L 143.358 254.25 L 142.433 254.25 L 141.508 254.25 L 140.584 254.25 L 139.659 254.25 L 138.734 254.25 L 137.809 254.25 L 136.884 254.25 L 135.96 254.25 L 135.035 254.25 L 134.11 254.25 L 133.185 254.25 L 132.26 254.25 L 131.336 254.25 L 130.411 254.25 L 129.486 254.25 L 128.561 254.25 L 127.636 254.25 L 126.712 254.25 L 125.787 254.25 L 124.862 254.25 L 123.937 254.25 L 123.012 254.25 L 122.088 254.25 L 121.163 254.25 L 120.238 254.25 L 119.313 254.25 L 118.388 254.25 L 117.464 254.25 L 116.539 254.25 L 115.614 254.25 L 114.689 254.25 L 113.764 254.25 L 112.839 254.25 L 111.915 254.25 L 110.99 254.25 L 110.065 254.25 L 109.14 254.25 L 108.215 254.25 L 107.291 254.25 L 106.366 254.25 L 105.441 254.25 L 104.516 254.25 L 103.591 254.25 L 102.667 254.25 L 101.742 254.25 L 100.817 254.25 L 99.892 254.25 L 98.967 254.25 L 98.043 254.25 L 97.118 254.25 L 96.193 254.25 L 95.268 254.25 L 94.343 254.25 L 93.419 254.25 L 92.494 254.25 L 91.569 254.25 L 90.644 254.25 L 89.719 254.25 L 88.795 254.25 L 87.87 254.25 L 86.945 254.25 L 86.02 254.25 L 85.095 254.242 L 84.171 254.216 L 83.247 254.173 L 82.324 254.112 L 81.403 254.034 L 80.483 253.938 L 79.565 253.826 L 78.65 253.696 L 77.737 253.548 L 76.827 253.384 L 75.92 253.202 L 75.017 253.003 L 74.117 252.787 L 73.222 252.555 L 72.332 252.305 L 71.446 252.039 L 70.566 251.756 L 69.691 251.456 L 68.822 251.14 L 67.959 250.808 L 67.102 250.459 L 66.252 250.094 L 65.409 249.714" fill="none" stroke="#EF5DA8" stroke-width="30" stroke-linecap="round" stroke-linejoin="round"/>
<text data-cfx-role="segmented-metric-capsule-label" x="109.14" y="258.73" text-anchor="middle" fill="#FFFFFF" stroke="rgba(15,23,42,0.439)" stroke-width="2.4" paint-order="stroke" font-family="Aptos, Calibri, 'Segoe UI', Candara, Arial, sans-serif" font-size="12" font-weight="850">15%</text>
<path data-cfx-role="segmented-metric-capsule-segment" data-cfx-label="Other" data-cfx-value="10" data-cfx-share="0.1" data-cfx-gap="0.028" data-cfx-samples="96" d="M 37.173 201.141 L 37.214 200.679 L 37.259 200.217 L 37.309 199.756 L 37.363 199.296 L 37.422 198.836 L 37.485 198.376 L 37.552 197.917 L 37.623 197.459 L 37.699 197.002 L 37.779 196.545 L 37.864 196.089 L 37.953 195.634 L 38.046 195.179 L 38.144 194.726 L 38.245 194.273 L 38.351 193.822 L 38.462 193.371 L 38.576 192.922 L 38.695 192.474 L 38.818 192.027 L 38.945 191.581 L 39.077 191.136 L 39.212 190.692 L 39.352 190.25 L 39.496 189.809 L 39.645 189.37 L 39.797 188.932 L 39.954 188.495 L 40.114 188.06 L 40.279 187.627 L 40.448 187.195 L 40.621 186.764 L 40.798 186.336 L 40.979 185.909 L 41.164 185.484 L 41.353 185.06 L 41.546 184.638 L 41.743 184.219 L 41.944 183.801 L 42.149 183.385 L 42.358 182.971 L 42.571 182.558 L 42.788 182.148 L 43.008 181.741 L 43.233 181.335 L 43.461 180.931 L 43.693 180.529 L 43.929 180.13 L 44.168 179.733 L 44.412 179.338 L 44.659 178.946 L 44.91 178.556 L 45.164 178.168 L 45.422 177.783 L 45.684 177.4 L 45.95 177.02 L 46.219 176.642 L 46.491 176.266 L 46.767 175.894 L 47.047 175.524 L 47.33 175.156 L 47.616 174.792 L 47.906 174.43 L 48.2 174.071 L 48.497 173.714 L 48.797 173.361 L 49.1 173.01 L 49.407 172.662 L 49.717 172.317 L 50.03 171.976 L 50.347 171.637 L 50.667 171.301 L 50.99 170.968 L 51.316 170.638 L 51.645 170.311 L 51.977 169.988 L 52.312 169.667 L 52.651 169.35 L 52.992 169.036 L 53.336 168.725 L 53.683 168.418 L 54.033 168.113 L 54.386 167.812 L 54.742 167.515 L 55.101 167.221 L 55.462 166.93 L 55.826 166.643 L 56.193 166.359 L 56.562 166.078 L 56.934 165.802 L 57.309 165.528 L 57.686 165.258 L 58.066 164.992 L 58.448 164.73 L 58.833 164.471 L 59.22 164.215" fill="none" stroke="#6D83F2" stroke-width="30" stroke-linecap="round" stroke-linejoin="round"/>
<text data-cfx-role="segmented-metric-capsule-label" x="43.929" y="184.61" text-anchor="middle" fill="#FFFFFF" stroke="rgba(15,23,42,0.439)" stroke-width="2.4" paint-order="stroke" font-family="Aptos, Calibri, 'Segoe UI', Candara, Arial, sans-serif" font-size="12" font-weight="850">10%</text>
</g>
<g data-cfx-role="segmented-metric-capsule-legend">
<rect data-cfx-role="segmented-metric-capsule-swatch" x="532" y="158.09" width="12" height="12" rx="3" fill="#36C47D"/>
<text data-cfx-role="visual-text" x="554" y="172.37" text-anchor="start" fill="#7A7D86" font-family="Aptos, Calibri, 'Segoe UI', Candara, Arial, sans-serif" font-size="14" font-weight="550">Direct</text>
<text data-cfx-role="visual-text" x="762" y="172.37" text-anchor="end" fill="#202235" font-family="Aptos, Calibri, 'Segoe UI', Candara, Arial, sans-serif" font-size="14" font-weight="800">24,000</text>
<rect data-cfx-role="segmented-metric-capsule-swatch" x="532" y="192.09" width="12" height="12" rx="3" fill="#FFB05C"/>
<text data-cfx-role="visual-text" x="554" y="206.37" text-anchor="start" fill="#7A7D86" font-family="Aptos, Calibri, 'Segoe UI', Candara, Arial, sans-serif" font-size="14" font-weight="550">Partner</text>
<text data-cfx-role="visual-text" x="762" y="206.37" text-anchor="end" fill="#202235" font-family="Aptos, Calibri, 'Segoe UI', Candara, Arial, sans-serif" font-size="14" font-weight="800">21,000</text>
<rect data-cfx-role="segmented-metric-capsule-swatch" x="532" y="226.09" width="12" height="12" rx="3" fill="#EF5DA8"/>
<text data-cfx-role="visual-text" x="554" y="240.37" text-anchor="start" fill="#7A7D86" font-family="Aptos, Calibri, 'Segoe UI', Candara, Arial, sans-serif" font-size="14" font-weight="550">Referral</text>
<text data-cfx-role="visual-text" x="762" y="240.37" text-anchor="end" fill="#202235" font-family="Aptos, Calibri, 'Segoe UI', Candara, Arial, sans-serif" font-size="14" font-weight="800">9,000</text>
<rect data-cfx-role="segmented-metric-capsule-swatch" x="532" y="260.09" width="12" height="12" rx="3" fill="#6D83F2"/>
<text data-cfx-role="visual-text" x="554" y="274.37" text-anchor="start" fill="#7A7D86" font-family="Aptos, Calibri, 'Segoe UI', Candara, Arial, sans-serif" font-size="14" font-weight="550">Other</text>
<text data-cfx-role="visual-text" x="762" y="274.37" text-anchor="end" fill="#202235" font-family="Aptos, Calibri, 'Segoe UI', Candara, Arial, sans-serif" font-size="14" font-weight="800">6,000</text>
</g>
</svg>
