<svg xmlns="http://www.w3.org/2000/svg" id="cfx-visual-9a1bc6dd" width="820" height="340" viewBox="0 0 820 340" role="img" aria-labelledby="cfx-visual-9a1bc6dd-title cfx-visual-9a1bc6dd-desc" preserveAspectRatio="xMidYMid meet" shape-rendering="geometricPrecision" text-rendering="geometricPrecision" style="max-width:100%;height:auto;display:block">
<title id="cfx-visual-9a1bc6dd-title">Channel Share</title>
<desc id="cfx-visual-9a1bc6dd-desc">Static ChartForgeX visual block.</desc>
<defs>
<style>#cfx-visual-9a1bc6dd .cfx-guide-stroke,#cfx-visual-9a1bc6dd .cfx-premium-stroke{vector-effect:non-scaling-stroke;shape-rendering:geometricPrecision}#cfx-visual-9a1bc6dd text{text-rendering:geometricPrecision;-webkit-font-smoothing:antialiased}</style>
<linearGradient id="cfx-visual-9a1bc6dd-visualBackground" x1="0" x2="0" y1="0" y2="1"><stop offset="0%" stop-color="#F4F4F5" stop-opacity="1"/><stop offset="100%" stop-color="#EAEAEC" stop-opacity="1"/></linearGradient>
<linearGradient id="cfx-visual-9a1bc6dd-visualCard" x1="0" x2="0" y1="0" y2="1"><stop offset="0%" stop-color="#FFFFFF" stop-opacity="1"/><stop offset="100%" stop-color="#F7F7F8" stop-opacity="1"/></linearGradient>
<linearGradient id="cfx-visual-9a1bc6dd-visualPlot" x1="0" x2="0" y1="0" y2="1"><stop offset="0%" stop-color="#FFFFFF" stop-opacity="1"/><stop offset="100%" stop-color="#F7F7F8" stop-opacity="1"/></linearGradient>
<clipPath id="cfx-visual-9a1bc6dd-visualCardClip"><rect x="0" y="0" width="820" height="340" rx="18"/></clipPath>
</defs>
<rect width="100%" height="100%" fill="url(#cfx-visual-9a1bc6dd-visualBackground)"/>
<rect data-cfx-role="visual-card" class="cfx-guide-stroke" x="0.5" y="0.5" width="819" height="339" rx="17.5" fill="url(#cfx-visual-9a1bc6dd-visualCard)" stroke="#ECEEF2"/>
<rect data-cfx-role="visual-card-highlight" class="cfx-guide-stroke" x="1.5" y="1.5" width="817" height="337" rx="16.5" fill="none" stroke="#fff" stroke-opacity="0.42"/>
<circle data-cfx-role="segmented-metric-menu-dot" cx="776" cy="44" r="2.1" fill="#7A7D86"/>
<circle data-cfx-role="segmented-metric-menu-dot" cx="783" cy="44" r="2.1" fill="#7A7D86"/>
<circle data-cfx-role="segmented-metric-menu-dot" cx="790" cy="44" r="2.1" fill="#7A7D86"/>
<text data-cfx-role="visual-text" x="22" y="41.5" text-anchor="start" fill="#202235" font-family="Aptos, Calibri, 'Segoe UI', Candara, Arial, sans-serif" font-size="26" font-weight="800">Channel Share</text>
<text data-cfx-role="visual-text" x="22" y="66.5" text-anchor="start" fill="#7A7D86" font-family="Aptos, Calibri, 'Segoe UI', Candara, Arial, sans-serif" font-size="14" font-weight="500">Balanced source mix rendered as a closed-loop split.</text>
<line data-cfx-role="segmented-metric-header-divider" x1="22" y1="93" x2="798" y2="93" stroke="#DCDDE3"/>
<g data-cfx-role="segmented-metric-capsule-ring" data-cfx-total="100">
<path data-cfx-role="segmented-metric-capsule-track-shadow" d="M 86 157.35 L 96.54 157.35 L 107.081 157.35 L 117.621 157.35 L 128.162 157.35 L 138.702 157.35 L 149.242 157.35 L 159.783 157.35 L 170.323 157.35 L 180.863 157.35 L 191.404 157.35 L 201.944 157.35 L 212.485 157.35 L 223.025 157.35 L 233.565 157.35 L 244.106 157.35 L 254.646 157.35 L 265.186 157.35 L 275.727 157.35 L 286.267 157.35 L 296.808 157.35 L 307.348 157.35 L 317.888 157.35 L 328.429 157.35 L 338.969 157.35 L 349.509 157.35 L 360.05 157.35 L 370.59 157.35 L 381.131 157.35 L 391.671 157.35 L 402.211 157.35 L 412.752 157.35 L 423.292 157.35 L 433.832 157.35 L 444.355 157.764 L 454.579 160.24 L 464.04 164.842 L 472.3 171.357 L 478.979 179.485 L 483.769 188.851 L 486.449 199.024 L 486.896 209.534 L 485.09 219.898 L 481.113 229.637 L 475.148 238.303 L 467.472 245.496 L 458.436 250.885 L 448.459 254.221 L 438 255.35 L 427.46 255.35 L 416.919 255.35 L 406.379 255.35 L 395.838 255.35 L 385.298 255.35 L 374.758 255.35 L 364.217 255.35 L 353.677 255.35 L 343.137 255.35 L 332.596 255.35 L 322.056 255.35 L 311.515 255.35 L 300.975 255.35 L 290.435 255.35 L 279.894 255.35 L 269.354 255.35 L 258.814 255.35 L 248.273 255.35 L 237.733 255.35 L 227.192 255.35 L 216.652 255.35 L 206.112 255.35 L 195.571 255.35 L 185.031 255.35 L 174.491 255.35 L 163.95 255.35 L 153.41 255.35 L 142.869 255.35 L 132.329 255.35 L 121.789 255.35 L 111.248 255.35 L 100.708 255.35 L 90.168 255.35 L 79.645 254.936 L 69.421 252.46 L 59.96 247.858 L 51.7 241.343 L 45.021 233.215 L 40.231 223.849 L 37.551 213.676 L 37.104 203.166 L 38.91 192.802 L 42.887 183.063 L 48.852 174.397 L 56.528 167.204 L 65.564 161.815 L 75.541 158.479 L 86 157.35" fill="none" stroke="rgba(122,125,134,0.063)" stroke-width="32" stroke-linecap="round" stroke-linejoin="round"/>
<path data-cfx-role="segmented-metric-capsule-track" d="M 86 156.25 L 96.54 156.25 L 107.081 156.25 L 117.621 156.25 L 128.162 156.25 L 138.702 156.25 L 149.242 156.25 L 159.783 156.25 L 170.323 156.25 L 180.863 156.25 L 191.404 156.25 L 201.944 156.25 L 212.485 156.25 L 223.025 156.25 L 233.565 156.25 L 244.106 156.25 L 254.646 156.25 L 265.186 156.25 L 275.727 156.25 L 286.267 156.25 L 296.808 156.25 L 307.348 156.25 L 317.888 156.25 L 328.429 156.25 L 338.969 156.25 L 349.509 156.25 L 360.05 156.25 L 370.59 156.25 L 381.131 156.25 L 391.671 156.25 L 402.211 156.25 L 412.752 156.25 L 423.292 156.25 L 433.832 156.25 L 444.355 156.664 L 454.579 159.14 L 464.04 163.742 L 472.3 170.257 L 478.979 178.385 L 483.769 187.751 L 486.449 197.924 L 486.896 208.434 L 485.09 218.798 L 481.113 228.537 L 475.148 237.203 L 467.472 244.396 L 458.436 249.785 L 448.459 253.121 L 438 254.25 L 427.46 254.25 L 416.919 254.25 L 406.379 254.25 L 395.838 254.25 L 385.298 254.25 L 374.758 254.25 L 364.217 254.25 L 353.677 254.25 L 343.137 254.25 L 332.596 254.25 L 322.056 254.25 L 311.515 254.25 L 300.975 254.25 L 290.435 254.25 L 279.894 254.25 L 269.354 254.25 L 258.814 254.25 L 248.273 254.25 L 237.733 254.25 L 227.192 254.25 L 216.652 254.25 L 206.112 254.25 L 195.571 254.25 L 185.031 254.25 L 174.491 254.25 L 163.95 254.25 L 153.41 254.25 L 142.869 254.25 L 132.329 254.25 L 121.789 254.25 L 111.248 254.25 L 100.708 254.25 L 90.168 254.25 L 79.645 253.836 L 69.421 251.36 L 59.96 246.758 L 51.7 240.243 L 45.021 232.115 L 40.231 222.749 L 37.551 212.576 L 37.104 202.066 L 38.91 191.702 L 42.887 181.963 L 48.852 173.297 L 56.528 166.104 L 65.564 160.715 L 75.541 157.379 L 86 156.25" fill="none" stroke="#FFFFFF" stroke-width="30" stroke-linecap="round" stroke-linejoin="round"/>
<path data-cfx-role="segmented-metric-capsule-segment" data-cfx-label="Direct" data-cfx-value="40" data-cfx-share="0.4" data-cfx-gap="0.017" data-cfx-samples="96" d="M 102.8 156.25 L 106.666 156.25 L 110.532 156.25 L 114.398 156.25 L 118.265 156.25 L 122.131 156.25 L 125.997 156.25 L 129.863 156.25 L 133.729 156.25 L 137.595 156.25 L 141.462 156.25 L 145.328 156.25 L 149.194 156.25 L 153.06 156.25 L 156.926 156.25 L 160.792 156.25 L 164.658 156.25 L 168.525 156.25 L 172.391 156.25 L 176.257 156.25 L 180.123 156.25 L 183.989 156.25 L 187.855 156.25 L 191.721 156.25 L 195.588 156.25 L 199.454 156.25 L 203.32 156.25 L 207.186 156.25 L 211.052 156.25 L 214.918 156.25 L 218.785 156.25 L 222.651 156.25 L 226.517 156.25 L 230.383 156.25 L 234.249 156.25 L 238.115 156.25 L 241.981 156.25 L 245.848 156.25 L 249.714 156.25 L 253.58 156.25 L 257.446 156.25 L 261.312 156.25 L 265.178 156.25 L 269.044 156.25 L 272.911 156.25 L 276.777 156.25 L 280.643 156.25 L 284.509 156.25 L 288.375 156.25 L 292.241 156.25 L 296.108 156.25 L 299.974 156.25 L 303.84 156.25 L 307.706 156.25 L 311.572 156.25 L 315.438 156.25 L 319.304 156.25 L 323.171 156.25 L 327.037 156.25 L 330.903 156.25 L 334.769 156.25 L 338.635 156.25 L 342.501 156.25 L 346.367 156.25 L 350.234 156.25 L 354.1 156.25 L 357.966 156.25 L 361.832 156.25 L 365.698 156.25 L 369.564 156.25 L 373.431 156.25 L 377.297 156.25 L 381.163 156.25 L 385.029 156.25 L 388.895 156.25 L 392.761 156.25 L 396.627 156.25 L 400.494 156.25 L 404.36 156.25 L 408.226 156.25 L 412.092 156.25 L 415.958 156.25 L 419.824 156.25 L 423.69 156.25 L 427.557 156.25 L 431.423 156.25 L 435.289 156.25 L 439.155 156.264 L 443.012 156.507 L 446.839 157.054 L 450.61 157.9 L 454.303 159.042 L 457.894 160.47 L 461.362 162.178 L 464.684 164.153 L 467.84 166.384 L 470.811 168.857" fill="none" stroke="#36C47D" stroke-width="30" stroke-linecap="round" stroke-linejoin="round"/>
<text data-cfx-role="segmented-metric-capsule-label" x="288.375" y="160.73" text-anchor="middle" fill="#FFFFFF" stroke="rgba(15,23,42,0.439)" stroke-width="2.4" paint-order="stroke" font-family="Aptos, Calibri, 'Segoe UI', Candara, Arial, sans-serif" font-size="12" font-weight="850">40%</text>
<path data-cfx-role="segmented-metric-capsule-segment" data-cfx-label="Partner" data-cfx-value="35" data-cfx-share="0.35" data-cfx-gap="0.017" data-cfx-samples="96" d="M 486.439 197.86 L 486.83 201.175 L 486.994 204.51 L 486.931 207.848 L 486.641 211.173 L 486.124 214.472 L 485.385 217.727 L 484.425 220.925 L 483.25 224.05 L 481.865 227.087 L 480.276 230.023 L 478.491 232.845 L 476.518 235.538 L 474.366 238.09 L 472.046 240.49 L 469.567 242.727 L 466.942 244.789 L 464.182 246.668 L 461.301 248.355 L 458.312 249.842 L 455.229 251.121 L 452.065 252.188 L 448.836 253.037 L 445.557 253.664 L 442.243 254.066 L 438.909 254.242 L 435.57 254.25 L 432.231 254.25 L 428.892 254.25 L 425.553 254.25 L 422.214 254.25 L 418.875 254.25 L 415.535 254.25 L 412.196 254.25 L 408.857 254.25 L 405.518 254.25 L 402.179 254.25 L 398.84 254.25 L 395.501 254.25 L 392.161 254.25 L 388.822 254.25 L 385.483 254.25 L 382.144 254.25 L 378.805 254.25 L 375.466 254.25 L 372.127 254.25 L 368.788 254.25 L 365.448 254.25 L 362.109 254.25 L 358.77 254.25 L 355.431 254.25 L 352.092 254.25 L 348.753 254.25 L 345.414 254.25 L 342.075 254.25 L 338.735 254.25 L 335.396 254.25 L 332.057 254.25 L 328.718 254.25 L 325.379 254.25 L 322.04 254.25 L 318.701 254.25 L 315.361 254.25 L 312.022 254.25 L 308.683 254.25 L 305.344 254.25 L 302.005 254.25 L 298.666 254.25 L 295.327 254.25 L 291.988 254.25 L 288.648 254.25 L 285.309 254.25 L 281.97 254.25 L 278.631 254.25 L 275.292 254.25 L 271.953 254.25 L 268.614 254.25 L 265.274 254.25 L 261.935 254.25 L 258.596 254.25 L 255.257 254.25 L 251.918 254.25 L 248.579 254.25 L 245.24 254.25 L 241.901 254.25 L 238.561 254.25 L 235.222 254.25 L 231.883 254.25 L 228.544 254.25 L 225.205 254.25 L 221.866 254.25 L 218.527 254.25 L 215.188 254.25 L 211.848 254.25 L 208.509 254.25 L 205.17 254.25 L 201.831 254.25" fill="none" stroke="#FFB05C" stroke-width="30" stroke-linecap="round" stroke-linejoin="round"/>
<text data-cfx-role="segmented-metric-capsule-label" x="362.109" y="258.73" text-anchor="middle" fill="#0F172A" stroke="rgba(255,255,255,0.439)" stroke-width="2.4" paint-order="stroke" font-family="Aptos, Calibri, 'Segoe UI', Candara, Arial, sans-serif" font-size="12" font-weight="850">35%</text>
<path data-cfx-role="segmented-metric-capsule-segment" data-cfx-label="Referral" data-cfx-value="15" data-cfx-share="0.15" data-cfx-gap="0.015" data-cfx-samples="96" d="M 169.853 254.25 L 168.588 254.25 L 167.323 254.25 L 166.058 254.25 L 164.793 254.25 L 163.529 254.25 L 162.264 254.25 L 160.999 254.25 L 159.734 254.25 L 158.469 254.25 L 157.204 254.25 L 155.94 254.25 L 154.675 254.25 L 153.41 254.25 L 152.145 254.25 L 150.88 254.25 L 149.615 254.25 L 148.35 254.25 L 147.086 254.25 L 145.821 254.25 L 144.556 254.25 L 143.291 254.25 L 142.026 254.25 L 140.761 254.25 L 139.497 254.25 L 138.232 254.25 L 136.967 254.25 L 135.702 254.25 L 134.437 254.25 L 133.172 254.25 L 131.907 254.25 L 130.643 254.25 L 129.378 254.25 L 128.113 254.25 L 126.848 254.25 L 125.583 254.25 L 124.318 254.25 L 123.054 254.25 L 121.789 254.25 L 120.524 254.25 L 119.259 254.25 L 117.994 254.25 L 116.729 254.25 L 115.464 254.25 L 114.2 254.25 L 112.935 254.25 L 111.67 254.25 L 110.405 254.25 L 109.14 254.25 L 107.875 254.25 L 106.611 254.25 L 105.346 254.25 L 104.081 254.25 L 102.816 254.25 L 101.551 254.25 L 100.286 254.25 L 99.022 254.25 L 97.757 254.25 L 96.492 254.25 L 95.227 254.25 L 93.962 254.25 L 92.697 254.25 L 91.432 254.25 L 90.168 254.25 L 88.903 254.25 L 87.638 254.25 L 86.373 254.25 L 85.108 254.242 L 83.844 254.203 L 82.581 254.131 L 81.321 254.026 L 80.063 253.889 L 78.81 253.72 L 77.561 253.518 L 76.318 253.284 L 75.082 253.018 L 73.853 252.72 L 72.631 252.391 L 71.419 252.03 L 70.217 251.638 L 69.025 251.216 L 67.844 250.762 L 66.675 250.278 L 65.519 249.765 L 64.377 249.221 L 63.25 248.648 L 62.137 248.047 L 61.04 247.417 L 59.96 246.758 L 58.898 246.072 L 57.853 245.359 L 56.827 244.619 L 55.821 243.853 L 54.835 243.062 L 53.869 242.245 L 52.925 241.403 L 52.003 240.537" fill="none" stroke="#EF5DA8" stroke-width="30" stroke-linecap="round" stroke-linejoin="round"/>
<text data-cfx-role="segmented-metric-capsule-label" x="109.14" y="258.73" text-anchor="middle" fill="#FFFFFF" stroke="rgba(15,23,42,0.439)" stroke-width="2.4" paint-order="stroke" font-family="Aptos, Calibri, 'Segoe UI', Candara, Arial, sans-serif" font-size="12" font-weight="850">15%</text>
<path data-cfx-role="segmented-metric-capsule-segment" data-cfx-label="Other" data-cfx-value="10" data-cfx-share="0.1" data-cfx-gap="0.01" data-cfx-samples="96" d="M 39.015 219.156 L 38.782 218.345 L 38.564 217.531 L 38.36 216.713 L 38.169 215.891 L 37.993 215.067 L 37.832 214.239 L 37.684 213.409 L 37.551 212.576 L 37.432 211.742 L 37.327 210.905 L 37.237 210.067 L 37.162 209.227 L 37.1 208.386 L 37.054 207.544 L 37.021 206.701 L 37.004 205.858 L 37.001 205.015 L 37.012 204.172 L 37.038 203.329 L 37.078 202.487 L 37.133 201.645 L 37.202 200.805 L 37.286 199.966 L 37.384 199.128 L 37.496 198.293 L 37.623 197.459 L 37.765 196.628 L 37.92 195.799 L 38.09 194.973 L 38.274 194.15 L 38.472 193.33 L 38.684 192.514 L 38.91 191.702 L 39.15 190.894 L 39.404 190.09 L 39.672 189.29 L 39.954 188.495 L 40.249 187.705 L 40.557 186.921 L 40.879 186.141 L 41.215 185.368 L 41.564 184.6 L 41.926 183.839 L 42.301 183.083 L 42.689 182.335 L 43.089 181.593 L 43.503 180.858 L 43.929 180.13 L 44.367 179.41 L 44.818 178.697 L 45.281 177.993 L 45.756 177.296 L 46.243 176.608 L 46.742 175.928 L 47.252 175.256 L 47.774 174.594 L 48.307 173.941 L 48.852 173.297 L 49.407 172.662 L 49.973 172.037 L 50.55 171.422 L 51.137 170.817 L 51.735 170.223 L 52.343 169.638 L 52.961 169.064 L 53.588 168.501 L 54.225 167.949 L 54.872 167.408 L 55.528 166.878 L 56.193 166.359 L 56.866 165.852 L 57.549 165.356 L 58.239 164.872 L 58.938 164.401 L 59.645 163.941 L 60.36 163.494 L 61.082 163.059 L 61.812 162.636 L 62.549 162.226 L 63.293 161.829 L 64.043 161.445 L 64.8 161.073 L 65.564 160.715 L 66.333 160.37 L 67.108 160.038 L 67.889 159.72 L 68.675 159.415 L 69.466 159.124 L 70.263 158.846 L 71.063 158.582 L 71.869 158.332 L 72.678 158.096 L 73.492 157.873 L 74.309 157.665 L 75.129 157.471 L 75.953 157.291" fill="none" stroke="#6D83F2" stroke-width="30" stroke-linecap="round" stroke-linejoin="round"/>
<text data-cfx-role="segmented-metric-capsule-label" x="43.929" y="184.61" text-anchor="middle" fill="#FFFFFF" stroke="rgba(15,23,42,0.439)" stroke-width="2.4" paint-order="stroke" font-family="Aptos, Calibri, 'Segoe UI', Candara, Arial, sans-serif" font-size="12" font-weight="850">10%</text>
</g>
<g data-cfx-role="segmented-metric-capsule-legend">
<rect data-cfx-role="segmented-metric-capsule-swatch" x="532" y="158.09" width="12" height="12" rx="3" fill="#36C47D"/>
<text data-cfx-role="visual-text" x="554" y="172.37" text-anchor="start" fill="#7A7D86" font-family="Aptos, Calibri, 'Segoe UI', Candara, Arial, sans-serif" font-size="14" font-weight="550">Direct</text>
<text data-cfx-role="visual-text" x="762" y="172.37" text-anchor="end" fill="#202235" font-family="Aptos, Calibri, 'Segoe UI', Candara, Arial, sans-serif" font-size="14" font-weight="800">24,000</text>
<rect data-cfx-role="segmented-metric-capsule-swatch" x="532" y="192.09" width="12" height="12" rx="3" fill="#FFB05C"/>
<text data-cfx-role="visual-text" x="554" y="206.37" text-anchor="start" fill="#7A7D86" font-family="Aptos, Calibri, 'Segoe UI', Candara, Arial, sans-serif" font-size="14" font-weight="550">Partner</text>
<text data-cfx-role="visual-text" x="762" y="206.37" text-anchor="end" fill="#202235" font-family="Aptos, Calibri, 'Segoe UI', Candara, Arial, sans-serif" font-size="14" font-weight="800">21,000</text>
<rect data-cfx-role="segmented-metric-capsule-swatch" x="532" y="226.09" width="12" height="12" rx="3" fill="#EF5DA8"/>
<text data-cfx-role="visual-text" x="554" y="240.37" text-anchor="start" fill="#7A7D86" font-family="Aptos, Calibri, 'Segoe UI', Candara, Arial, sans-serif" font-size="14" font-weight="550">Referral</text>
<text data-cfx-role="visual-text" x="762" y="240.37" text-anchor="end" fill="#202235" font-family="Aptos, Calibri, 'Segoe UI', Candara, Arial, sans-serif" font-size="14" font-weight="800">9,000</text>
<rect data-cfx-role="segmented-metric-capsule-swatch" x="532" y="260.09" width="12" height="12" rx="3" fill="#6D83F2"/>
<text data-cfx-role="visual-text" x="554" y="274.37" text-anchor="start" fill="#7A7D86" font-family="Aptos, Calibri, 'Segoe UI', Candara, Arial, sans-serif" font-size="14" font-weight="550">Other</text>
<text data-cfx-role="visual-text" x="762" y="274.37" text-anchor="end" fill="#202235" font-family="Aptos, Calibri, 'Segoe UI', Candara, Arial, sans-serif" font-size="14" font-weight="800">6,000</text>
</g>
</svg>
