<svg xmlns="http://www.w3.org/2000/svg" width="1000" height="640" viewBox="0 0 1000 640" role="img" aria-labelledby="cfxc5fd01ac-title cfxc5fd01ac-desc" preserveAspectRatio="xMidYMid meet" style="max-width:100%;height:auto;display:block" shape-rendering="geometricPrecision" text-rendering="geometricPrecision" data-cfx-series-key-0="Categories" data-cfx-series-name-0="Categories" data-cfx-series-source-points-0="40" data-cfx-series-rendered-points-0="40">
<title id="cfxc5fd01ac-title">Dense radial legend</title>
<desc id="cfxc5fd01ac-desc">Dense radial legend with 1 data series: Categories.</desc>
<defs>
<style>#cfxc5fd01ac text{-webkit-font-smoothing:antialiased;text-rendering:geometricPrecision;font-synthesis:none} #cfxc5fd01ac .cfx-crisp-stroke,#cfxc5fd01ac .cfx-guide-stroke,#cfxc5fd01ac .cfx-premium-stroke{vector-effect:non-scaling-stroke;shape-rendering:geometricPrecision} #cfxc5fd01ac .cfx-guide-stroke{shape-rendering:crispEdges} #cfxc5fd01ac .cfx-interactive-region[data-cfx-role="dotted-map-connector"]{pointer-events:stroke} #cfxc5fd01ac .cfx-interactive-region:hover,#cfxc5fd01ac .cfx-interactive-region:focus{opacity:1;outline:none;stroke-width:var(--cfx-interactive-focus-stroke-width,2.2)}</style>
<filter id="cfxc5fd01ac-softShadow" x="-20%" y="-20%" width="140%" height="140%"><feDropShadow dx="0" dy="4" stdDeviation="6" flood-color="#0F172A" flood-opacity="0.044"/><feDropShadow dx="0" dy="14" stdDeviation="18" flood-color="#0F172A" flood-opacity="0.1"/></filter>
<linearGradient id="cfxc5fd01ac-cardSurface" x1="0" x2="0" y1="0" y2="1"><stop offset="0%" stop-color="#FFFFFF" stop-opacity="1"/><stop offset="100%" stop-color="#F7F7F8" stop-opacity="1"/></linearGradient>
<linearGradient id="cfxc5fd01ac-plotSurface" x1="0" x2="0" y1="0" y2="1"><stop offset="0%" stop-color="#F9FBFD" stop-opacity="1"/><stop offset="100%" stop-color="#F0F2F5" stop-opacity="1"/></linearGradient>
<clipPath id="cfxc5fd01ac-plotClip"><rect x="76" y="112" width="888" height="454" rx="8"/></clipPath>
<linearGradient id="cfxc5fd01ac-area0" x1="0" x2="0" y1="0" y2="1"><stop offset="0%" stop-color="#2563EB" stop-opacity="0.32"/><stop offset="100%" stop-color="#2563EB" stop-opacity="0.02"/></linearGradient>
<linearGradient id="cfxc5fd01ac-seriesFill0" x1="0" x2="0" y1="0" y2="1"><stop offset="0%" stop-color="#3F76ED" stop-opacity="1"/><stop offset="100%" stop-color="#235DDD" stop-opacity="0.94"/></linearGradient>
<linearGradient id="cfxc5fd01ac-sliceFill0" x1="0" x2="1" y1="0" y2="1"><stop offset="0%" stop-color="#2563EB" stop-opacity="1"/><stop offset="100%" stop-color="#2563EB" stop-opacity="0.78"/></linearGradient>
<linearGradient id="cfxc5fd01ac-sliceFill1" x1="0" x2="1" y1="0" y2="1"><stop offset="0%" stop-color="#0EA5E9" stop-opacity="1"/><stop offset="100%" stop-color="#0EA5E9" stop-opacity="0.78"/></linearGradient>
<linearGradient id="cfxc5fd01ac-sliceFill2" x1="0" x2="1" y1="0" y2="1"><stop offset="0%" stop-color="#10B981" stop-opacity="1"/><stop offset="100%" stop-color="#10B981" stop-opacity="0.78"/></linearGradient>
<linearGradient id="cfxc5fd01ac-sliceFill3" x1="0" x2="1" y1="0" y2="1"><stop offset="0%" stop-color="#F59E0B" stop-opacity="1"/><stop offset="100%" stop-color="#F59E0B" stop-opacity="0.78"/></linearGradient>
<linearGradient id="cfxc5fd01ac-sliceFill4" x1="0" x2="1" y1="0" y2="1"><stop offset="0%" stop-color="#EF4444" stop-opacity="1"/><stop offset="100%" stop-color="#EF4444" stop-opacity="0.78"/></linearGradient>
<linearGradient id="cfxc5fd01ac-sliceFill5" x1="0" x2="1" y1="0" y2="1"><stop offset="0%" stop-color="#8B5CF6" stop-opacity="1"/><stop offset="100%" stop-color="#8B5CF6" stop-opacity="0.78"/></linearGradient>
<linearGradient id="cfxc5fd01ac-sliceFill6" x1="0" x2="1" y1="0" y2="1"><stop offset="0%" stop-color="#EC4899" stop-opacity="1"/><stop offset="100%" stop-color="#EC4899" stop-opacity="0.78"/></linearGradient>
<linearGradient id="cfxc5fd01ac-sliceFill7" x1="0" x2="1" y1="0" y2="1"><stop offset="0%" stop-color="#14B8A6" stop-opacity="1"/><stop offset="100%" stop-color="#14B8A6" stop-opacity="0.78"/></linearGradient>
</defs>
<g id="cfxc5fd01ac">
<rect data-cfx-role="card-surface" x="14" y="14" width="972" height="612" rx="12" fill="url(#cfxc5fd01ac-cardSurface)" filter="url(#cfxc5fd01ac-softShadow)"/>
<rect data-cfx-role="card-border" class="cfx-crisp-stroke" x="14.5" y="14.5" width="971" height="611" rx="11.5" fill="none" stroke="rgba(148,163,184,0.361)"/>
<rect data-cfx-role="card-inner-highlight" class="cfx-crisp-stroke" x="15.5" y="15.5" width="969" height="609" rx="10.5" fill="none" stroke="#FFFFFF" stroke-opacity="0.42"/>
<rect x="76" y="112" width="888" height="454" rx="8" fill="url(#cfxc5fd01ac-plotSurface)"/>
<rect class="cfx-crisp-stroke" x="76.5" y="112.5" width="887" height="453" rx="7.5" fill="none" stroke="rgba(148,163,184,0.188)"/>
<rect data-cfx-role="plot-inner-highlight" class="cfx-crisp-stroke" x="77" y="113" width="886" height="452" rx="7" fill="none" stroke="#FFFFFF" stroke-opacity="0.32"/>
<text data-cfx-role="chart-title" x="40" y="52" fill="#0F172A" font-family="-apple-system, BlinkMacSystemFont, 'Segoe UI', Roboto, Helvetica, Arial, sans-serif" font-size="25" font-weight="750">Dense radial legend</text>
<text data-cfx-role="chart-subtitle" x="40" y="79" fill="#64748B" font-family="-apple-system, BlinkMacSystemFont, 'Segoe UI', Roboto, Helvetica, Arial, sans-serif" font-size="12.5" font-weight="400">All forty values remain visible as compact concentric rings while the legend stays bounded.</text>
<g data-cfx-role="radial-bar-chart" data-cfx-radius-scale="1" data-cfx-stroke-scale="1">
<path data-cfx-role="radial-bar-track" data-cfx-point="0" data-cfx-label="Slice 1" d="M 520 153.641 A 129.359 129.359 0 0 1 520 412.359 A 129.359 129.359 0 0 1 520 153.641" fill="none" stroke="rgba(148,163,184,0.275)" stroke-width="1.203" stroke-linecap="round" opacity="0.44"/>
<path data-cfx-role="radial-bar-ring" data-cfx-point="0" data-cfx-label="Slice 1" data-cfx-value="35" data-cfx-percent="0.35" role="img" aria-label="Slice 1: 35" d="M 520 153.641 A 129.359 129.359 0 0 1 624.653 359.035" fill="none" stroke="#2563EB" stroke-width="1.203" stroke-linecap="round"/>
<path data-cfx-role="radial-bar-track" data-cfx-point="1" data-cfx-label="Slice 2" d="M 520 155.324 A 127.676 127.676 0 0 1 520 410.676 A 127.676 127.676 0 0 1 520 155.324" fill="none" stroke="rgba(148,163,184,0.275)" stroke-width="1.203" stroke-linecap="round" opacity="0.44"/>
<path data-cfx-role="radial-bar-ring" data-cfx-point="1" data-cfx-label="Slice 2" data-cfx-value="48" data-cfx-percent="0.48" role="img" aria-label="Slice 2: 48" d="M 520 155.324 A 127.676 127.676 0 0 1 536.002 409.67" fill="none" stroke="#0EA5E9" stroke-width="1.203" stroke-linecap="round"/>
<path data-cfx-role="radial-bar-track" data-cfx-point="2" data-cfx-label="Slice 3" d="M 520 157.006 A 125.994 125.994 0 0 1 520 408.994 A 125.994 125.994 0 0 1 520 157.006" fill="none" stroke="rgba(148,163,184,0.275)" stroke-width="1.203" stroke-linecap="round" opacity="0.44"/>
<path data-cfx-role="radial-bar-ring" data-cfx-point="2" data-cfx-label="Slice 3" data-cfx-value="61" data-cfx-percent="0.61" role="img" aria-label="Slice 3: 61" d="M 520 157.006 A 125.994 125.994 0 1 1 439.688 380.08" fill="none" stroke="#10B981" stroke-width="1.203" stroke-linecap="round"/>
<path data-cfx-role="radial-bar-track" data-cfx-point="3" data-cfx-label="Slice 4" d="M 520 158.688 A 124.312 124.312 0 0 1 520 407.312 A 124.312 124.312 0 0 1 520 158.688" fill="none" stroke="rgba(148,163,184,0.275)" stroke-width="1.203" stroke-linecap="round" opacity="0.44"/>
<path data-cfx-role="radial-bar-ring" data-cfx-point="3" data-cfx-label="Slice 4" data-cfx-value="74" data-cfx-percent="0.74" role="img" aria-label="Slice 4: 74" d="M 520 158.688 A 124.312 124.312 0 1 1 395.933 290.806" fill="none" stroke="#F59E0B" stroke-width="1.203" stroke-linecap="round"/>
<path data-cfx-role="radial-bar-track" data-cfx-point="4" data-cfx-label="Slice 5" d="M 520 160.37 A 122.63 122.63 0 0 1 520 405.63 A 122.63 122.63 0 0 1 520 160.37" fill="none" stroke="rgba(148,163,184,0.275)" stroke-width="1.203" stroke-linecap="round" opacity="0.44"/>
<path data-cfx-role="radial-bar-ring" data-cfx-point="4" data-cfx-label="Slice 5" data-cfx-value="87" data-cfx-percent="0.87" role="img" aria-label="Slice 5: 87" d="M 520 160.37 A 122.63 122.63 0 1 1 430.607 199.054" fill="none" stroke="#EF4444" stroke-width="1.203" stroke-linecap="round"/>
<path data-cfx-role="radial-bar-track" data-cfx-point="5" data-cfx-label="Slice 6" d="M 520 162.052 A 120.948 120.948 0 0 1 520 403.948 A 120.948 120.948 0 0 1 520 162.052" fill="none" stroke="rgba(148,163,184,0.275)" stroke-width="1.203" stroke-linecap="round" opacity="0.44"/>
<path data-cfx-role="radial-bar-ring" data-cfx-point="5" data-cfx-label="Slice 6" data-cfx-value="39" data-cfx-percent="0.39" role="img" aria-label="Slice 6: 39" d="M 520 162.052 A 120.948 120.948 0 0 1 597.095 376.192" fill="none" stroke="#8B5CF6" stroke-width="1.203" stroke-linecap="round"/>
<path data-cfx-role="radial-bar-track" data-cfx-point="6" data-cfx-label="Slice 7" d="M 520 163.735 A 119.265 119.265 0 0 1 520 402.265 A 119.265 119.265 0 0 1 520 163.735" fill="none" stroke="rgba(148,163,184,0.275)" stroke-width="1.203" stroke-linecap="round" opacity="0.44"/>
<path data-cfx-role="radial-bar-ring" data-cfx-point="6" data-cfx-label="Slice 7" data-cfx-value="52" data-cfx-percent="0.52" role="img" aria-label="Slice 7: 52" d="M 520 163.735 A 119.265 119.265 0 1 1 505.052 401.325" fill="none" stroke="#EC4899" stroke-width="1.203" stroke-linecap="round"/>
<path data-cfx-role="radial-bar-track" data-cfx-point="7" data-cfx-label="Slice 8" d="M 520 165.417 A 117.583 117.583 0 0 1 520 400.583 A 117.583 117.583 0 0 1 520 165.417" fill="none" stroke="rgba(148,163,184,0.275)" stroke-width="1.203" stroke-linecap="round" opacity="0.44"/>
<path data-cfx-role="radial-bar-ring" data-cfx-point="7" data-cfx-label="Slice 8" data-cfx-value="65" data-cfx-percent="0.65" role="img" aria-label="Slice 8: 65" d="M 520 165.417 A 117.583 117.583 0 1 1 424.873 352.114" fill="none" stroke="#14B8A6" stroke-width="1.203" stroke-linecap="round"/>
<path data-cfx-role="radial-bar-track" data-cfx-point="8" data-cfx-label="Slice 9" d="M 520 167.099 A 115.901 115.901 0 0 1 520 398.901 A 115.901 115.901 0 0 1 520 167.099" fill="none" stroke="rgba(148,163,184,0.275)" stroke-width="1.203" stroke-linecap="round" opacity="0.44"/>
<path data-cfx-role="radial-bar-ring" data-cfx-point="8" data-cfx-label="Slice 9" data-cfx-value="78" data-cfx-percent="0.78" role="img" aria-label="Slice 9: 78" d="M 520 167.099 A 115.901 115.901 0 1 1 406.152 261.282" fill="none" stroke="#2563EB" stroke-width="1.203" stroke-linecap="round"/>
<path data-cfx-role="radial-bar-track" data-cfx-point="9" data-cfx-label="Slice 10" d="M 520 168.781 A 114.219 114.219 0 0 1 520 397.219 A 114.219 114.219 0 0 1 520 168.781" fill="none" stroke="rgba(148,163,184,0.275)" stroke-width="1.203" stroke-linecap="round" opacity="0.44"/>
<path data-cfx-role="radial-bar-ring" data-cfx-point="9" data-cfx-label="Slice 10" data-cfx-value="91" data-cfx-percent="0.91" role="img" aria-label="Slice 10: 91" d="M 520 168.781 A 114.219 114.219 0 1 1 458.799 186.562" fill="none" stroke="#0EA5E9" stroke-width="1.203" stroke-linecap="round"/>
<path data-cfx-role="radial-bar-track" data-cfx-point="10" data-cfx-label="Slice 11" d="M 520 170.464 A 112.536 112.536 0 0 1 520 395.536 A 112.536 112.536 0 0 1 520 170.464" fill="none" stroke="rgba(148,163,184,0.275)" stroke-width="1.203" stroke-linecap="round" opacity="0.44"/>
<path data-cfx-role="radial-bar-ring" data-cfx-point="10" data-cfx-label="Slice 11" data-cfx-value="43" data-cfx-percent="0.43" role="img" aria-label="Slice 11: 43" d="M 520 170.464 A 112.536 112.536 0 0 1 567.916 384.826" fill="none" stroke="#10B981" stroke-width="1.203" stroke-linecap="round"/>
<path data-cfx-role="radial-bar-track" data-cfx-point="11" data-cfx-label="Slice 12" d="M 520 172.146 A 110.854 110.854 0 0 1 520 393.854 A 110.854 110.854 0 0 1 520 172.146" fill="none" stroke="rgba(148,163,184,0.275)" stroke-width="1.203" stroke-linecap="round" opacity="0.44"/>
<path data-cfx-role="radial-bar-ring" data-cfx-point="11" data-cfx-label="Slice 12" data-cfx-value="56" data-cfx-percent="0.56" role="img" aria-label="Slice 12: 56" d="M 520 172.146 A 110.854 110.854 0 1 1 479.192 386.069" fill="none" stroke="#F59E0B" stroke-width="1.203" stroke-linecap="round"/>
<path data-cfx-role="radial-bar-track" data-cfx-point="12" data-cfx-label="Slice 13" d="M 520 173.828 A 109.172 109.172 0 0 1 520 392.172 A 109.172 109.172 0 0 1 520 173.828" fill="none" stroke="rgba(148,163,184,0.275)" stroke-width="1.203" stroke-linecap="round" opacity="0.44"/>
<path data-cfx-role="radial-bar-ring" data-cfx-point="12" data-cfx-label="Slice 13" data-cfx-value="69" data-cfx-percent="0.69" role="img" aria-label="Slice 13: 69" d="M 520 173.828 A 109.172 109.172 0 1 1 418.495 323.189" fill="none" stroke="#EF4444" stroke-width="1.203" stroke-linecap="round"/>
<path data-cfx-role="radial-bar-track" data-cfx-point="13" data-cfx-label="Slice 14" d="M 520 175.51 A 107.49 107.49 0 0 1 520 390.49 A 107.49 107.49 0 0 1 520 175.51" fill="none" stroke="rgba(148,163,184,0.275)" stroke-width="1.203" stroke-linecap="round" opacity="0.44"/>
<path data-cfx-role="radial-bar-ring" data-cfx-point="13" data-cfx-label="Slice 14" data-cfx-value="82" data-cfx-percent="0.82" role="img" aria-label="Slice 14: 82" d="M 520 175.51 A 107.49 107.49 0 1 1 422.741 237.233" fill="none" stroke="#8B5CF6" stroke-width="1.203" stroke-linecap="round"/>
<path data-cfx-role="radial-bar-track" data-cfx-point="14" data-cfx-label="Slice 15" d="M 520 177.193 A 105.807 105.807 0 0 1 520 388.807 A 105.807 105.807 0 0 1 520 177.193" fill="none" stroke="rgba(148,163,184,0.275)" stroke-width="1.203" stroke-linecap="round" opacity="0.44"/>
<path data-cfx-role="radial-bar-ring" data-cfx-point="14" data-cfx-label="Slice 15" data-cfx-value="95" data-cfx-percent="0.95" role="img" aria-label="Slice 15: 95" d="M 520 177.193 A 105.807 105.807 0 1 1 487.304 182.371" fill="none" stroke="#EC4899" stroke-width="1.203" stroke-linecap="round"/>
<path data-cfx-role="radial-bar-track" data-cfx-point="15" data-cfx-label="Slice 16" d="M 520 178.875 A 104.125 104.125 0 0 1 520 387.125 A 104.125 104.125 0 0 1 520 178.875" fill="none" stroke="rgba(148,163,184,0.275)" stroke-width="1.203" stroke-linecap="round" opacity="0.44"/>
<path data-cfx-role="radial-bar-ring" data-cfx-point="15" data-cfx-label="Slice 16" data-cfx-value="47" data-cfx-percent="0.47" role="img" aria-label="Slice 16: 47" d="M 520 178.875 A 104.125 104.125 0 0 1 539.511 385.281" fill="none" stroke="#14B8A6" stroke-width="1.203" stroke-linecap="round"/>
<path data-cfx-role="radial-bar-track" data-cfx-point="16" data-cfx-label="Slice 17" d="M 520 180.557 A 102.443 102.443 0 0 1 520 385.443 A 102.443 102.443 0 0 1 520 180.557" fill="none" stroke="rgba(148,163,184,0.275)" stroke-width="1.203" stroke-linecap="round" opacity="0.44"/>
<path data-cfx-role="radial-bar-ring" data-cfx-point="16" data-cfx-label="Slice 17" data-cfx-value="60" data-cfx-percent="0.6" role="img" aria-label="Slice 17: 60" d="M 520 180.557 A 102.443 102.443 0 1 1 459.786 365.878" fill="none" stroke="#2563EB" stroke-width="1.203" stroke-linecap="round"/>
<path data-cfx-role="radial-bar-track" data-cfx-point="17" data-cfx-label="Slice 18" d="M 520 182.239 A 100.761 100.761 0 0 1 520 383.761 A 100.761 100.761 0 0 1 520 182.239" fill="none" stroke="rgba(148,163,184,0.275)" stroke-width="1.203" stroke-linecap="round" opacity="0.44"/>
<path data-cfx-role="radial-bar-ring" data-cfx-point="17" data-cfx-label="Slice 18" data-cfx-value="73" data-cfx-percent="0.73" role="img" aria-label="Slice 18: 73" d="M 520 182.239 A 100.761 100.761 0 1 1 420.034 295.629" fill="none" stroke="#0EA5E9" stroke-width="1.203" stroke-linecap="round"/>
<path data-cfx-role="radial-bar-track" data-cfx-point="18" data-cfx-label="Slice 19" d="M 520 183.922 A 99.078 99.078 0 0 1 520 382.078 A 99.078 99.078 0 0 1 520 183.922" fill="none" stroke="rgba(148,163,184,0.275)" stroke-width="1.203" stroke-linecap="round" opacity="0.44"/>
<path data-cfx-role="radial-bar-ring" data-cfx-point="18" data-cfx-label="Slice 19" data-cfx-value="86" data-cfx-percent="0.86" role="img" aria-label="Slice 19: 86" d="M 520 183.922 A 99.078 99.078 0 1 1 443.659 219.845" fill="none" stroke="#10B981" stroke-width="1.203" stroke-linecap="round"/>
<path data-cfx-role="radial-bar-track" data-cfx-point="19" data-cfx-label="Slice 20" d="M 520 185.604 A 97.396 97.396 0 0 1 520 380.396 A 97.396 97.396 0 0 1 520 185.604" fill="none" stroke="rgba(148,163,184,0.275)" stroke-width="1.203" stroke-linecap="round" opacity="0.44"/>
<path data-cfx-role="radial-bar-ring" data-cfx-point="19" data-cfx-label="Slice 20" data-cfx-value="38" data-cfx-percent="0.38" role="img" aria-label="Slice 20: 38" d="M 520 185.604 A 97.396 97.396 0 0 1 586.672 353.999" fill="none" stroke="#F59E0B" stroke-width="1.203" stroke-linecap="round"/>
<path data-cfx-role="radial-bar-track" data-cfx-point="20" data-cfx-label="Slice 21" d="M 520 187.286 A 95.714 95.714 0 0 1 520 378.714 A 95.714 95.714 0 0 1 520 187.286" fill="none" stroke="rgba(148,163,184,0.275)" stroke-width="1.203" stroke-linecap="round" opacity="0.44"/>
<path data-cfx-role="radial-bar-ring" data-cfx-point="20" data-cfx-label="Slice 21" data-cfx-value="51" data-cfx-percent="0.51" role="img" aria-label="Slice 21: 51" d="M 520 187.286 A 95.714 95.714 0 1 1 513.99 378.525" fill="none" stroke="#EF4444" stroke-width="1.203" stroke-linecap="round"/>
<path data-cfx-role="radial-bar-track" data-cfx-point="21" data-cfx-label="Slice 22" d="M 520 188.968 A 94.032 94.032 0 0 1 520 377.032 A 94.032 94.032 0 0 1 520 188.968" fill="none" stroke="rgba(148,163,184,0.275)" stroke-width="1.203" stroke-linecap="round" opacity="0.44"/>
<path data-cfx-role="radial-bar-ring" data-cfx-point="21" data-cfx-label="Slice 22" data-cfx-value="64" data-cfx-percent="0.64" role="img" aria-label="Slice 22: 64" d="M 520 188.968 A 94.032 94.032 0 1 1 447.547 342.938" fill="none" stroke="#8B5CF6" stroke-width="1.203" stroke-linecap="round"/>
<path data-cfx-role="radial-bar-track" data-cfx-point="22" data-cfx-label="Slice 23" d="M 520 190.651 A 92.349 92.349 0 0 1 520 375.349 A 92.349 92.349 0 0 1 520 190.651" fill="none" stroke="rgba(148,163,184,0.275)" stroke-width="1.203" stroke-linecap="round" opacity="0.44"/>
<path data-cfx-role="radial-bar-ring" data-cfx-point="22" data-cfx-label="Slice 23" data-cfx-value="77" data-cfx-percent="0.77" role="img" aria-label="Slice 23: 77" d="M 520 190.651 A 92.349 92.349 0 1 1 428.379 271.426" fill="none" stroke="#EC4899" stroke-width="1.203" stroke-linecap="round"/>
<path data-cfx-role="radial-bar-track" data-cfx-point="23" data-cfx-label="Slice 24" d="M 520 192.333 A 90.667 90.667 0 0 1 520 373.667 A 90.667 90.667 0 0 1 520 192.333" fill="none" stroke="rgba(148,163,184,0.275)" stroke-width="1.203" stroke-linecap="round" opacity="0.44"/>
<path data-cfx-role="radial-bar-ring" data-cfx-point="23" data-cfx-label="Slice 24" data-cfx-value="90" data-cfx-percent="0.9" role="img" aria-label="Slice 24: 90" d="M 520 192.333 A 90.667 90.667 0 1 1 466.707 209.649" fill="none" stroke="#14B8A6" stroke-width="1.203" stroke-linecap="round"/>
<path data-cfx-role="radial-bar-track" data-cfx-point="24" data-cfx-label="Slice 25" d="M 520 194.015 A 88.985 88.985 0 0 1 520 371.985 A 88.985 88.985 0 0 1 520 194.015" fill="none" stroke="rgba(148,163,184,0.275)" stroke-width="1.203" stroke-linecap="round" opacity="0.44"/>
<path data-cfx-role="radial-bar-ring" data-cfx-point="24" data-cfx-label="Slice 25" data-cfx-value="42" data-cfx-percent="0.42" role="img" aria-label="Slice 25: 42" d="M 520 194.015 A 88.985 88.985 0 0 1 562.869 360.978" fill="none" stroke="#2563EB" stroke-width="1.203" stroke-linecap="round"/>
<path data-cfx-role="radial-bar-track" data-cfx-point="25" data-cfx-label="Slice 26" d="M 520 195.697 A 87.303 87.303 0 0 1 520 370.303 A 87.303 87.303 0 0 1 520 195.697" fill="none" stroke="rgba(148,163,184,0.275)" stroke-width="1.203" stroke-linecap="round" opacity="0.44"/>
<path data-cfx-role="radial-bar-ring" data-cfx-point="25" data-cfx-label="Slice 26" data-cfx-value="55" data-cfx-percent="0.55" role="img" aria-label="Slice 26: 55" d="M 520 195.697 A 87.303 87.303 0 1 1 493.022 366.03" fill="none" stroke="#0EA5E9" stroke-width="1.203" stroke-linecap="round"/>
<path data-cfx-role="radial-bar-track" data-cfx-point="26" data-cfx-label="Slice 27" d="M 520 197.38 A 85.62 85.62 0 0 1 520 368.62 A 85.62 85.62 0 0 1 520 197.38" fill="none" stroke="rgba(148,163,184,0.275)" stroke-width="1.203" stroke-linecap="round" opacity="0.44"/>
<path data-cfx-role="radial-bar-ring" data-cfx-point="26" data-cfx-label="Slice 27" data-cfx-value="68" data-cfx-percent="0.68" role="img" aria-label="Slice 27: 68" d="M 520 197.38 A 85.62 85.62 0 1 1 442.528 319.455" fill="none" stroke="#10B981" stroke-width="1.203" stroke-linecap="round"/>
<path data-cfx-role="radial-bar-track" data-cfx-point="27" data-cfx-label="Slice 28" d="M 520 199.062 A 83.938 83.938 0 0 1 520 366.938 A 83.938 83.938 0 0 1 520 199.062" fill="none" stroke="rgba(148,163,184,0.275)" stroke-width="1.203" stroke-linecap="round" opacity="0.44"/>
<path data-cfx-role="radial-bar-ring" data-cfx-point="27" data-cfx-label="Slice 28" data-cfx-value="81" data-cfx-percent="0.81" role="img" aria-label="Slice 28: 81" d="M 520 199.062 A 83.938 83.938 0 1 1 441.956 252.1" fill="none" stroke="#F59E0B" stroke-width="1.203" stroke-linecap="round"/>
<path data-cfx-role="radial-bar-track" data-cfx-point="28" data-cfx-label="Slice 29" d="M 520 200.744 A 82.256 82.256 0 0 1 520 365.256 A 82.256 82.256 0 0 1 520 200.744" fill="none" stroke="rgba(148,163,184,0.275)" stroke-width="1.203" stroke-linecap="round" opacity="0.44"/>
<path data-cfx-role="radial-bar-ring" data-cfx-point="28" data-cfx-label="Slice 29" data-cfx-value="94" data-cfx-percent="0.94" role="img" aria-label="Slice 29: 94" d="M 520 200.744 A 82.256 82.256 0 1 1 489.72 206.52" fill="none" stroke="#EF4444" stroke-width="1.203" stroke-linecap="round"/>
<path data-cfx-role="radial-bar-track" data-cfx-point="29" data-cfx-label="Slice 30" d="M 520 202.426 A 80.574 80.574 0 0 1 520 363.574 A 80.574 80.574 0 0 1 520 202.426" fill="none" stroke="rgba(148,163,184,0.275)" stroke-width="1.203" stroke-linecap="round" opacity="0.44"/>
<path data-cfx-role="radial-bar-ring" data-cfx-point="29" data-cfx-label="Slice 30" data-cfx-value="46" data-cfx-percent="0.46" role="img" aria-label="Slice 30: 46" d="M 520 202.426 A 80.574 80.574 0 0 1 540.038 361.042" fill="none" stroke="#8B5CF6" stroke-width="1.203" stroke-linecap="round"/>
<path data-cfx-role="radial-bar-track" data-cfx-point="30" data-cfx-label="Slice 31" d="M 520 204.109 A 78.891 78.891 0 0 1 520 361.891 A 78.891 78.891 0 0 1 520 204.109" fill="none" stroke="rgba(148,163,184,0.275)" stroke-width="1.203" stroke-linecap="round" opacity="0.44"/>
<path data-cfx-role="radial-bar-ring" data-cfx-point="30" data-cfx-label="Slice 31" data-cfx-value="59" data-cfx-percent="0.59" role="img" aria-label="Slice 31: 59" d="M 520 204.109 A 78.891 78.891 0 1 1 477.728 349.61" fill="none" stroke="#EC4899" stroke-width="1.203" stroke-linecap="round"/>
<path data-cfx-role="radial-bar-track" data-cfx-point="31" data-cfx-label="Slice 32" d="M 520 205.791 A 77.209 77.209 0 0 1 520 360.209 A 77.209 77.209 0 0 1 520 205.791" fill="none" stroke="rgba(148,163,184,0.275)" stroke-width="1.203" stroke-linecap="round" opacity="0.44"/>
<path data-cfx-role="radial-bar-ring" data-cfx-point="31" data-cfx-label="Slice 32" data-cfx-value="72" data-cfx-percent="0.72" role="img" aria-label="Slice 32: 72" d="M 520 205.791 A 77.209 77.209 0 1 1 444.158 297.468" fill="none" stroke="#14B8A6" stroke-width="1.203" stroke-linecap="round"/>
<path data-cfx-role="radial-bar-track" data-cfx-point="32" data-cfx-label="Slice 33" d="M 520 207.473 A 75.527 75.527 0 0 1 520 358.527 A 75.527 75.527 0 0 1 520 207.473" fill="none" stroke="rgba(148,163,184,0.275)" stroke-width="1.203" stroke-linecap="round" opacity="0.44"/>
<path data-cfx-role="radial-bar-ring" data-cfx-point="32" data-cfx-label="Slice 33" data-cfx-value="85" data-cfx-percent="0.85" role="img" aria-label="Slice 33: 85" d="M 520 207.473 A 75.527 75.527 0 1 1 458.897 238.606" fill="none" stroke="#2563EB" stroke-width="1.203" stroke-linecap="round"/>
<path data-cfx-role="radial-bar-track" data-cfx-point="33" data-cfx-label="Slice 34" d="M 520 209.155 A 73.845 73.845 0 0 1 520 356.845 A 73.845 73.845 0 0 1 520 209.155" fill="none" stroke="rgba(148,163,184,0.275)" stroke-width="1.203" stroke-linecap="round" opacity="0.44"/>
<path data-cfx-role="radial-bar-ring" data-cfx-point="33" data-cfx-label="Slice 34" data-cfx-value="37" data-cfx-percent="0.37" role="img" aria-label="Slice 34: 37" d="M 520 209.155 A 73.845 73.845 0 0 1 573.83 333.55" fill="none" stroke="#0EA5E9" stroke-width="1.203" stroke-linecap="round"/>
<path data-cfx-role="radial-bar-track" data-cfx-point="34" data-cfx-label="Slice 35" d="M 520 210.838 A 72.162 72.162 0 0 1 520 355.162 A 72.162 72.162 0 0 1 520 210.838" fill="none" stroke="rgba(148,163,184,0.275)" stroke-width="1.203" stroke-linecap="round" opacity="0.44"/>
<path data-cfx-role="radial-bar-ring" data-cfx-point="34" data-cfx-label="Slice 35" data-cfx-value="50" data-cfx-percent="0.5" role="img" aria-label="Slice 35: 50" d="M 520 210.838 A 72.162 72.162 0 0 1 520 355.162" fill="none" stroke="#10B981" stroke-width="1.203" stroke-linecap="round"/>
<path data-cfx-role="radial-bar-track" data-cfx-point="35" data-cfx-label="Slice 36" d="M 520 212.52 A 70.48 70.48 0 0 1 520 353.48 A 70.48 70.48 0 0 1 520 212.52" fill="none" stroke="rgba(148,163,184,0.275)" stroke-width="1.203" stroke-linecap="round" opacity="0.44"/>
<path data-cfx-role="radial-bar-ring" data-cfx-point="35" data-cfx-label="Slice 36" data-cfx-value="63" data-cfx-percent="0.63" role="img" aria-label="Slice 36: 63" d="M 520 212.52 A 70.48 70.48 0 1 1 468.622 331.247" fill="none" stroke="#F59E0B" stroke-width="1.203" stroke-linecap="round"/>
<path data-cfx-role="radial-bar-track" data-cfx-point="36" data-cfx-label="Slice 37" d="M 520 214.202 A 68.798 68.798 0 0 1 520 351.798 A 68.798 68.798 0 0 1 520 214.202" fill="none" stroke="rgba(148,163,184,0.275)" stroke-width="1.203" stroke-linecap="round" opacity="0.44"/>
<path data-cfx-role="radial-bar-ring" data-cfx-point="36" data-cfx-label="Slice 37" data-cfx-value="76" data-cfx-percent="0.76" role="img" aria-label="Slice 37: 76" d="M 520 214.202 A 68.798 68.798 0 1 1 451.338 278.68" fill="none" stroke="#EF4444" stroke-width="1.203" stroke-linecap="round"/>
<path data-cfx-role="radial-bar-track" data-cfx-point="37" data-cfx-label="Slice 38" d="M 520 215.884 A 67.116 67.116 0 0 1 520 350.116 A 67.116 67.116 0 0 1 520 215.884" fill="none" stroke="rgba(148,163,184,0.275)" stroke-width="1.203" stroke-linecap="round" opacity="0.44"/>
<path data-cfx-role="radial-bar-ring" data-cfx-point="37" data-cfx-label="Slice 38" data-cfx-value="89" data-cfx-percent="0.89" role="img" aria-label="Slice 38: 89" d="M 520 215.884 A 67.116 67.116 0 1 1 477.219 231.286" fill="none" stroke="#8B5CF6" stroke-width="1.203" stroke-linecap="round"/>
<path data-cfx-role="radial-bar-track" data-cfx-point="38" data-cfx-label="Slice 39" d="M 520 217.566 A 65.434 65.434 0 0 1 520 348.434 A 65.434 65.434 0 0 1 520 217.566" fill="none" stroke="rgba(148,163,184,0.275)" stroke-width="1.203" stroke-linecap="round" opacity="0.44"/>
<path data-cfx-role="radial-bar-ring" data-cfx-point="38" data-cfx-label="Slice 39" data-cfx-value="41" data-cfx-percent="0.41" role="img" aria-label="Slice 39: 41" d="M 520 217.566 A 65.434 65.434 0 0 1 555.061 338.247" fill="none" stroke="#EC4899" stroke-width="1.203" stroke-linecap="round"/>
<path data-cfx-role="radial-bar-track" data-cfx-point="39" data-cfx-label="Slice 40" d="M 520 219.249 A 63.751 63.751 0 0 1 520 346.751 A 63.751 63.751 0 0 1 520 219.249" fill="none" stroke="rgba(148,163,184,0.275)" stroke-width="1.203" stroke-linecap="round" opacity="0.44"/>
<path data-cfx-role="radial-bar-ring" data-cfx-point="39" data-cfx-label="Slice 40" data-cfx-value="54" data-cfx-percent="0.54" role="img" aria-label="Slice 40: 54" d="M 520 219.249 A 63.751 63.751 0 1 1 504.146 344.748" fill="none" stroke="#14B8A6" stroke-width="1.203" stroke-linecap="round"/>
<circle data-cfx-role="radial-bar-center" cx="520" cy="283" r="61.15" fill="#FFFFFF" fill-opacity="0.86" stroke="rgba(148,163,184,0.275)" stroke-opacity="0.2"/>
<text data-cfx-role="radial-bar-total" x="520" y="274.693" text-anchor="middle" dominant-baseline="middle" fill="#0F172A" stroke="#FFFFFF" stroke-width="3.2" paint-order="stroke fill" stroke-linejoin="round" font-family="-apple-system, BlinkMacSystemFont, 'Segoe UI', Roboto, Helvetica, Arial, sans-serif" font-size="33" font-weight="850">64.33</text>
<text data-cfx-role="radial-bar-title" x="520" y="302.558" text-anchor="middle" dominant-baseline="middle" fill="#64748B" stroke="#FFFFFF" stroke-width="2.4" paint-order="stroke fill" stroke-linejoin="round" font-family="-apple-system, BlinkMacSystemFont, 'Segoe UI', Roboto, Helvetica, Arial, sans-serif" font-size="10.5" font-weight="700">Categories</text>
<g data-cfx-role="radial-bar-legend" data-cfx-position="Bottom">
<circle data-cfx-role="radial-bar-legend-marker" data-cfx-point="0" cx="129.04" cy="480" r="4.5" fill="#2563EB"/>
<text data-cfx-role="radial-bar-legend-label" data-cfx-point="0" x="142.04" y="484" fill="#0F172A" font-family="-apple-system, BlinkMacSystemFont, 'Segoe UI', Roboto, Helvetica, Arial, sans-serif" font-size="11.5" font-weight="700">Slice 1</text>
<text data-cfx-role="radial-bar-legend-value" data-cfx-point="0" x="216.78" y="484" text-anchor="end" fill="#64748B" font-family="-apple-system, BlinkMacSystemFont, 'Segoe UI', Roboto, Helvetica, Arial, sans-serif" font-size="11.5" font-weight="700">35</text>
<circle data-cfx-role="radial-bar-legend-marker" data-cfx-point="1" cx="226.78" cy="480" r="4.5" fill="#0EA5E9"/>
<text data-cfx-role="radial-bar-legend-label" data-cfx-point="1" x="239.78" y="484" fill="#0F172A" font-family="-apple-system, BlinkMacSystemFont, 'Segoe UI', Roboto, Helvetica, Arial, sans-serif" font-size="11.5" font-weight="700">Slice 2</text>
<text data-cfx-role="radial-bar-legend-value" data-cfx-point="1" x="314.52" y="484" text-anchor="end" fill="#64748B" font-family="-apple-system, BlinkMacSystemFont, 'Segoe UI', Roboto, Helvetica, Arial, sans-serif" font-size="11.5" font-weight="700">48</text>
<circle data-cfx-role="radial-bar-legend-marker" data-cfx-point="2" cx="324.52" cy="480" r="4.5" fill="#10B981"/>
<text data-cfx-role="radial-bar-legend-label" data-cfx-point="2" x="337.52" y="484" fill="#0F172A" font-family="-apple-system, BlinkMacSystemFont, 'Segoe UI', Roboto, Helvetica, Arial, sans-serif" font-size="11.5" font-weight="700">Slice 3</text>
<text data-cfx-role="radial-bar-legend-value" data-cfx-point="2" x="412.26" y="484" text-anchor="end" fill="#64748B" font-family="-apple-system, BlinkMacSystemFont, 'Segoe UI', Roboto, Helvetica, Arial, sans-serif" font-size="11.5" font-weight="700">61</text>
<circle data-cfx-role="radial-bar-legend-marker" data-cfx-point="3" cx="422.26" cy="480" r="4.5" fill="#F59E0B"/>
<text data-cfx-role="radial-bar-legend-label" data-cfx-point="3" x="435.26" y="484" fill="#0F172A" font-family="-apple-system, BlinkMacSystemFont, 'Segoe UI', Roboto, Helvetica, Arial, sans-serif" font-size="11.5" font-weight="700">Slice 4</text>
<text data-cfx-role="radial-bar-legend-value" data-cfx-point="3" x="510" y="484" text-anchor="end" fill="#64748B" font-family="-apple-system, BlinkMacSystemFont, 'Segoe UI', Roboto, Helvetica, Arial, sans-serif" font-size="11.5" font-weight="700">74</text>
<circle data-cfx-role="radial-bar-legend-marker" data-cfx-point="4" cx="520" cy="480" r="4.5" fill="#EF4444"/>
<text data-cfx-role="radial-bar-legend-label" data-cfx-point="4" x="533" y="484" fill="#0F172A" font-family="-apple-system, BlinkMacSystemFont, 'Segoe UI', Roboto, Helvetica, Arial, sans-serif" font-size="11.5" font-weight="700">Slice 5</text>
<text data-cfx-role="radial-bar-legend-value" data-cfx-point="4" x="607.74" y="484" text-anchor="end" fill="#64748B" font-family="-apple-system, BlinkMacSystemFont, 'Segoe UI', Roboto, Helvetica, Arial, sans-serif" font-size="11.5" font-weight="700">87</text>
<circle data-cfx-role="radial-bar-legend-marker" data-cfx-point="5" cx="617.74" cy="480" r="4.5" fill="#8B5CF6"/>
<text data-cfx-role="radial-bar-legend-label" data-cfx-point="5" x="630.74" y="484" fill="#0F172A" font-family="-apple-system, BlinkMacSystemFont, 'Segoe UI', Roboto, Helvetica, Arial, sans-serif" font-size="11.5" font-weight="700">Slice 6</text>
<text data-cfx-role="radial-bar-legend-value" data-cfx-point="5" x="705.48" y="484" text-anchor="end" fill="#64748B" font-family="-apple-system, BlinkMacSystemFont, 'Segoe UI', Roboto, Helvetica, Arial, sans-serif" font-size="11.5" font-weight="700">39</text>
<circle data-cfx-role="radial-bar-legend-marker" data-cfx-point="6" cx="715.48" cy="480" r="4.5" fill="#EC4899"/>
<text data-cfx-role="radial-bar-legend-label" data-cfx-point="6" x="728.48" y="484" fill="#0F172A" font-family="-apple-system, BlinkMacSystemFont, 'Segoe UI', Roboto, Helvetica, Arial, sans-serif" font-size="11.5" font-weight="700">Slice 7</text>
<text data-cfx-role="radial-bar-legend-value" data-cfx-point="6" x="803.22" y="484" text-anchor="end" fill="#64748B" font-family="-apple-system, BlinkMacSystemFont, 'Segoe UI', Roboto, Helvetica, Arial, sans-serif" font-size="11.5" font-weight="700">52</text>
<circle data-cfx-role="radial-bar-legend-marker" data-cfx-point="7" cx="813.22" cy="480" r="4.5" fill="#14B8A6"/>
<text data-cfx-role="radial-bar-legend-label" data-cfx-point="7" x="826.22" y="484" fill="#0F172A" font-family="-apple-system, BlinkMacSystemFont, 'Segoe UI', Roboto, Helvetica, Arial, sans-serif" font-size="11.5" font-weight="700">Slice 8</text>
<text data-cfx-role="radial-bar-legend-value" data-cfx-point="7" x="900.96" y="484" text-anchor="end" fill="#64748B" font-family="-apple-system, BlinkMacSystemFont, 'Segoe UI', Roboto, Helvetica, Arial, sans-serif" font-size="11.5" font-weight="700">65</text>
<circle data-cfx-role="radial-bar-legend-marker" data-cfx-point="8" cx="157.9" cy="500" r="4.5" fill="#2563EB"/>
<text data-cfx-role="radial-bar-legend-label" data-cfx-point="8" x="170.9" y="504" fill="#0F172A" font-family="-apple-system, BlinkMacSystemFont, 'Segoe UI', Roboto, Helvetica, Arial, sans-serif" font-size="11.5" font-weight="700">Slice 9</text>
<text data-cfx-role="radial-bar-legend-value" data-cfx-point="8" x="245.64" y="504" text-anchor="end" fill="#64748B" font-family="-apple-system, BlinkMacSystemFont, 'Segoe UI', Roboto, Helvetica, Arial, sans-serif" font-size="11.5" font-weight="700">78</text>
<circle data-cfx-role="radial-bar-legend-marker" data-cfx-point="9" cx="255.64" cy="500" r="4.5" fill="#0EA5E9"/>
<text data-cfx-role="radial-bar-legend-label" data-cfx-point="9" x="268.64" y="504" fill="#0F172A" font-family="-apple-system, BlinkMacSystemFont, 'Segoe UI', Roboto, Helvetica, Arial, sans-serif" font-size="11.5" font-weight="700">Slice 10</text>
<text data-cfx-role="radial-bar-legend-value" data-cfx-point="9" x="350.05" y="504" text-anchor="end" fill="#64748B" font-family="-apple-system, BlinkMacSystemFont, 'Segoe UI', Roboto, Helvetica, Arial, sans-serif" font-size="11.5" font-weight="700">91</text>
<circle data-cfx-role="radial-bar-legend-marker" data-cfx-point="10" cx="360.05" cy="500" r="4.5" fill="#10B981"/>
<text data-cfx-role="radial-bar-legend-label" data-cfx-point="10" x="373.05" y="504" fill="#0F172A" font-family="-apple-system, BlinkMacSystemFont, 'Segoe UI', Roboto, Helvetica, Arial, sans-serif" font-size="11.5" font-weight="700">Slice 11</text>
<text data-cfx-role="radial-bar-legend-value" data-cfx-point="10" x="454.46" y="504" text-anchor="end" fill="#64748B" font-family="-apple-system, BlinkMacSystemFont, 'Segoe UI', Roboto, Helvetica, Arial, sans-serif" font-size="11.5" font-weight="700">43</text>
<circle data-cfx-role="radial-bar-legend-marker" data-cfx-point="11" cx="464.46" cy="500" r="4.5" fill="#F59E0B"/>
<text data-cfx-role="radial-bar-legend-label" data-cfx-point="11" x="477.46" y="504" fill="#0F172A" font-family="-apple-system, BlinkMacSystemFont, 'Segoe UI', Roboto, Helvetica, Arial, sans-serif" font-size="11.5" font-weight="700">Slice 12</text>
<text data-cfx-role="radial-bar-legend-value" data-cfx-point="11" x="558.87" y="504" text-anchor="end" fill="#64748B" font-family="-apple-system, BlinkMacSystemFont, 'Segoe UI', Roboto, Helvetica, Arial, sans-serif" font-size="11.5" font-weight="700">56</text>
<circle data-cfx-role="radial-bar-legend-marker" data-cfx-point="12" cx="568.87" cy="500" r="4.5" fill="#EF4444"/>
<text data-cfx-role="radial-bar-legend-label" data-cfx-point="12" x="581.87" y="504" fill="#0F172A" font-family="-apple-system, BlinkMacSystemFont, 'Segoe UI', Roboto, Helvetica, Arial, sans-serif" font-size="11.5" font-weight="700">Slice 13</text>
<text data-cfx-role="radial-bar-legend-value" data-cfx-point="12" x="663.28" y="504" text-anchor="end" fill="#64748B" font-family="-apple-system, BlinkMacSystemFont, 'Segoe UI', Roboto, Helvetica, Arial, sans-serif" font-size="11.5" font-weight="700">69</text>
<circle data-cfx-role="radial-bar-legend-marker" data-cfx-point="13" cx="673.28" cy="500" r="4.5" fill="#8B5CF6"/>
<text data-cfx-role="radial-bar-legend-label" data-cfx-point="13" x="686.28" y="504" fill="#0F172A" font-family="-apple-system, BlinkMacSystemFont, 'Segoe UI', Roboto, Helvetica, Arial, sans-serif" font-size="11.5" font-weight="700">Slice 14</text>
<text data-cfx-role="radial-bar-legend-value" data-cfx-point="13" x="767.69" y="504" text-anchor="end" fill="#64748B" font-family="-apple-system, BlinkMacSystemFont, 'Segoe UI', Roboto, Helvetica, Arial, sans-serif" font-size="11.5" font-weight="700">82</text>
<circle data-cfx-role="radial-bar-legend-marker" data-cfx-point="14" cx="777.69" cy="500" r="4.5" fill="#EC4899"/>
<text data-cfx-role="radial-bar-legend-label" data-cfx-point="14" x="790.69" y="504" fill="#0F172A" font-family="-apple-system, BlinkMacSystemFont, 'Segoe UI', Roboto, Helvetica, Arial, sans-serif" font-size="11.5" font-weight="700">Slice 15</text>
<text data-cfx-role="radial-bar-legend-value" data-cfx-point="14" x="872.1" y="504" text-anchor="end" fill="#64748B" font-family="-apple-system, BlinkMacSystemFont, 'Segoe UI', Roboto, Helvetica, Arial, sans-serif" font-size="11.5" font-weight="700">95</text>
<circle data-cfx-role="radial-bar-legend-marker" data-cfx-point="15" cx="154.565" cy="520" r="4.5" fill="#14B8A6"/>
<text data-cfx-role="radial-bar-legend-label" data-cfx-point="15" x="167.565" y="524" fill="#0F172A" font-family="-apple-system, BlinkMacSystemFont, 'Segoe UI', Roboto, Helvetica, Arial, sans-serif" font-size="11.5" font-weight="700">Slice 16</text>
<text data-cfx-role="radial-bar-legend-value" data-cfx-point="15" x="248.975" y="524" text-anchor="end" fill="#64748B" font-family="-apple-system, BlinkMacSystemFont, 'Segoe UI', Roboto, Helvetica, Arial, sans-serif" font-size="11.5" font-weight="700">47</text>
<circle data-cfx-role="radial-bar-legend-marker" data-cfx-point="16" cx="258.975" cy="520" r="4.5" fill="#2563EB"/>
<text data-cfx-role="radial-bar-legend-label" data-cfx-point="16" x="271.975" y="524" fill="#0F172A" font-family="-apple-system, BlinkMacSystemFont, 'Segoe UI', Roboto, Helvetica, Arial, sans-serif" font-size="11.5" font-weight="700">Slice 17</text>
<text data-cfx-role="radial-bar-legend-value" data-cfx-point="16" x="353.385" y="524" text-anchor="end" fill="#64748B" font-family="-apple-system, BlinkMacSystemFont, 'Segoe UI', Roboto, Helvetica, Arial, sans-serif" font-size="11.5" font-weight="700">60</text>
<circle data-cfx-role="radial-bar-legend-marker" data-cfx-point="17" cx="363.385" cy="520" r="4.5" fill="#0EA5E9"/>
<text data-cfx-role="radial-bar-legend-label" data-cfx-point="17" x="376.385" y="524" fill="#0F172A" font-family="-apple-system, BlinkMacSystemFont, 'Segoe UI', Roboto, Helvetica, Arial, sans-serif" font-size="11.5" font-weight="700">Slice 18</text>
<text data-cfx-role="radial-bar-legend-value" data-cfx-point="17" x="457.795" y="524" text-anchor="end" fill="#64748B" font-family="-apple-system, BlinkMacSystemFont, 'Segoe UI', Roboto, Helvetica, Arial, sans-serif" font-size="11.5" font-weight="700">73</text>
<circle data-cfx-role="radial-bar-legend-marker" data-cfx-point="18" cx="467.795" cy="520" r="4.5" fill="#10B981"/>
<text data-cfx-role="radial-bar-legend-label" data-cfx-point="18" x="480.795" y="524" fill="#0F172A" font-family="-apple-system, BlinkMacSystemFont, 'Segoe UI', Roboto, Helvetica, Arial, sans-serif" font-size="11.5" font-weight="700">Slice 19</text>
<text data-cfx-role="radial-bar-legend-value" data-cfx-point="18" x="562.205" y="524" text-anchor="end" fill="#64748B" font-family="-apple-system, BlinkMacSystemFont, 'Segoe UI', Roboto, Helvetica, Arial, sans-serif" font-size="11.5" font-weight="700">86</text>
<circle data-cfx-role="radial-bar-legend-marker" data-cfx-point="19" cx="572.205" cy="520" r="4.5" fill="#F59E0B"/>
<text data-cfx-role="radial-bar-legend-label" data-cfx-point="19" x="585.205" y="524" fill="#0F172A" font-family="-apple-system, BlinkMacSystemFont, 'Segoe UI', Roboto, Helvetica, Arial, sans-serif" font-size="11.5" font-weight="700">Slice 20</text>
<text data-cfx-role="radial-bar-legend-value" data-cfx-point="19" x="666.615" y="524" text-anchor="end" fill="#64748B" font-family="-apple-system, BlinkMacSystemFont, 'Segoe UI', Roboto, Helvetica, Arial, sans-serif" font-size="11.5" font-weight="700">38</text>
<circle data-cfx-role="radial-bar-legend-marker" data-cfx-point="20" cx="676.615" cy="520" r="4.5" fill="#EF4444"/>
<text data-cfx-role="radial-bar-legend-label" data-cfx-point="20" x="689.615" y="524" fill="#0F172A" font-family="-apple-system, BlinkMacSystemFont, 'Segoe UI', Roboto, Helvetica, Arial, sans-serif" font-size="11.5" font-weight="700">Slice 21</text>
<text data-cfx-role="radial-bar-legend-value" data-cfx-point="20" x="771.025" y="524" text-anchor="end" fill="#64748B" font-family="-apple-system, BlinkMacSystemFont, 'Segoe UI', Roboto, Helvetica, Arial, sans-serif" font-size="11.5" font-weight="700">51</text>
<circle data-cfx-role="radial-bar-legend-marker" data-cfx-point="21" cx="781.025" cy="520" r="4.5" fill="#8B5CF6"/>
<text data-cfx-role="radial-bar-legend-label" data-cfx-point="21" x="794.025" y="524" fill="#0F172A" font-family="-apple-system, BlinkMacSystemFont, 'Segoe UI', Roboto, Helvetica, Arial, sans-serif" font-size="11.5" font-weight="700">Slice 22</text>
<text data-cfx-role="radial-bar-legend-value" data-cfx-point="21" x="875.435" y="524" text-anchor="end" fill="#64748B" font-family="-apple-system, BlinkMacSystemFont, 'Segoe UI', Roboto, Helvetica, Arial, sans-serif" font-size="11.5" font-weight="700">64</text>
<g data-cfx-role="legend-row"><text data-cfx-role="legend-overflow" data-cfx-omitted="18" x="471.99" y="544" font-size="11.5" font-family="-apple-system, BlinkMacSystemFont, 'Segoe UI', Roboto, Helvetica, Arial, sans-serif" fill="#64748B" font-weight="600">+ 18 more entries</text></g>
</g>
</g>
</g>
</svg>
