<svg xmlns="http://www.w3.org/2000/svg" id="cfx-visual-canvas-2eb65bff" width="1200" height="630" viewBox="0 0 1200 630" role="img" aria-labelledby="cfx-visual-canvas-2eb65bff-title cfx-visual-canvas-2eb65bff-desc" preserveAspectRatio="xMidYMid meet" shape-rendering="geometricPrecision" text-rendering="geometricPrecision" style="max-width:100%;height:auto;display:block">
<title id="cfx-visual-canvas-2eb65bff-title">PowerBGInfo social preview</title>
<desc id="cfx-visual-canvas-2eb65bff-desc">Layered static visual canvas.</desc>
<defs>
<linearGradient id="cfx-visual-canvas-2eb65bff-background" x1="0" y1="0" x2="0" y2="1">
<stop offset="0%" stop-color="#020713"/>
<stop offset="100%" stop-color="#071A35"/>
</linearGradient>
<linearGradient id="cfx-visual-canvas-2eb65bff-tile-glass" x1="0" y1="0" x2="0" y2="1">
<stop offset="0%" stop-color="rgba(7,21,44,0.91)"/>
<stop offset="100%" stop-color="rgba(3,10,23,0.878)"/>
</linearGradient>
<linearGradient id="cfx-visual-canvas-2eb65bff-hero-badge" x1="0" y1="0" x2="0" y2="1">
<stop offset="0%" stop-color="#0B1C3A"/>
<stop offset="100%" stop-color="#051021"/>
</linearGradient>
<filter id="cfx-visual-canvas-2eb65bff-soft-glow" x="-30%" y="-30%" width="160%" height="160%">
<feGaussianBlur stdDeviation="5" result="blur"/>
<feMerge><feMergeNode in="blur"/><feMergeNode in="SourceGraphic"/></feMerge>
</filter>
<filter id="cfx-visual-canvas-2eb65bff-raised-depth" x="-18%" y="-18%" width="136%" height="148%">
<feDropShadow dx="0" dy="11" stdDeviation="8" flood-color="#000000" flood-opacity="0.42"/>
<feDropShadow dx="0" dy="0" stdDeviation="6" flood-color="#22A7FF" flood-opacity="0.24"/>
</filter>
</defs>
<rect data-cfx-role="visual-canvas-background" width="100%" height="100%" fill="url(#cfx-visual-canvas-2eb65bff-background)"/>
<g data-cfx-role="visual-canvas-tech-backdrop">
<circle cx="0" cy="31.5" r="4.2" fill="rgba(34,167,255,0.141)"/>
<circle cx="444" cy="84.168" r="1.8" fill="rgba(34,167,255,0.176)"/>
<circle cx="888" cy="136.836" r="1.8" fill="rgba(34,167,255,0.212)"/>
<circle cx="120" cy="189.504" r="1.8" fill="rgba(34,167,255,0.243)"/>
<circle cx="564" cy="56.448" r="1.8" fill="rgba(34,167,255,0.278)"/>
<circle cx="1008" cy="109.116" r="1.8" fill="rgba(34,167,255,0.141)"/>
<circle cx="240" cy="161.784" r="1.8" fill="rgba(34,167,255,0.176)"/>
<circle cx="684" cy="214.452" r="1.8" fill="rgba(34,167,255,0.212)"/>
<circle cx="1128" cy="81.396" r="1.8" fill="rgba(34,167,255,0.243)"/>
<circle cx="360" cy="134.064" r="1.8" fill="rgba(34,167,255,0.278)"/>
<circle cx="804" cy="186.732" r="1.8" fill="rgba(34,167,255,0.141)"/>
<circle cx="36" cy="53.676" r="4.2" fill="rgba(34,167,255,0.176)"/>
<circle cx="480" cy="106.344" r="1.8" fill="rgba(34,167,255,0.212)"/>
<circle cx="924" cy="159.012" r="1.8" fill="rgba(34,167,255,0.243)"/>
<circle cx="156" cy="211.68" r="1.8" fill="rgba(34,167,255,0.278)"/>
<circle cx="600" cy="78.624" r="1.8" fill="rgba(34,167,255,0.141)"/>
<circle cx="1044" cy="131.292" r="1.8" fill="rgba(34,167,255,0.176)"/>
<circle cx="276" cy="183.96" r="1.8" fill="rgba(34,167,255,0.212)"/>
<circle cx="720" cy="50.904" r="1.8" fill="rgba(34,167,255,0.243)"/>
<circle cx="1164" cy="103.572" r="1.8" fill="rgba(34,167,255,0.278)"/>
<circle cx="396" cy="156.24" r="1.8" fill="rgba(34,167,255,0.141)"/>
<circle cx="840" cy="208.908" r="1.8" fill="rgba(34,167,255,0.176)"/>
<circle cx="72" cy="75.852" r="4.2" fill="rgba(34,167,255,0.212)"/>
<circle cx="516" cy="128.52" r="1.8" fill="rgba(34,167,255,0.243)"/>
<circle cx="960" cy="181.188" r="1.8" fill="rgba(34,167,255,0.278)"/>
<circle cx="192" cy="48.132" r="1.8" fill="rgba(34,167,255,0.141)"/>
<circle cx="636" cy="100.8" r="1.8" fill="rgba(34,167,255,0.176)"/>
<circle cx="1080" cy="153.468" r="1.8" fill="rgba(34,167,255,0.212)"/>
<circle cx="312" cy="206.136" r="1.8" fill="rgba(34,167,255,0.243)"/>
<circle cx="756" cy="73.08" r="1.8" fill="rgba(34,167,255,0.278)"/>
<circle cx="1200" cy="125.748" r="1.8" fill="rgba(34,167,255,0.141)"/>
<circle cx="432" cy="178.416" r="1.8" fill="rgba(34,167,255,0.176)"/>
<circle cx="876" cy="45.36" r="1.8" fill="rgba(34,167,255,0.212)"/>
<circle cx="108" cy="98.028" r="4.2" fill="rgba(34,167,255,0.243)"/>
<circle cx="552" cy="150.696" r="1.8" fill="rgba(34,167,255,0.278)"/>
<circle cx="996" cy="203.364" r="1.8" fill="rgba(34,167,255,0.141)"/>
<circle cx="228" cy="70.308" r="1.8" fill="rgba(34,167,255,0.176)"/>
<circle cx="672" cy="122.976" r="1.8" fill="rgba(34,167,255,0.212)"/>
<circle cx="1116" cy="175.644" r="1.8" fill="rgba(34,167,255,0.243)"/>
<circle cx="348" cy="42.588" r="1.8" fill="rgba(34,167,255,0.278)"/>
<circle cx="792" cy="95.256" r="1.8" fill="rgba(34,167,255,0.141)"/>
<circle cx="24" cy="147.924" r="1.8" fill="rgba(34,167,255,0.176)"/>
<circle cx="468" cy="200.592" r="1.8" fill="rgba(34,167,255,0.212)"/>
<circle cx="912" cy="67.536" r="1.8" fill="rgba(34,167,255,0.243)"/>
<circle cx="144" cy="120.204" r="4.2" fill="rgba(34,167,255,0.278)"/>
<circle cx="588" cy="172.872" r="1.8" fill="rgba(34,167,255,0.141)"/>
<circle cx="1032" cy="39.816" r="1.8" fill="rgba(34,167,255,0.176)"/>
<circle cx="264" cy="92.484" r="1.8" fill="rgba(34,167,255,0.212)"/>
<circle cx="708" cy="145.152" r="1.8" fill="rgba(34,167,255,0.243)"/>
<circle cx="1152" cy="197.82" r="1.8" fill="rgba(34,167,255,0.278)"/>
<circle cx="384" cy="64.764" r="1.8" fill="rgba(34,167,255,0.141)"/>
<circle cx="828" cy="117.432" r="1.8" fill="rgba(34,167,255,0.176)"/>
<circle cx="60" cy="170.1" r="1.8" fill="rgba(34,167,255,0.212)"/>
<circle cx="504" cy="37.044" r="1.8" fill="rgba(34,167,255,0.243)"/>
<circle cx="948" cy="89.712" r="1.8" fill="rgba(34,167,255,0.278)"/>
<circle cx="180" cy="142.38" r="4.2" fill="rgba(34,167,255,0.141)"/>
<path d="M 96 113.4 C 336 33.4, 576 233.4, 816 103.4" fill="none" stroke="rgba(34,167,255,0.11)" stroke-width="1.1"/>
<path d="M 96 141.75 C 336 61.75, 576 261.75, 816 131.75" fill="none" stroke="rgba(34,167,255,0.11)" stroke-width="1.1"/>
<path d="M 96 170.1 C 336 90.1, 576 290.1, 816 160.1" fill="none" stroke="rgba(34,167,255,0.11)" stroke-width="1.1"/>
<path d="M 96 198.45 C 336 118.45, 576 318.45, 816 188.45" fill="none" stroke="rgba(34,167,255,0.11)" stroke-width="1.1"/>
<path d="M 96 226.8 C 336 146.8, 576 346.8, 816 216.8" fill="none" stroke="rgba(34,167,255,0.11)" stroke-width="1.1"/>
<path d="M 96 255.15 C 336 175.15, 576 375.15, 816 245.15" fill="none" stroke="rgba(34,167,255,0.11)" stroke-width="1.1"/>
<path d="M 96 283.5 C 336 203.5, 576 403.5, 816 273.5" fill="none" stroke="rgba(34,167,255,0.11)" stroke-width="1.1"/>
<path d="M 96 311.85 C 336 231.85, 576 431.85, 816 301.85" fill="none" stroke="rgba(34,167,255,0.11)" stroke-width="1.1"/>
<path d="M 96 340.2 C 336 260.2, 576 460.2, 816 330.2" fill="none" stroke="rgba(34,167,255,0.11)" stroke-width="1.1"/>
<path d="M 96 368.55 C 336 288.55, 576 488.55, 816 358.55" fill="none" stroke="rgba(34,167,255,0.11)" stroke-width="1.1"/>
<path data-cfx-role="visual-canvas-horizon" d="M 0 491.4 C 240 453.6, 456 516.6, 660 478.8 C 888 441, 1008 535.5, 1200 459.9 L 1200 630 L 0 630 Z" fill="rgba(6,18,37,0.776)"/>
<path data-cfx-role="visual-canvas-road-glow" d="M 600 516.6 C 864 541.8, 960 585.9, 1104 630" fill="none" stroke="#22A7FF" stroke-opacity="0.76" stroke-width="5" filter="url(#cfx-visual-canvas-2eb65bff-soft-glow)"/>
</g>
<g data-cfx-role="visual-canvas-info-tile">
<rect x="48.5" y="92.5" width="299" height="81" rx="14.76" fill="url(#cfx-visual-canvas-2eb65bff-tile-glass)" stroke="rgba(47,128,255,0.722)" stroke-width="1.4"/>
<rect x="50.5" y="94.5" width="295" height="77" rx="12.76" fill="none" stroke="rgba(255,255,255,0.071)"/>
<rect x="68" y="109" width="48" height="48" rx="12" fill="rgba(47,128,255,0.18)" stroke="none"/>
<text x="92" y="140.258" text-anchor="middle" fill="#2F80FF" font-family="Segoe UI, Arial, sans-serif" font-size="20.16" font-weight="800">PC</text>
<text x="138" y="119.12" fill="#C4D4EC" font-family="Segoe UI, Arial, sans-serif" font-size="14" font-weight="700">HOSTNAME</text>
<text x="138" y="147.12" fill="#F8FAFC" font-family="Segoe UI, Arial, sans-serif" font-size="21" font-weight="650">DEV-WKS-01</text>
</g>
<g data-cfx-role="visual-canvas-info-tile">
<rect x="48.5" y="190.5" width="299" height="81" rx="14.76" fill="url(#cfx-visual-canvas-2eb65bff-tile-glass)" stroke="rgba(47,128,255,0.722)" stroke-width="1.4"/>
<rect x="50.5" y="192.5" width="295" height="77" rx="12.76" fill="none" stroke="rgba(255,255,255,0.071)"/>
<rect x="68" y="207" width="48" height="48" rx="12" fill="rgba(47,128,255,0.18)" stroke="none"/>
<text x="92" y="238.258" text-anchor="middle" fill="#2F80FF" font-family="Segoe UI, Arial, sans-serif" font-size="20.16" font-weight="800">IP</text>
<text x="138" y="214.32" fill="#C4D4EC" font-family="Segoe UI, Arial, sans-serif" font-size="11.2" font-weight="700">IP ADDRESS</text>
<text x="138" y="238.12" fill="#F8FAFC" font-family="Segoe UI, Arial, sans-serif" font-size="16.8" font-weight="650">10.0.0.42</text>
<text x="138" y="254.52" fill="#A8BAD4" font-family="Segoe UI, Arial, sans-serif" font-size="10.4" font-weight="500">192.168.1.42</text>
</g>
<g data-cfx-role="visual-canvas-info-tile">
<rect x="48.5" y="288.5" width="299" height="81" rx="14.76" fill="url(#cfx-visual-canvas-2eb65bff-tile-glass)" stroke="rgba(47,128,255,0.722)" stroke-width="1.4"/>
<rect x="50.5" y="290.5" width="295" height="77" rx="12.76" fill="none" stroke="rgba(255,255,255,0.071)"/>
<rect x="68" y="305" width="48" height="48" rx="12" fill="rgba(47,128,255,0.18)" stroke="none"/>
<text x="92" y="336.258" text-anchor="middle" fill="#2F80FF" font-family="Segoe UI, Arial, sans-serif" font-size="20.16" font-weight="800">OS</text>
<text x="138" y="312.32" fill="#C4D4EC" font-family="Segoe UI, Arial, sans-serif" font-size="11.2" font-weight="700">OS</text>
<text x="138" y="336.12" fill="#F8FAFC" font-family="Segoe UI, Arial, sans-serif" font-size="16.8" font-weight="650">Windows 11</text>
<text x="138" y="352.52" fill="#A8BAD4" font-family="Segoe UI, Arial, sans-serif" font-size="10.4" font-weight="500">24H2</text>
</g>
<g data-cfx-role="visual-canvas-info-tile">
<rect x="852.5" y="70.5" width="299" height="95" rx="16" fill="url(#cfx-visual-canvas-2eb65bff-tile-glass)" stroke="rgba(96,165,250,0.722)" stroke-width="1.4"/>
<rect x="854.5" y="72.5" width="295" height="91" rx="14" fill="none" stroke="rgba(255,255,255,0.071)"/>
<rect x="872" y="91" width="54" height="54" rx="13" fill="rgba(96,165,250,0.18)" stroke="none"/>
<text x="899" y="126.165" text-anchor="middle" fill="#60A5FA" font-family="Segoe UI, Arial, sans-serif" font-size="22.68" font-weight="800">CPU</text>
<text x="948" y="99.36" fill="#C4D4EC" font-family="Segoe UI, Arial, sans-serif" font-size="14" font-weight="700">CPU</text>
<text x="948" y="128.36" fill="#F8FAFC" font-family="Segoe UI, Arial, sans-serif" font-size="22" font-weight="650">Intel Core i7</text>
<rect x="948" y="150" width="184" height="8" rx="4" fill="rgba(24,52,93,0.922)"/>
<rect x="948" y="150" width="42.32" height="8" rx="4" fill="#60A5FA"/>
</g>
<g data-cfx-role="visual-canvas-info-tile">
<rect x="852.5" y="184.5" width="299" height="95" rx="16" fill="url(#cfx-visual-canvas-2eb65bff-tile-glass)" stroke="rgba(96,165,250,0.722)" stroke-width="1.4"/>
<rect x="854.5" y="186.5" width="295" height="91" rx="14" fill="none" stroke="rgba(255,255,255,0.071)"/>
<rect x="872" y="205" width="54" height="54" rx="13" fill="rgba(96,165,250,0.18)" stroke="none"/>
<text x="899" y="240.165" text-anchor="middle" fill="#60A5FA" font-family="Segoe UI, Arial, sans-serif" font-size="22.68" font-weight="800">RAM</text>
<text x="948" y="213.36" fill="#C4D4EC" font-family="Segoe UI, Arial, sans-serif" font-size="14" font-weight="700">RAM</text>
<text x="948" y="242.36" fill="#F8FAFC" font-family="Segoe UI, Arial, sans-serif" font-size="22" font-weight="650">32.0 GB</text>
<rect x="948" y="264" width="184" height="8" rx="4" fill="rgba(24,52,93,0.922)"/>
<rect x="948" y="264" width="75.44" height="8" rx="4" fill="#60A5FA"/>
</g>
<g data-cfx-role="visual-canvas-info-tile">
<rect x="852.5" y="298.5" width="299" height="81" rx="14.76" fill="url(#cfx-visual-canvas-2eb65bff-tile-glass)" stroke="rgba(96,165,250,0.722)" stroke-width="1.4"/>
<rect x="854.5" y="300.5" width="295" height="77" rx="12.76" fill="none" stroke="rgba(255,255,255,0.071)"/>
<rect x="872" y="315" width="48" height="48" rx="12" fill="rgba(96,165,250,0.18)" stroke="none"/>
<text x="896" y="346.258" text-anchor="middle" fill="#60A5FA" font-family="Segoe UI, Arial, sans-serif" font-size="20.16" font-weight="800">USR</text>
<text x="942" y="325.12" fill="#C4D4EC" font-family="Segoe UI, Arial, sans-serif" font-size="14" font-weight="700">USER</text>
<text x="942" y="353.12" fill="#F8FAFC" font-family="Segoe UI, Arial, sans-serif" font-size="21" font-weight="650">jdoe</text>
</g>
<g data-cfx-role="visual-canvas-hero-badge">
<rect x="538" y="157" width="124" height="88" rx="17.6" fill="url(#cfx-visual-canvas-2eb65bff-hero-badge)" stroke="#22A7FF" stroke-width="2.4" filter="url(#cfx-visual-canvas-2eb65bff-soft-glow)"/>
<text x="600" y="215.96" text-anchor="middle" fill="#E8F1FF" font-family="Cascadia Mono, Consolas, monospace" font-size="36.96" font-weight="850">&gt;_</text>
</g>
<text data-cfx-role="visual-canvas-hero-title" x="600" y="378" text-anchor="middle" font-family="Segoe UI, Arial, sans-serif" font-size="82" font-weight="850" letter-spacing="0"><tspan fill="#F8FAFC">Power</tspan><tspan fill="#2F80FF">BGInfo</tspan></text>
<text data-cfx-role="visual-canvas-text" x="600" y="426" text-anchor="middle" fill="#C6D3EA" font-family="Segoe UI, Arial, sans-serif" font-size="24" font-weight="500">Desktop background insights for Windows and PowerShell</text>
<g data-cfx-role="visual-canvas-feature-strip">
<text x="367.5" y="548" text-anchor="middle" fill="#2F80FF" font-family="Segoe UI, Arial, sans-serif" font-size="22" font-weight="800">PS</text>
<text x="367.5" y="580" text-anchor="middle" fill="#D7E4F8" font-family="Segoe UI, Arial, sans-serif" font-size="15" font-weight="700">LIGHTWEIGHT</text>
<line x1="445" y1="526" x2="445" y2="580" stroke="rgba(138,169,214,0.22)"/>
<text x="522.5" y="548" text-anchor="middle" fill="#2F80FF" font-family="Segoe UI, Arial, sans-serif" font-size="22" font-weight="800">OK</text>
<text x="522.5" y="580" text-anchor="middle" fill="#D7E4F8" font-family="Segoe UI, Arial, sans-serif" font-size="15" font-weight="700">SECURE</text>
<line x1="600" y1="526" x2="600" y2="580" stroke="rgba(138,169,214,0.22)"/>
<text x="677.5" y="548" text-anchor="middle" fill="#2F80FF" font-family="Segoe UI, Arial, sans-serif" font-size="22" font-weight="800">UI</text>
<text x="677.5" y="580" text-anchor="middle" fill="#D7E4F8" font-family="Segoe UI, Arial, sans-serif" font-size="15" font-weight="700">CUSTOMIZABLE</text>
<line x1="755" y1="526" x2="755" y2="580" stroke="rgba(138,169,214,0.22)"/>
<text x="832.5" y="548" text-anchor="middle" fill="#2F80FF" font-family="Segoe UI, Arial, sans-serif" font-size="22" font-weight="800">OS</text>
<text x="832.5" y="580" text-anchor="middle" fill="#D7E4F8" font-family="Segoe UI, Arial, sans-serif" font-size="15" font-weight="700">OPEN SOURCE</text>
</g>
</svg>
